<?xml version="1.0" encoding="UTF-8"?>
<svg xmlns="http://www.w3.org/2000/svg" viewBox="0 0 2500 2500">
  <defs>
    <style>
      .cls-1 {
        fill: #000;
      }

      .cls-1, .cls-2, .cls-3, .cls-4 {
        stroke-width: 0px;
      }

      .cls-2 {
        fill: none;
      }

      .cls-3 {
        fill: #de2800;
      }

      .cls-4 {
        fill: #fff;
      }
    </style>
  </defs>
  <g id="Layer_9" data-name="Layer 9">
    <rect class="cls-4" x="-11.4" y="-13.78" width="2528.78" height="2532.29"/>
  </g>
  <g id="Cardio">
    <path class="cls-4" d="M1909.94,547.26c-6.41-8.35-5.01-15.85-2-23.05,3.63-8.68,7.96-17.06,12.01-25.62,11.28,3.6,12.71,5.82,8.62,16.18-3.11,7.87-6.7,15.58-10.65,23.06-1.74,3.3-4.88,5.85-7.98,9.43Z"/>
    <path class="cls-4" d="M1908.82,498.73c-6.2,14.46-11.62,28.42-24.24,38.39-5.01-4.76-3.78-9.39-2.2-13.26,3.46-8.47,7.37-16.8,11.72-24.85,2.65-4.9,4.39-4.71,14.72-.29Z"/>
    <path class="cls-4" d="M1928.88,561.91c-4.85-8.66-.81-24.15,12-45.4,5.3.82,7.8,4.63,6.61,9.24-3.33,12.88-7.84,25.38-16.69,35.74-.34.4-1.26.29-1.92.41Z"/>
    <path class="cls-4" d="M1940.77,569.22c5.69-11.79,10.64-22.04,15.61-32.34,8.34,4.74,8.68,5.19,10.88,13.64-4.34,3.28-8.68,6.36-12.79,9.73-3.75,3.08-5.78,8.5-13.7,8.97Z"/>
    <g>
      <path class="cls-1" d="M1929.68,1499.84c-4.84.13-7.4.04-9.94.29-24.55,2.38-49.11,1.88-73.55-.76-25.79-2.78-51.49-6.35-77.19-9.88-31.78-4.36-61.5-14.65-89.75-30.02-16.12-8.77-33.35-15.49-50.15-22.99-2.37-1.06-5.12-1.28-7.93-1.94-1.25,2.29-2.46,3.95-3.12,5.81-9.48,27.03-24.51,50.95-41.12,74.02-19.35,26.86-38.44,53.9-57.91,80.66-25.58,35.15-55.08,66.91-85.61,97.72-10.8,10.9-22.26,21.13-33.41,31.68-.99.94-2.15,1.78-2.89,2.89-18.87,28.47-46.79,46.41-74.97,63.85-35.45,21.93-69.97,45.1-102.7,70.96-25.44,20.1-51.25,39.75-76.95,59.52-40.63,31.26-78.89,65.25-115.51,101.07-25.02,24.47-46.3,51.87-62.54,83.12-7.93,15.26-13.55,31.3-18.36,47.65-7.51,25.52-14.66,51.16-21.65,76.83-1.78,6.55-2.88,13.37-3.47,20.13-1.01,11.6,2.44,21.83,12.29,28.69,6.39,4.45,13.41,8.04,20.32,11.71,4.21,2.23,8.84,3.65,13.09,5.8,13.12,6.64,15.92,22.52,6.41,33.52-8.49,9.82-18.86,14.05-31.71,12.36-14.19-1.87-28.66-2.49-42.53-5.73-25.94-6.06-46.92-20.05-60.12-43.89-9.34-16.86-15.04-35.17-18.8-53.96-6.64-33.14-19.17-63.9-35.12-93.57-6.92-12.86-11.73-26.84-17.75-40.2-4.27-9.47-1.58-17.25,5.15-24.19,14.06-14.48,28.43-28.52,48.02-35.62,3.8-1.38,7.49-3.48,10.74-5.9,33.69-25.07,66.85-50.62,95.27-82.01,23.11-25.53,47.8-49.65,72.17-74.02,6.19-6.19,10.79-12.95,14.44-20.8,7.19-15.46,14.21-31.07,22.62-45.87,17.04-29.97,40.01-55.08,65.8-77.82,33.16-29.23,69.13-54.45,107.22-76.75,9.21-5.39,17.92-11.17,21.09-22.48.87-3.1,3.43-5.91,5.7-8.41,25.35-28.01,41.83-61.15,56.71-95.47,14.24-32.83,26.2-66.81,45.9-97.06,14.53-22.3,29.65-44.23,43.78-66.78,6.1-9.74,11.22-20.3,15.28-31.06,6.17-16.33,3.88-33.68,3.83-50.68-.04-12.61-1.4-25.36-.06-37.82,5.85-54.5,24.08-103.56,65.86-141.33,7.75-7,16.77-12.59,25.83-19.3-4.09-4.23-7.25-7.27-10.15-10.53-7.42-8.35-8.98-16.67-3.5-26.35,18.02-31.88,26.44-67.19,36.89-101.77,1.95-6.46,2.67-13.42,3.07-20.2,1.24-21.1,1.5-42.28,3.21-63.33,1.32-16.28,3.36-32.61,6.68-48.58,6.47-31.12,11.67-62.38,14.53-94.03.11-1.23-.45-2.53-.82-4.43-3.34.29-6.34.36-9.27.84-24.41,4.05-48.97,3.57-73.49,1.9-27.12-1.85-26.29-.26-37.48,18.18-14.14,23.31-26.54,47.67-39.77,71.54-9.59,17.3-18.12,35.32-29.17,51.64-25.09,37.05-44.3,76.76-58.49,119.07-8.49,25.31-19.77,49.43-32.55,72.82-10.52,19.24-24.85,34.83-44.47,45.46-16.23,8.79-32.3,17.75-49.98,23.4-12.71,4.06-25.43,5.61-37.9-.4-4.84-2.34-9.46-5.37-13.67-8.73-3.89-3.1-5.44-7.64-5.17-12.8.31-5.79.39-11.6.32-17.39-.03-2.7,0-5.68-1.09-8.03-3.31-7.13-7.23-13.87-4.94-22.37.43-1.59-1.95-4.11-3.32-5.98-4.46-6.11-5.03-12.42-1.67-19.24,2.11-4.28,3.97-8.68,5.72-13.12,2.67-6.79,7.99-11.11,13.99-14.42,11.34-6.27,22.88-12.19,34.47-17.99,14.35-7.17,28.81-14.12,43.26-21.07,6.71-3.23,10.95-8.19,14.56-14.91,12.79-23.8,18.26-49.9,25.18-75.55,10.48-38.84,17.32-78.67,31.33-116.56,11.38-30.81,25.33-60.38,42.57-88.4,8.75-14.21,20.75-23.25,37.05-26.65,20.44-4.25,38.16-14.35,55.52-25.42,41.52-26.47,86.33-44.28,135.8-47.38,15.88-.99,28.91-6.4,41.55-14.84,18.25-12.17,37.23-22.84,58.84-28.07,2.82-.68,5.65-2.47,7.84-4.46,13.14-11.95,28.34-20.21,45.32-24.96,5.94-1.66,9.15-5.11,11.78-10.23,12.92-25.12,14.23-51.47,9.13-78.7-3.62-19.3-9.89-37.74-18.96-54.99-16.77-31.9-14.89-64.44-5.02-97.47,8.61-28.82,28.96-48.07,53.27-63.85,11.24-7.29,23.17-13.04,36.56-15.36,12.43-2.15,24.75-5.02,37.24-6.65,5.53-.72,11.35.96,17.05,1.35,6.4.44,13.08,1.96,19.16.71,21.81-4.48,40.48,2.27,57.69,14.67,14.16,10.2,24.1,24,31.43,39.71,3.24,6.95,4.92,14.25,3.2,21.9-1.16,5.11.14,9.24,3.44,13.23,21.81,26.33,28.16,56.84,24.73,90.21-.97,9.44-.89,19.09-.26,28.58.82,12.43,4.97,23.96,11.75,34.54,4.81,7.51,4.57,9.87-1.4,16.14-3.28,3.44-6.95,6.58-10.72,9.48-3.62,2.79-5.09,5.75-4.1,10.52,2.27,10.93-.05,20.88-7.41,29.62-1.29,1.53-2.05,4.57-1.47,6.42,1.87,6.02.48,11.56-1.62,16.98-4.66,12.06-9.33,24.12-14.52,35.96-2.96,6.76-8.69,10.66-16.26,10.47-10.16-.26-20.52.05-30.4-1.88-13.44-2.63-26.1-2.91-39.15,2.05-12.37,4.71-18.56,14.42-23.91,25.28-1.75,3.55-.76,6.6,2.51,8.92,1.67,1.18,3.22,2.53,4.87,3.74,26.84,19.78,42.55,46.55,49.37,78.84,2.33,11.02,4.32,22.11,6.44,33.16.86,4.48,2.27,8.43,6.86,10.69,24.81,12.28,38.39,34.11,48.68,58.43,5.18,12.25,9.24,24.97,14.25,37.29,3.81,9.36,5.46,10.51,15.41,14.28,1.81-1.52,3.8-3.3,5.9-4.94,7.25-5.66,13.82-12.78,21.94-16.59,20.72-9.73,34.95-25.77,47.23-44.14,14.44-21.6,27.1-44.09,36.84-68.35,5.15-12.83,4.58-23.67-3.23-34.57-7.94-11.09-9.8-23.81-9.68-36.99.04-4.08.63-8.17,1.14-12.23,1.6-12.77.56-25.14-4.48-37.15-3.43-8.18-6.56-16.5-9.41-24.9-3.1-9.14-1.78-14.87,3.58-18.48,5.62-3.79,13.53-3.65,19.92,2.06,5.5,4.92,9.8,11.22,14.37,17.11,2.01,2.59,3.37,5.67,5.82,9.9,4.56-5.75,8.28-10.49,12.05-15.19,9.27-11.55,18.83-14.25,32.46-8.52,9.87,4.15,18.71,9.78,23.97,19.78,1.39,2.64,3.87,4.71,5.82,7.05,1.96,2.35,4.91,4.44,5.67,7.14,2.58,9.15,8.86,15.74,14.21,23.09,6.18,8.48,6.22,18.55,5.71,28.54-.89,17.57-6.2,34.17-11.14,50.86-5.78,19.53-15.33,37.13-26.65,53.91-2.26,3.35-4.31,7.01-5.58,10.83-11.94,35.8-28.68,69.33-47.8,101.75-14.73,24.99-29.53,49.94-44.13,75-16.17,27.75-37.34,51.21-61.42,72.19-3.08,2.68-6.45,5.06-9.84,7.34-9.06,6.08-18,5.84-28.97,3.53-22.3-4.69-39.17-16.94-54.67-32.13-4.06-3.98-7.51-8.9-10.13-13.97-3.26-6.31-7.55-11.34-13.52-14.95-24.54-14.86-42.56-35.99-57.78-59.84-2.35-3.69-4.73-7.36-8.18-12.72-2.33,4.72-4.01,7.87-5.48,11.12-14.37,31.74-26.74,64.22-37.44,97.4-9.32,28.89-19.98,57.35-29.49,86.19-3.4,10.32-5.3,21.15-7.55,31.82-.84,3.97-1.76,8.38-.86,12.17,3.88,16.28-2.96,29.65-11.54,42.09-4.65,6.74-6.16,12.87-4.88,20.79,1.79,11.09,2.62,22.36,3.49,33.58.47,6.11,2.75,9.67,8.94,11.9,61.95,22.28,123.85,44.68,187.37,62.25,38.56,10.66,73.18,29.79,106.81,50.89,2.87,1.8,5.8,3.85,7.94,6.41,9.82,11.77,22.76,19.45,35.35,27.61,17.49,11.33,34.47,23.23,49.65,37.7,16.82,16.04,29.96,34.41,38.94,55.83,3.93,9.39,5.05,18.91,3.67,29.03-3.78,27.64-16.98,50.94-33.22,72.77-15.78,21.21-34.53,39.06-56.55,54.24-21.84,15.05-41.81,32.91-62.02,50.22-36.33,31.09-72.95,61.68-114.09,86.44-43.46,26.16-80.92,58.96-110.54,100.55-13.27,18.64-21.87,38.08-21.32,61.55.34,14.6-2.28,29.24-2.85,43.89-.55,13.95-1.03,28,0,41.89,1.76,23.83,12.56,44.41,25.67,63.84,6.29,9.33,13.57,18.02,19.41,27.61,10.23,16.81-1.41,36.54-21.28,36.01-7.02-.19-14.23-1.89-20.93-4.14-55.07-18.56-90.46-57.65-110.04-110.78-8.92-24.19-22.32-43.72-40.1-61.8-19.6-19.94-36.72-42.2-51.13-66.34-1.22-2.05-2.39-4.14-3.48-6.26-6.48-12.64-6.15-12.95,3.3-23.31,18.14-19.88,39.01-36.31,62.68-48.87,30.24-16.04,54.73-39.15,79.68-61.93,30.94-28.24,55.98-61.53,82.52-93.58,24.6-29.7,48.84-59.73,74.45-88.55,13.06-14.7,28.76-27.07,43.3-40.45,2.16-1.99,4.51-3.77,8.55-7.12ZM1724.11,1147.92c-12.9,4.46-22.45-2.01-32.26-7.45-14.48-8.03-29.87-13.01-46.27-15.59-14.8-2.33-29.35-6.18-44.1-8.85-18.08-3.27-35.82-8.48-54.5-8.46-12.63.02-25.33-1.3-36.57-8.08-4.54-2.74-8.32-1.9-12.13,1.25-9.47,7.81-19.61,14.93-28.38,23.45-31.1,30.22-46.25,68.63-54.35,110.21-4.4,22.61-2.68,45.56-1.58,68.39,1.38,28.62-5.67,54.71-22.42,78.1-6.16,8.6-12.36,17.19-18,26.13-12.55,19.9-26.03,39.36-36.78,60.22-12.95,25.12-23.47,51.5-35.03,77.34-3.62,8.1-6.93,16.35-10.88,24.29-2.69,5.4-1.52,9.04,3.38,12.01,1.16.7,2.19,1.63,3.31,2.41,44.4,31.12,91.7,56.47,143.58,72.94,5.95,1.89,9.63,1.04,13.37-3.4,16.68-19.84,34.19-39.04,49.99-59.56,19.97-25.94,38.43-53.04,57.81-79.44,16.6-22.62,32.01-45.9,43.05-71.82,1.43-3.36,2.55-6.86,4.27-11.53-13.21-3.25-25.38-6.24-37.54-9.23-36.19-8.89-66.21-26.79-86.28-59.16-11.22-18.1-20.18-37.19-24.27-58.25-.69-3.57-.39-7.42.07-11.07.14-1.07,2.33-2.33,3.75-2.62.89-.18,2.48,1.06,3.1,2.07.86,1.4,1.03,3.21,1.61,4.8,4.69,12.8,8.69,25.9,14.25,38.31,17.3,38.6,46.55,63.16,87.98,72.88,13.6,3.19,27.19,6.48,40.71,10,27.26,7.1,52.68,18.67,77.08,32.57,19.46,11.08,40.2,19.14,62.14,22.87,35.95,6.11,71.89,12.72,108.46,14.43,4.82.23,8.38-.89,11.86-4.35,20.52-20.38,37.18-43.36,50.23-69.28,16.82-33.4,23.71-69.57,31.57-105.54,1.5-6.87,3.29-13.68,5.09-21.14-4.62-1.69-8.67-3.41-12.85-4.68-19.9-6.05-39.88-11.86-59.77-17.97-49.92-15.33-99.06-32.84-147.3-52.9-6.5-2.71-10.01-6.63-10.86-13.33-1.08-8.45-2.35-16.89-3.12-25.37-.74-8.09-.93-16.22-1.44-25.61ZM1885.69,1489.02c18.35.22,34.74.43,50.61-3.69,16.04-4.17,31.79-3.05,47.62.12,2.91.58,5.96,1.81,8.32,3.57,3.22,2.41,2.03,6.76-1.92,7.77-1.6.41-3.39.23-5.08.17-23.28-.7-43.85,7.06-61.24,21.9-13.96,11.92-27.39,24.73-39.48,38.52-23.15,26.42-45.36,53.68-67.63,80.87-31.56,38.52-61.55,78.42-99.79,110.92-15.31,13.01-28.61,28.44-46.28,38.57-9.12,5.23-18.68,9.69-27.77,14.96-18.69,10.84-35.74,23.86-50.74,39.46-11.47,11.93-11.22,11.9-1.99,25.59,18.38,27.27,39.61,52.12,62.9,75.26,10.08,10.02,17.71,21.49,22.18,35.13,2.86,8.74,6.21,17.37,9.99,25.75,21.28,47.22,55.1,80.76,105.65,95.59,4.07,1.19,8.89,1.58,12.96.62,11.42-2.68,13.89-8.81,7.46-18.61-5.61-8.54-12.41-16.29-18.13-24.76-17.06-25.26-29.15-52.12-29.56-83.58-.39-29.45,3.65-58.5,5.38-87.75.98-16.55,7-31.15,16.22-44.63,27.26-39.89,60.39-73.88,101.01-100.31,17.44-11.35,35.67-21.68,52.13-34.31,30.29-23.24,59.57-47.78,89.2-71.87,16.67-13.55,33.12-27.37,49.83-40.87,10.06-8.13,21.09-15.17,30.54-23.93,22.78-21.12,41.01-45.79,52.11-75,7.81-20.57,8.12-40.61-4.34-60.68-14.53-23.4-33.21-42.31-55.11-58.37-14.3-10.49-30.05-19.23-43.31-30.85-23.45-20.56-50.72-34.42-77.98-48.51-9.04-4.67-11.24-3.25-13.14,6.44-3.61,18.4-7.01,36.84-10.96,55.17-8.31,38.59-24.31,73.74-48.28,105.15-6.37,8.35-13.29,16.28-21.39,26.15ZM1579.09,713.65c-23.75,3.02-24.14,3.38-26.02,24.94-.38,4.41-.21,8.87-.61,13.28-.68,7.46-1.18,14.98-2.51,22.33-3.4,18.78-7.36,37.46-10.84,56.22-4.5,24.23-4.79,48.82-6.29,73.33-1.23,20.04-1.97,40.65-7.29,59.79-9.01,32.42-17.58,65.29-34.53,94.98-4,7-3.15,10.58,2.5,16.51,2.33,2.45,5.15,4.44,7.79,6.59,14.27,11.57,31.1,14.42,48.86,15.28,11.85.57,23.71,2.41,35.41,4.55,20.45,3.73,40.67,8.88,61.2,12.03,18.86,2.89,36.42,8.59,52.92,17.99,3.24,1.85,6.61,3.73,10.16,4.73,6.73,1.9,14.82,2.45,19.21-2.73,6.74-7.96,12.77-17.59,11.41-28.79-1.96-16.08,1.38-31.38,5.9-46.33,7.41-24.46,15.69-48.68,24.22-72.78,11.72-33.1,23.72-66.11,36.14-98.96,9.77-25.83,20.83-51.17,30.45-77.05,8.69-23.38,11.85-47.9,7.66-72.53-3.76-22.15-9.63-43.94-14.63-65.87-.1-.42-1.02-.65-1.55-.97-10.22,7.73-16.87,6.82-23.5-3.9-3.39-5.49-6.08-11.45-8.63-17.4-6.97-16.31-13.3-32.91-20.61-49.06-13.51-29.83-31.13-56.81-56.55-78.08-5.2-4.35-10.41-8.7-15.82-13.23-13.96,1.25-30.57,8.71-37.15,16.89,4.74.91,9.43,1.72,14.08,2.74,6.23,1.36,12.53,2.57,18.58,4.52,2.2.71,4.76,3.01,5.49,5.16,5.05,14.82,11.11,29.51,14.08,44.78,5.02,25.83,3.4,51.6-6.68,76.42-13.86,34.12-31.74,65.88-57.09,92.73-10.2,10.8-22.43,19.87-34.5,28.66-9.66,7.03-15.12,5.16-20.19-5.65-9.1-19.42-18.44-38.81-21.07-61.1ZM1438.29,1668c-57.32-19.01-108.25-46.52-153.88-81.23-13.8,18.38-27.01,35.7-39.85,53.29-2.95,4.04-4.54,9.07-6.94,13.54-1.41,2.63-2.77,6.74-4.89,7.29-10.35,2.67-17.66,10.17-26.43,15.28-30.18,17.59-57.73,38.87-84.81,60.78-44.11,35.7-78.18,78.88-98.37,132.36-3.07,8.14-8.01,14.81-14.21,20.96-23.01,22.84-46.64,45.15-68.26,69.25-29.86,33.28-64.02,61.33-99.82,87.64-4.37,3.21-9.07,6.41-14.12,8.18-21.46,7.55-35.94,24.06-51.99,39.15,4.56,15.59,11.51,29.99,19.49,43.89,17.65,30.73,30.19,63.28,37.76,97.99,3.39,15.55,8.9,30.81,14.97,45.57,8.9,21.62,26.51,34.84,48.23,41.12,15.25,4.41,31.46,5.97,47.37,7.43,6,.55,12.89-1.73,18.42-4.57,8.19-4.21,7.78-14.19-.21-18.72-3.84-2.18-8.31-3.25-12.08-5.51-9.3-5.59-18.94-10.86-27.35-17.62-9.64-7.75-13.26-19.06-12.06-31.23,1-10.14,2.58-20.37,5.27-30.17,5.06-18.41,11.14-36.55,16.75-54.81,2.61-8.47,5.26-16.94,7.63-25.48,1.99-7.15,2.7-14.78,5.53-21.54,14.78-35.35,36.03-66.54,62.41-94.23,38.69-40.61,81.13-77.07,125.05-111.83,17.93-14.19,36.49-27.59,54.33-41.9,44.8-35.92,91.5-69.05,140.69-98.73,22.27-13.44,42.77-29.23,58.92-50.13,5.59-7.23,12.31-13.61,18.73-20.17,9.31-9.51,18.86-18.79,28.19-28.28,1.83-1.86,3.12-4.23,5.52-7.56ZM1612.18,771.01c11.6-6.53,21.01-13.81,29.25-22.36,28.12-29.21,48.34-63.43,62.05-101.43,3.09-8.56,4.95-17.84,5.71-26.92,2.01-24.18-2.39-47.56-10.6-70.32-1.66-4.6-4.45-7.19-8.93-8.93-14.78-5.73-29.7-6.73-45.16-3.06-17.2,4.08-32.66,11.79-47.45,21.16-8.94,5.66-17.74,11.62-27.13,16.43-5.59,2.87-12.08,4.44-18.34,5.41-11.45,1.76-23.11,2.1-34.54,3.97-36.58,5.97-70.19,20.02-101.4,39.6-21.52,13.5-43.27,25.95-68.45,31.41-10.82,2.35-18.77,9.08-24.87,18.38-14.88,22.65-26.24,47.07-36.71,71.94-15.98,37.97-23.27,78.42-33.42,118.04-8.64,33.7-15.83,67.83-33.02,98.69-2.59,4.65-5.28,8.41-10.3,10.74-10.21,4.74-20.17,10.02-30.26,15.01-15.9,7.88-31.66,16.07-47.79,23.44-11.63,5.31-14.99,16.1-19.49,26.31-.49,1.11-.59,3.15.08,3.88,6.49,7.11,7.73,15.5,6.48,24.59-.04.29.18.67.36.94,6.52,9.78,5.85,20.66,5.17,31.67-.57,9.19,1.48,12.06,9.91,15.75,11.73,5.13,23.56,4.01,34.83-.85,13.76-5.94,27.16-12.73,40.62-19.35,21.09-10.36,35.69-27.21,46.12-47.77,11.12-21.9,21.48-44.15,29.43-67.48,13.48-39.56,31.02-77.08,54.15-112.15,13.85-21.01,24.91-43.86,37.31-65.84,12.73-22.58,25.86-44.95,38.26-67.7,9.66-17.71,23.84-23.01,43.47-20.69,17.51,2.06,35.46,2.39,53.07,1.26,41.62-2.67,80.93-15.55,119.67-30.1,11.17-4.2,21.97-9.37,33-13.96,3.27-1.36,6.8-3.59,10.2.46-.79,5.52-5.46,7.01-9.28,8.63-20.72,8.78-41.5,17.41-62.42,25.7-10.18,4.03-11.64,4.94-9.08,15.67,4.04,16.94,10.68,32.99,19.49,49.86ZM2078.42,533.11c1.28,4.72,1.9,7.64,2.87,10.44,3.03,8.7,6.05,17.42,9.35,26.02,4.14,10.78,5.53,21.88,3.61,33.2-3.15,18.54-.87,35.61,9.28,52.06,6.63,10.73,7.33,23.07,2.49,35.46-13.03,33.35-31.03,63.75-53.46,91.59-8.71,10.81-19.39,18.86-31.67,25.42-8.92,4.76-16.88,11.39-25.06,17.47-3.54,2.63-6.29,6.37-9.92,8.82-1.88,1.27-5.36,1.88-7.34,1.01-11.28-4.94-20.26-12.29-23.97-24.81-1.94-6.54-4.26-12.99-6.88-19.28-4.45-10.7-8.48-21.69-14.13-31.75-8.05-14.36-17.74-27.87-33.52-34.77-7.73-3.38-12.02-8.47-13.42-16.54-1.63-9.41-3.48-18.78-5.16-28.19-5.67-31.64-18.82-59.05-44.75-79.23-1.72-1.34-3.74-2.28-6.42-3.89-.42,7.2-1.25,13.29-.98,19.34.21,4.71,1.66,9.39,2.76,14.03,2.52,10.63,5.22,21.21,7.73,31.84,5.1,21.59,10.62,43.09,15.03,64.82,4.59,22.61,5.34,45.44-1.1,67.92-3.94,13.76-8.41,27.37-12.87,40.97-1.67,5.08-2.5,9.84.51,14.72,16.46,26.61,34.72,51.61,61.84,68.53,8.91,5.56,16.42,12.11,20.53,22.07,1.02,2.47,2.71,4.79,4.53,6.77,14.1,15.31,30.12,27.09,51.02,32.28,10.24,2.55,17.67.91,25.44-5.29,25.38-20.24,46.27-44.33,62.92-72.13,10.34-17.27,20.72-34.53,30.86-51.92,22.7-38.92,45.19-77.92,60.51-120.62,3.99-11.12,10.83-21.22,16.29-31.82,3.43-6.66,7.47-13.12,9.94-20.13,4.97-14.15,9.41-28.51,13.34-42.98,1.81-6.67,1.92-13.8,2.8-20.72-.67-.33-1.34-.66-2.02-.99-3.37,2.67-6.81,5.27-10.11,8.04-5.05,4.24-10.62,9.27-17.26,6.93-7.5-2.64-16.36-6.07-20.63-12.02-5.01-6.97-8.15-14.54-16.63-18.75-3.28-1.63-4.66-7.08-7.01-10.97-2.35.49-4.31.98-6.31,1.31-8.72,1.44-13.8-1.4-14.22-10.04-.65-13.06-7.98-23-13.71-33.69-2.66-4.97-6.56-9.39-15.12-10.55ZM1816.65,662.69c5.68-18.59,6.22-25.72,3.42-39.81-2.49-12.5-2.99-25.01-.76-37.61,7.14-40.33,46.81-56.57,76.96-47.65,7.39,2.18,15.44,2.23,23.21,2.94,8.57.78,14.33-3.05,17.33-11.2,2.71-7.35,5.55-14.66,8.55-21.89,3-7.24,3.58-14.2.59-21.79-2.67-6.79-1.82-8.92,4.63-12.55,4.57-2.58,6.23-6.16,6.38-10.75.11-3.34.18-6.99-1.03-9.99-2.96-7.4-.61-12.44,5.55-16.63,3.09-2.1,5.88-4.65,8.83-6.97,3.83-3.01,4.25-6.44,2.11-10.81-2.68-5.49-5.28-11.1-7.08-16.92-4.72-15.23-4.95-30.81-3.13-46.59,3.57-30.92-1.54-59.83-20.94-85.19-4.59-6-4.74-6.11-11.81-3.54-8.01,2.91-16.08,5.62-24.11,8.48-3.42,1.22-6.79,2.59-10.44,3.99.5,2.61.5,4.38,1.18,5.84,4.49,9.55,8.92,19.14,13.76,28.51,5.18,10.03,4.56,14.23-5.08,19.07-18.16,9.12-29.08,24.24-36.6,42.38-1.7,4.09-2.84,8.4-4.41,12.54-4.19,11.05-11.09,12.18-18.71,2.89-3.01-3.68-5.53-7.77-8.11-11.79-4.98-7.75-11.95-12.94-20.39-16.39-5.55-2.27-10.85-1.81-15.4,1.91-2.58,2.1-4.65,5-6.47,7.84-11.34,17.67-19.39,36.84-24.38,57.15-2.25,9.16-6.88,14.3-16.15,15.88-6.02,1.03-11.92,2.85-17.83,4.46-5.31,1.45-8.53,4.62-10.15,10.26-3.56,12.41-7.85,24.62-11.84,36.91-1.64,5.06-.94,9.07,3.9,12.4,32.88,22.61,54.04,54.4,69.83,90.24,7.29,16.54,14.06,33.31,21.21,49.91,1.83,4.26,4.2,8.29,7.38,14.49ZM1899.62,320.61c-.9-2.31-1.44-3.86-2.09-5.35-4.23-9.68-9.02-19.15-12.6-29.06-4.31-11.95-1.89-15.87,10.21-19.58,10.44-3.2,20.97-6.13,31.3-9.66,9.33-3.18,11.14-6.78,9.11-16.3-.56-2.65-1.34-5.33-2.5-7.77-7.04-14.72-16.5-27.73-30.2-36.76-13.59-8.95-28.1-14.85-45.33-11.31-7.45,1.53-15.84,1.35-23.24-.42-8.64-2.06-16.86-1.95-25.27-.46-9.74,1.73-19.5,3.48-29.08,5.89-27.65,6.97-48.59,23.96-66.2,45.58-2.77,3.4-5.11,7.33-6.85,11.37-15.09,35.16-18.37,70.01.33,105.46,12.66,24.01,20.32,49.9,21.33,77.39.08,2.21.89,4.39,1.47,7.11,6.68-1.44,12.59-3.01,18.6-3.91,5.89-.88,8.88-4.11,10.45-9.63,2.16-7.54,4.07-15.27,7.34-22.33,6.3-13.58,12.67-27.26,20.54-39.95,8.23-13.27,20.2-16.21,34.79-10.61,10.5,4.03,18.74,11.01,25.33,20.06,1.64,2.25,3.58,4.28,6.26,7.46,9.1-25.53,22.82-45.32,46.31-57.21ZM2143.81,591.04c3.53-3.16,6.97-5.3,9.11-8.35,4.86-6.92,9.4-14.12,13.48-21.53,5.37-9.75,4.23-12.14-6.51-17.13-5.1,7.98-10.46,15.75-15.15,23.9-3.9,6.77-6.24,14.02-.93,23.12ZM2148.83,542.76c-9.69-5.69-11.39-6.1-14.64-1.57-5.33,7.44-10.26,15.2-14.77,23.17-2.05,3.63-3.86,8.07.51,13.43,13.78-8.3,20.92-21.46,28.9-35.02ZM2160.75,607.96c.66-.04,1.57.18,1.95-.17,10.08-9.17,16.14-20.99,21.07-33.35,1.76-4.42-.23-8.53-5.39-10.01-15.4,19.46-21.36,34.31-17.64,43.52ZM2171.63,616.71c7.91.53,10.61-4.59,14.72-7.17,4.5-2.82,9.2-5.33,13.91-8.04-1.11-8.66-1.39-9.15-9.07-14.9-6.23,9.59-12.44,19.14-19.57,30.11Z"/>
      <path class="cls-2" d="M1724.11,1147.92c.5,9.39.7,17.52,1.44,25.61.77,8.48,2.05,16.92,3.12,25.37.85,6.69,4.35,10.62,10.86,13.33,48.24,20.06,97.37,37.57,147.3,52.9,19.89,6.11,39.86,11.92,59.77,17.97,4.18,1.27,8.23,2.98,12.85,4.68-1.8,7.46-3.59,14.27-5.09,21.14-7.87,35.97-14.76,72.14-31.57,105.54-13.05,25.91-29.71,48.9-50.23,69.28-3.48,3.45-7.04,4.57-11.86,4.35-36.57-1.71-72.51-8.32-108.46-14.43-21.94-3.73-42.68-11.78-62.14-22.87-24.4-13.9-49.81-25.47-77.08-32.57-13.52-3.52-27.11-6.81-40.71-10-41.42-9.72-70.67-34.28-87.98-72.88-5.56-12.41-9.56-25.51-14.25-38.31-.58-1.59-.75-3.4-1.61-4.8-.62-1.01-2.21-2.26-3.1-2.07-1.43.29-3.62,1.55-3.75,2.62-.46,3.64-.76,7.5-.07,11.07,4.08,21.06,13.05,40.15,24.27,58.25,20.07,32.38,50.1,50.27,86.28,59.16,12.17,2.99,24.33,5.98,37.54,9.23-1.72,4.68-2.84,8.17-4.27,11.53-11.04,25.92-26.45,49.21-43.05,71.82-19.38,26.4-37.84,53.5-57.81,79.44-15.8,20.52-33.31,39.71-49.99,59.56-3.74,4.45-7.42,5.29-13.37,3.4-51.88-16.48-99.18-41.82-143.58-72.94-1.12-.78-2.14-1.71-3.31-2.41-4.9-2.97-6.06-6.61-3.38-12.01,3.95-7.93,7.25-16.19,10.88-24.29,11.56-25.84,22.08-52.22,35.03-77.34,10.75-20.85,24.23-40.32,36.78-60.22,5.64-8.94,11.84-17.53,18-26.13,16.75-23.39,23.8-49.48,22.42-78.1-1.1-22.83-2.83-45.78,1.58-68.39,8.1-41.58,23.25-79.99,54.35-110.21,8.77-8.52,18.91-15.64,28.38-23.45,3.81-3.14,7.58-3.99,12.13-1.25,11.24,6.78,23.94,8.09,36.57,8.08,18.68-.03,36.42,5.19,54.5,8.46,14.75,2.67,29.31,6.53,44.1,8.85,16.4,2.58,31.79,7.56,46.27,15.59,9.8,5.44,19.36,11.9,32.26,7.45Z"/>
      <path class="cls-2" d="M1885.69,1489.02c8.1-9.87,15.02-17.8,21.39-26.15,23.97-31.41,39.97-66.56,48.28-105.15,3.95-18.33,7.35-36.77,10.96-55.17,1.9-9.69,4.09-11.12,13.14-6.44,27.26,14.09,54.53,27.95,77.98,48.51,13.26,11.62,29.01,20.37,43.31,30.85,21.9,16.06,40.58,34.97,55.11,58.37,12.46,20.06,12.15,40.11,4.34,60.68-11.09,29.2-29.32,53.88-52.11,75-9.45,8.76-20.48,15.8-30.54,23.93-16.71,13.5-33.16,27.32-49.83,40.87-29.63,24.09-58.91,48.63-89.2,71.87-16.46,12.63-34.68,22.96-52.13,34.31-40.63,26.43-73.75,60.42-101.01,100.31-9.22,13.48-15.24,28.08-16.22,44.63-1.73,29.25-5.77,58.31-5.38,87.75.41,31.46,12.5,58.31,29.56,83.58,5.72,8.47,12.53,16.22,18.13,24.76,6.43,9.79,3.96,15.93-7.46,18.61-4.07.96-8.9.57-12.96-.62-50.55-14.84-84.37-48.38-105.65-95.59-3.78-8.39-7.13-17.01-9.99-25.75-4.47-13.64-12.09-25.12-22.18-35.13-23.29-23.14-44.52-47.99-62.9-75.26-9.23-13.69-9.48-13.66,1.99-25.59,15-15.6,32.06-28.62,50.74-39.46,9.09-5.27,18.65-9.73,27.77-14.96,17.67-10.13,30.97-25.56,46.28-38.57,38.24-32.5,68.23-72.4,99.79-110.92,22.27-27.18,44.48-54.44,67.63-80.87,12.09-13.8,25.51-26.6,39.48-38.52,17.39-14.84,37.96-22.6,61.24-21.9,1.7.05,3.48.24,5.08-.17,3.95-1.01,5.14-5.36,1.92-7.77-2.36-1.76-5.4-2.99-8.32-3.57-15.84-3.17-31.58-4.29-47.62-.12-15.87,4.12-32.26,3.9-50.61,3.69Z"/>
      <path class="cls-2" d="M1579.09,713.65c2.63,22.29,11.97,41.68,21.07,61.1,5.07,10.82,10.53,12.69,20.19,5.65,12.08-8.8,24.3-17.86,34.5-28.66,25.35-26.85,43.23-58.61,57.09-92.73,10.08-24.82,11.7-50.59,6.68-76.42-2.97-15.27-9.03-29.96-14.08-44.78-.73-2.14-3.29-4.45-5.49-5.16-6.05-1.95-12.35-3.15-18.58-4.52-4.65-1.02-9.34-1.82-14.08-2.74,6.58-8.18,23.18-15.64,37.15-16.89,5.42,4.53,10.62,8.88,15.82,13.23,25.41,21.27,43.04,48.26,56.55,78.08,7.32,16.15,13.64,32.75,20.61,49.06,2.54,5.95,5.24,11.91,8.63,17.4,6.63,10.73,13.28,11.64,23.5,3.9.54.32,1.46.55,1.55.97,5,21.93,10.86,43.72,14.63,65.87,4.19,24.63,1.03,49.15-7.66,72.53-9.62,25.88-20.68,51.22-30.45,77.05-12.42,32.84-24.43,65.85-36.14,98.96-8.53,24.1-16.81,48.32-24.22,72.78-4.53,14.95-7.86,30.25-5.9,46.33,1.36,11.19-4.67,20.83-11.41,28.79-4.39,5.18-12.48,4.63-19.21,2.73-3.55-1-6.92-2.88-10.16-4.73-16.5-9.4-34.06-15.1-52.92-17.99-20.53-3.15-40.75-8.29-61.2-12.03-11.7-2.13-23.56-3.97-35.41-4.55-17.76-.86-34.59-3.71-48.86-15.28-2.64-2.14-5.46-4.14-7.79-6.59-5.65-5.93-6.5-9.51-2.5-16.51,16.96-29.69,25.53-62.57,34.53-94.98,5.32-19.14,6.06-39.75,7.29-59.79,1.5-24.51,1.79-49.1,6.29-73.33,3.48-18.77,7.44-37.44,10.84-56.22,1.33-7.36,1.83-14.87,2.51-22.33.4-4.41.23-8.87.61-13.28,1.88-21.57,2.28-21.92,26.02-24.94Z"/>
      <path class="cls-2" d="M1438.29,1668c-2.4,3.33-3.69,5.71-5.52,7.56-9.33,9.49-18.88,18.77-28.19,28.28-6.42,6.56-13.14,12.94-18.73,20.17-16.15,20.9-36.65,36.69-58.92,50.13-49.19,29.69-95.89,62.81-140.69,98.73-17.84,14.3-36.4,27.71-54.33,41.9-43.93,34.76-86.36,71.22-125.05,111.83-26.37,27.69-47.63,58.88-62.41,94.23-2.83,6.77-3.54,14.4-5.53,21.54-2.37,8.54-5.03,17-7.63,25.48-5.62,18.26-11.69,36.4-16.75,54.81-2.7,9.81-4.27,20.03-5.27,30.17-1.2,12.17,2.42,23.48,12.06,31.23,8.41,6.76,18.05,12.02,27.35,17.62,3.77,2.27,8.25,3.34,12.08,5.51,7.99,4.53,8.4,14.51.21,18.72-5.53,2.84-12.42,5.12-18.42,4.57-15.91-1.46-32.11-3.02-47.37-7.43-21.72-6.27-39.33-19.49-48.23-41.12-6.07-14.76-11.58-30.02-14.97-45.57-7.57-34.71-20.11-67.26-37.76-97.99-7.98-13.89-14.94-28.3-19.49-43.89,16.05-15.08,30.53-31.59,51.99-39.15,5.05-1.78,9.75-4.97,14.12-8.18,35.8-26.32,69.96-54.37,99.82-87.64,21.63-24.1,45.26-46.41,68.26-69.25,6.2-6.15,11.14-12.82,14.21-20.96,20.19-53.48,54.27-96.66,98.37-132.36,27.08-21.92,54.62-43.19,84.81-60.78,8.77-5.11,16.08-12.61,26.43-15.28,2.13-.55,3.48-4.66,4.89-7.29,2.4-4.47,3.99-9.5,6.94-13.54,12.84-17.59,26.05-34.91,39.85-53.29,45.63,34.71,96.56,62.22,153.88,81.23Z"/>
      <path class="cls-2" d="M1612.18,771.01c-8.8-16.87-15.45-32.92-19.49-49.86-2.56-10.73-1.09-11.64,9.08-15.67,20.92-8.29,41.7-16.92,62.42-25.7,3.81-1.62,8.49-3.11,9.28-8.63-3.39-4.05-6.93-1.82-10.2-.46-11.03,4.59-21.83,9.76-33,13.96-38.74,14.55-78.04,27.43-119.67,30.1-17.61,1.13-35.56.8-53.07-1.26-19.63-2.31-33.81,2.98-43.47,20.69-12.41,22.76-25.53,45.12-38.26,67.7-12.4,21.98-23.45,44.83-37.31,65.84-23.13,35.08-40.67,72.6-54.15,112.15-7.96,23.34-18.32,45.58-29.43,67.48-10.43,20.56-25.03,37.41-46.12,47.77-13.46,6.61-26.86,13.41-40.62,19.35-11.27,4.87-23.1,5.98-34.83.85-8.43-3.69-10.48-6.56-9.91-15.75.68-11,1.35-21.89-5.17-31.67-.18-.28-.4-.65-.36-.94,1.25-9.1.01-17.48-6.48-24.59-.67-.74-.57-2.78-.08-3.88,4.5-10.21,7.86-21,19.49-26.31,16.13-7.36,31.89-15.56,47.79-23.44,10.09-5,20.05-10.28,30.26-15.01,5.01-2.33,7.71-6.09,10.3-10.74,17.19-30.86,24.38-64.99,33.02-98.69,10.16-39.62,17.44-80.07,33.42-118.04,10.47-24.88,21.83-49.29,36.71-71.94,6.11-9.3,14.05-16.03,24.87-18.38,25.17-5.46,46.93-17.91,68.45-31.41,31.21-19.58,64.83-33.62,101.4-39.6,11.42-1.86,23.09-2.21,34.54-3.97,6.27-.96,12.76-2.54,18.34-5.41,9.38-4.81,18.19-10.78,27.13-16.43,14.8-9.37,30.25-17.09,47.45-21.16,15.46-3.66,30.38-2.67,45.16,3.06,4.49,1.74,7.27,4.33,8.93,8.93,8.2,22.76,12.6,46.15,10.6,70.32-.75,9.09-2.62,18.36-5.71,26.92-13.71,38.01-33.93,72.22-62.05,101.43-8.24,8.56-17.65,15.83-29.25,22.36Z"/>
      <path class="cls-2" d="M2078.42,533.11c8.56,1.16,12.46,5.57,15.12,10.55,5.73,10.7,13.06,20.64,13.71,33.69.43,8.63,5.5,11.48,14.22,10.04,1.99-.33,3.96-.82,6.31-1.31,2.35,3.89,3.73,9.35,7.01,10.97,8.47,4.21,11.62,11.78,16.63,18.75,4.27,5.95,13.13,9.38,20.63,12.02,6.64,2.33,12.21-2.69,17.26-6.93,3.3-2.77,6.73-5.36,10.11-8.04.67.33,1.34.66,2.02.99-.88,6.92-.99,14.05-2.8,20.72-3.93,14.47-8.37,28.83-13.34,42.98-2.46,7.01-6.51,13.48-9.94,20.13-5.46,10.6-12.31,20.7-16.29,31.82-15.31,42.7-37.8,81.69-60.51,120.62-10.14,17.39-20.52,34.65-30.86,51.92-16.65,27.81-37.54,51.9-62.92,72.13-7.77,6.2-15.2,7.83-25.44,5.29-20.91-5.2-36.92-16.98-51.02-32.28-1.82-1.98-3.51-4.3-4.53-6.77-4.11-9.97-11.63-16.52-20.53-22.07-27.12-16.92-45.39-41.92-61.84-68.53-3.01-4.87-2.18-9.64-.51-14.72,4.46-13.6,8.93-27.21,12.87-40.97,6.44-22.49,5.69-45.32,1.1-67.92-4.41-21.73-9.93-43.23-15.03-64.82-2.51-10.63-5.21-21.21-7.73-31.84-1.1-4.64-2.55-9.32-2.76-14.03-.27-6.05.56-12.14.98-19.34,2.68,1.61,4.7,2.55,6.42,3.89,25.93,20.17,39.08,47.59,44.75,79.23,1.69,9.4,3.53,18.78,5.16,28.19,1.4,8.07,5.69,13.16,13.42,16.54,15.77,6.9,25.46,20.41,33.52,34.77,5.64,10.06,9.68,21.05,14.13,31.75,2.62,6.29,4.95,12.74,6.88,19.28,3.71,12.51,12.68,19.87,23.97,24.81,1.98.87,5.46.26,7.34-1.01,3.63-2.46,6.38-6.19,9.92-8.82,8.18-6.08,16.14-12.7,25.06-17.47,12.28-6.56,22.96-14.61,31.67-25.42,22.43-27.85,40.42-58.24,53.46-91.59,4.84-12.39,4.14-24.73-2.49-35.46-10.16-16.45-12.43-33.53-9.28-52.06,1.92-11.31.53-22.41-3.61-33.2-3.3-8.6-6.32-17.32-9.35-26.02-.97-2.8-1.59-5.72-2.87-10.44Z"/>
      <path class="cls-2" d="M1816.65,662.69c-3.18-6.19-5.54-10.23-7.38-14.49-7.15-16.6-13.92-33.37-21.21-49.91-15.8-35.84-36.95-67.63-69.83-90.24-4.84-3.33-5.54-7.34-3.9-12.4,3.99-12.29,8.28-24.5,11.84-36.91,1.62-5.64,4.83-8.82,10.15-10.26,5.91-1.61,11.81-3.44,17.83-4.46,9.27-1.58,13.9-6.72,16.15-15.88,4.99-20.31,13.04-39.48,24.38-57.15,1.82-2.84,3.89-5.73,6.47-7.84,4.56-3.72,9.85-4.17,15.4-1.91,8.45,3.45,15.41,8.63,20.39,16.39,2.58,4.01,5.1,8.11,8.11,11.79,7.62,9.29,14.52,8.16,18.71-2.89,1.57-4.14,2.72-8.45,4.41-12.54,7.53-18.14,18.44-33.26,36.6-42.38,9.65-4.84,10.26-9.04,5.08-19.07-4.84-9.37-9.28-18.96-13.76-28.51-.68-1.45-.68-3.23-1.18-5.84,3.65-1.4,7.02-2.77,10.44-3.99,8.02-2.86,16.1-5.57,24.11-8.48,7.08-2.57,7.23-2.46,11.81,3.54,19.4,25.36,24.5,54.27,20.94,85.19-1.82,15.79-1.59,31.36,3.13,46.59,1.8,5.82,4.4,11.43,7.08,16.92,2.14,4.38,1.72,7.81-2.11,10.81-2.95,2.32-5.74,4.87-8.83,6.97-6.16,4.19-8.51,9.23-5.55,16.63,1.2,3,1.14,6.65,1.03,9.99-.15,4.59-1.81,8.17-6.38,10.75-6.45,3.64-7.3,5.76-4.63,12.55,2.99,7.59,2.41,14.55-.59,21.79-3,7.24-5.84,14.54-8.55,21.89-3.01,8.15-8.77,11.99-17.33,11.2-7.78-.71-15.83-.76-23.21-2.94-30.15-8.92-69.82,7.33-76.96,47.65-2.23,12.6-1.73,25.11.76,37.61,2.8,14.09,2.26,21.22-3.42,39.81Z"/>
      <path class="cls-2" d="M1899.62,320.61c-23.49,11.89-37.22,31.68-46.31,57.21-2.69-3.18-4.62-5.21-6.26-7.46-6.59-9.04-14.83-16.03-25.33-20.06-14.59-5.6-26.56-2.67-34.79,10.61-7.87,12.69-14.24,26.37-20.54,39.95-3.28,7.06-5.19,14.8-7.34,22.33-1.58,5.51-4.56,8.75-10.45,9.63-6.01.9-11.92,2.48-18.6,3.91-.58-2.72-1.39-4.9-1.47-7.11-1.01-27.49-8.67-53.37-21.33-77.39-18.69-35.46-15.42-70.3-.33-105.46,1.73-4.03,4.08-7.97,6.85-11.37,17.61-21.61,38.55-38.6,66.2-45.58,9.58-2.42,19.34-4.17,29.08-5.89,8.4-1.49,16.63-1.6,25.27.46,7.4,1.77,15.78,1.95,23.24.42,17.23-3.54,31.74,2.36,45.33,11.31,13.7,9.03,23.16,22.03,30.2,36.76,1.16,2.43,1.94,5.12,2.5,7.77,2.03,9.52.22,13.12-9.11,16.3-10.33,3.52-20.86,6.45-31.3,9.66-12.1,3.71-14.52,7.63-10.21,19.58,3.58,9.91,8.37,19.39,12.6,29.06.65,1.5,1.19,3.04,2.09,5.35Z"/>
    </g>
  </g>
  <g id="Layer_17" data-name="Layer 17">
    <g>
      <path class="cls-1" d="M664.9,450.93c3.28-5.86,5.74-9.8,7.77-13.96,10.27-21.01,23.01-40.34,39.85-56.62,18.97-18.36,37.7-37.09,57.92-54,23.97-20.04,51.93-32.59,83.17-37.12,43.8-6.36,82.51,4.76,115.01,34.85,41.53,38.45,64.89,87.34,75.55,141.93,16.45,84.25,4.33,165.32-32.77,242.57-22.59,47.03-53.34,88.68-87.63,127.7-44.8,50.98-95.25,95.54-154.57,129-21.99,12.4-45.53,22.13-68.66,32.39-25.15,11.16-50.39,8.47-75.56-.92-48.51-18.1-92.19-44.48-132.17-77.08-68.41-55.79-126.17-120.64-167.73-199.08-25.88-48.84-39.77-100.86-44.08-156.04-3.9-49.88,2.34-97.91,19.6-144.58,11.33-30.62,28.17-58.01,49.82-82.64,47.05-53.52,116.7-60.32,175.55-31.16,16.26,8.06,31.86,18.55,45.52,30.5,20.25,17.71,39.42,36.89,57.25,57.03,10.94,12.35,18.6,27.61,27.57,41.67,2.8,4.39,5.06,9.13,8.58,15.56ZM299.22,535.96c-.34,75.61,20.7,144.32,60.9,207.15,47.63,74.45,107.23,137.62,180.35,187.61,33.99,23.24,70.05,42.42,110.01,53.44,11.68,3.22,23.51,4.12,34.84-1.07,24.97-11.44,50.76-21.51,74.5-35.13,82.91-47.58,148.51-114.01,202.05-192.47,53.2-77.94,78.08-163.85,67.97-258.62-5.37-50.39-22.03-96.63-53.38-136.81-21.83-27.97-48.31-48.88-85.34-53.32-34.23-4.11-66,3.23-93.88,22.3-48.99,33.51-91.69,73.42-117.74,128.34-3.12,6.58-5.14,15.71-14.1,16.14-10.36.49-11.86-9.8-15.15-16.63-26.66-55.3-69.92-95.25-120.02-128.26-32.11-21.15-68.11-25.89-105.57-17.19-33.69,7.83-56.55,30.79-75.45,57.56-35.35,50.08-50.63,106.58-49.98,166.95Z"/>
      <path class="cls-3" d="M299.22,535.96c-.65-60.37,14.63-116.87,49.98-166.95,18.91-26.78,41.76-49.74,75.45-57.56,37.47-8.7,73.46-3.97,105.57,17.19,50.1,33.01,93.36,72.95,120.02,128.26,3.29,6.82,4.79,17.12,15.15,16.63,8.96-.42,10.98-9.56,14.1-16.14,26.06-54.92,68.75-94.83,117.74-128.34,27.88-19.07,59.65-26.41,93.88-22.3,37.02,4.45,63.51,25.35,85.34,53.32,31.35,40.18,48.01,86.42,53.38,136.81,10.11,94.77-14.77,180.68-67.97,258.62-53.54,78.45-119.14,144.89-202.05,192.47-23.74,13.62-49.53,23.69-74.5,35.13-11.33,5.19-23.16,4.29-34.84,1.07-39.96-11.01-76.03-30.2-110.01-53.44-73.11-49.99-132.72-113.16-180.35-187.61-40.2-62.83-61.24-131.53-60.9-207.15Z"/>
    </g>
    <path class="cls-1" d="M972.22,711.4l-23.85-75.53c-2.08-6.6-8.11-10.68-15.03-10.2-6.9.5-12.29,5.43-13.4,12.26l-24.24,148.89-42.31-418.84c-.77-7.66-6.88-13.17-14.56-13.17h-.16c-7.75.08-13.83,5.74-14.46,13.46l-27.37,337.58h-65.5c-6.17,0-11.72,3.91-13.79,9.72l-16.21,45.38-20.57-92.55c-1.51-6.78-7.37-11.47-14.29-11.47-.07,0-.14,0-.2,0-7.01.09-12.84,4.97-14.18,11.85l-21.83,112.26-33.3-357.94c-.71-7.64-6.8-13.23-14.48-13.29h-.12c-7.62,0-13.74,5.48-14.55,13.08l-31.73,294.68-52.44,4.37-8.84-29.48c-1.88-6.25-7.51-10.44-14.03-10.44h-.06c-6.54.03-12.17,4.26-14,10.55l-20.1,68.93-14.42-173.08c-.62-7.45-6.49-13.09-13.96-13.42-7.46-.3-13.81,4.79-15.07,12.16l-24.15,140.9h-151.51c-.72,5.77-1.03,11.57-1.01,17.39h154.83c7.16,0,13.23-5.12,14.44-12.17l20.91-121.95,13.86,166.33c.59,7.15,5.99,12.64,13.13,13.36,7.13.71,13.52-3.59,15.53-10.47l21.64-74.21,6.82,22.74c1.98,6.59,8.38,10.93,15.25,10.39l56.9-4.74c6.98-.58,12.59-6.06,13.34-13.03l29.06-269.8,32.54,349.78c.68,7.33,6.51,12.91,13.86,13.27,7.36.34,13.7-4.61,15.11-11.83l22.96-118.1,19.77,88.99c1.43,6.43,6.81,11.03,13.39,11.44,6.57.4,12.49-3.49,14.7-9.69l18.75-52.5h66.1c7.58,0,13.99-5.91,14.6-13.46l25.15-310.13,41.37,409.58c.75,7.41,6.69,12.94,14.13,13.17.16,0,.31,0,.47,0,7.23,0,13.26-5.1,14.43-12.3l25.73-158.04,20.99,66.47c1.93,6.12,7.55,10.24,13.97,10.24h151.06v-17.39h-149.06Z"/>
  </g>
</svg>