<?xml version="1.0" encoding="UTF-8"?>
<svg xmlns="http://www.w3.org/2000/svg" viewBox="0 0 2500 2500">
  <defs>
    <style>
      .cls-1, .cls-2 {
        fill: #000;
      }

      .cls-1, .cls-3, .cls-4 {
        stroke: #000;
        stroke-miterlimit: 10;
      }

      .cls-2, .cls-5, .cls-6 {
        stroke-width: 0px;
      }

      .cls-3, .cls-5 {
        fill: none;
      }

      .cls-4 {
        fill: #de2800;
      }

      .cls-6 {
        fill: #fff;
      }
    </style>
  </defs>
  <g id="Layer_9" data-name="Layer 9">
    <rect class="cls-6" x="-11.4" y="-13.78" width="2528.78" height="2532.29"/>
  </g>
  <g id="Push_Pull" data-name="Push/Pull">
    <g>
      <path class="cls-4" d="M1347.52,766.87c2.96-10.63-1.69-19.24-8.48-27.39-8.43-10.14-12.63-21.93-12.99-35.21-.12-4.31-1.2-8.71-2.53-12.84-4.79-14.92-4.7-30.19-3.53-45.5.93-12.17,4.64-23.37,11.74-33.62,12.71-18.36,25.93-35.83,45.05-48.51,20.23-13.41,42.57-20.4,65.79-25.32,10.5-2.22,20.11-5.19,28.58-12.35,5.44-4.6,12.64-7.08,18.87-10.8,18.24-10.91,45.3,11.78,47.36,26.51.83,5.93-.03,11.37-3.51,16.61-12.46,18.78-27.84,34.65-46.37,47.4-10.2,7.02-20.5,14-31.27,20.09-7.72,4.37-10.61,10.27-10.35,18.72.37,12.02.83,24.08.37,36.09-.92,23.89,5.14,46.03,15.04,67.47,1.94,4.21,2.8,9.01,3.57,13.64.65,3.93.62,8,.63,12,.05,32.43-.23,64.87.11,97.3.44,41.85-10.94,80.58-29.88,117.43-4.34,8.44-7.86,8.67-12.83.53-23.38-38.33-44.45-77.81-58.59-120.63-7.94-24.04-9.72-49.25-13.7-74.03-1.44-8.97-2.04-18.08-3.08-27.58Z"/>
      <path class="cls-4" d="M1806.66,546.68c3.86-4.61,6.7-8.06,9.6-11.46,5.42-6.35,10.71-12.83,16.36-18.97,4.46-4.84,10.32-5.97,15.94-2.73,10.68,6.16,21.46,12.34,31.28,19.72,6.02,4.52,12.23,7.35,19.24,9.58,19.03,6.07,38.26,11.75,56.7,19.32,34.53,14.18,54.51,40.72,63.2,76.88,4.46,18.57-.22,36.14-3.11,53.84-3.04,18.66-8.38,36.91-17.64,53.73-1.17,2.13-2.18,4.8-2.01,7.13,1.67,22.8-4.01,44.84-6.49,67.21-4.75,42.77-20.65,81.64-40.93,119-9.02,16.62-18.26,33.14-27.78,49.48-4.41,7.58-8.26,7.38-12.27-.18-22.73-42.84-32.64-88.38-29.94-136.93,1.19-21.41.79-42.96.09-64.41-.56-16.93.18-33.09,7.59-48.95,4.69-10.05,5.74-21.73,9.54-32.28,6.76-18.77,3.74-38.05,3.94-57.14.15-14.17-6.55-25.06-18.8-32.37-6.88-4.11-13.75-8.23-20.62-12.34-21.79-13.03-38.05-31.44-51.25-52.81-1.13-1.83-1.93-3.86-2.65-5.33Z"/>
    </g>
    <g>
      <path class="cls-4" d="M510.48,758.1c-2.76-3.37-5.99-5.67-6.88-8.68-6.84-23.02-13.52-46.09-19.62-69.31-2.9-11.06-2.36-22.46.81-33.52,3.31-11.55,6.3-23.25,10.66-34.41,2.86-7.3,6.81-14.79,12.16-20.39,21.11-22.11,44.75-40.83,75.22-48.48,9.83-2.47,19.86-4.42,29.92-5.58,6.74-.77,12.82-2.14,18.18-6.4,3.42-2.72,7.26-4.93,10.58-7.75,19.95-16.94,43.86-23.84,69.07-27.46,7.4-1.06,14.32-.19,20.85,4.18,8.16,5.47,16.8,10.23,25.17,15.41,20.71,12.81,34.79,31.45,47.58,51.77,5.12,8.13,5.35,18.34,12.56,25.19.94.89,1.29,2.61,1.53,4.01,3.19,19.02,7.17,37.96,9.18,57.1,1.78,16.97,1.85,34.17,1.74,51.27-.08,13.32-5,25.67-10.85,37.5-1.25,2.53-3.15,5.06-5.4,6.71-6.07,4.45-12.53,8.35-18.74,12.61-9.46,6.48-20.32,8.17-31.26,8.08-11.25-.09-22.52-1.37-33.72-2.71-27.15-3.25-48.94-17.95-69.94-33.89-11.02-8.37-21.32-17.68-32.02-26.48-6.13-5.04-6.85-11.78-5.96-18.86,1.22-9.75,2.84-19.45,4.26-29.18.25-1.69.33-3.4.73-7.52-10.53,17.96-7.02,36.68-11.9,53.9,6.99,4.84,6.92,5.2,6.57,15.26-.82,23.31-1.61,46.62-1.99,69.94-.33,20.26,5.03,39.66,9.93,59.09,6.23,24.71,12.33,49.46,18.74,74.13,3.2,12.32,6.62,24.61,10.55,36.71,4.76,14.64,8.12,29.49,8.97,44.86.71,12.85-2.68,16.58-15.37,16.36-30.71-.52-57.09-10.49-75.4-36.43-8.16-11.56-16.78-23.17-22.59-35.94-16.77-36.82-31.77-74.37-36.04-115.2-2.23-21.35-4.92-42.65-7.22-63.99-.46-4.3-.07-8.69-.07-11.9ZM550.75,727.28c10.61-3.48,21.48-6.73,31.07-16.06-14.34,0-21.15,11.02-31.07,16.06ZM542.89,733.51c-.45-.81-.9-1.63-1.35-2.44-3.12,1.74-6.24,3.47-9.36,5.21.43.78.86,1.56,1.29,2.33,3.14-1.7,6.28-3.4,9.42-5.11ZM662.21,574.47c-.68-.69-1.35-1.39-2.03-2.08-1.17,1.44-2.35,2.87-3.52,4.31.47.44.94.88,1.41,1.32l4.14-3.55Z"/>
      <path class="cls-4" d="M1052.99,705.48c-1.02-5.37-2.24-9.17-2.39-13-.54-14.34-3.57-28.16-8-41.72-.74-2.27-2.08-4.34-4.63-6.06,1.54,8.85,3.13,17.69,4.61,26.55.54,3.23.79,6.5,1.25,9.75,1.55,11.02-1.47,19.35-11.26,26.2-16.38,11.48-31.45,24.82-47.73,36.46-18.18,13-38.9,19.71-61.3,20.48-11.59.4-23.3.92-34.77-.31-6.55-.7-13.09-4.16-18.98-7.53-5.87-3.36-10.2-8.9-17-11.44-3.09-1.15-5.27-5.82-7.02-9.31-7.47-14.95-10.35-31.01-10.52-47.61-.26-25.65,3.33-50.85,8.95-75.81.32-1.42,1.04-2.85.98-4.25-.56-13.21,5.8-23.35,13.56-33.33,6.89-8.87,12.38-18.8,18.8-28.05,9.29-13.39,21.37-23.83,35.28-32.22,7.8-4.7,15.78-9.14,23.35-14.2,6.55-4.38,13.58-5.15,20.91-3.91,8.6,1.46,17.12,3.36,25.64,5.25,12.64,2.81,23.96,8.49,34.39,16.08,6.19,4.51,12.59,8.74,18.63,13.42,5.72,4.43,11.97,6.21,19.17,6.73,25.96,1.88,49.73,10.44,71.29,25.02,3.62,2.45,6.8,5.55,10.49,7.88,29.68,18.77,40.08,48.82,46.83,80.72,2.9,13.73,1.11,27.66-2.7,41.13-5.45,19.26-11.09,38.46-17.11,57.54-.81,2.56-4.33,4.25-6.42,6.19-.67,12.88-.42,26.7-2.29,40.24-3.49,25.23-6.17,50.87-12.98,75.27-7.6,27.22-19.11,53.4-29.55,79.77-6.24,15.76-16.88,28.95-27.91,41.61-10.8,12.39-24.39,20.63-40.51,24.34-9.87,2.27-19.53,5.31-30.01,4.48-10.67-.84-14.83-4.17-13.78-14.87,1.14-11.56,1.8-23.53,5.43-34.4,11.79-35.33,18.74-71.86,28.4-107.71,5.97-22.16,13-44.18,13.85-67.28.64-17.45-.29-34.95-.55-52.43-.13-9.11-.08-18.24-.58-27.34-.33-5.92.14-10.97,6.18-12.39ZM1085.57,711.34c11.54,9.63,16.57,12.06,25,12.15-7.37-5.75-13.51-12.65-25-12.15ZM1133.81,738.55c.45-.85.89-1.71,1.34-2.56-5.08-2.62-10.15-5.24-15.23-7.86-.39.75-.79,1.51-1.18,2.26,5.02,2.72,10.05,5.44,15.07,8.16Z"/>
      <path class="cls-4" d="M550.75,727.28c9.93-5.05,16.73-16.06,31.07-16.06-9.6,9.33-20.46,12.59-31.07,16.06Z"/>
      <path class="cls-4" d="M542.89,733.51c-3.14,1.7-6.28,3.4-9.42,5.11-.43-.78-.86-1.56-1.29-2.33,3.12-1.74,6.24-3.47,9.36-5.21.45.81.9,1.63,1.35,2.44Z"/>
      <path class="cls-4" d="M662.21,574.47l-4.14,3.55c-.47-.44-.94-.88-1.41-1.32,1.17-1.44,2.35-2.87,3.52-4.31.68.69,1.35,1.39,2.03,2.08Z"/>
      <path class="cls-4" d="M1085.57,711.34c11.49-.5,17.63,6.4,25,12.15-8.43-.09-13.46-2.51-25-12.15Z"/>
      <path class="cls-4" d="M1133.81,738.55c-5.02-2.72-10.05-5.44-15.07-8.16.39-.75.79-1.51,1.18-2.26,5.08,2.62,10.15,5.24,15.23,7.86-.45.85-.89,1.71-1.34,2.56Z"/>
    </g>
  </g>
  <g id="Both">
    <g>
      <path class="cls-2" d="M956.22,276.62c-.48-8.49-.65-16.41-1.42-24.27-5.71-58.92-48.31-104.68-106.54-112.86-53.36-7.49-104.02,18.94-128.8,63.35-13.06,23.4-19.34,48.38-17.02,75.25.32,3.72-.44,6.56-4.13,7.84-10.71,3.72-13.68,12.71-14.2,22.41-1.33,24.79,2.97,48.45,16.29,69.92.38.62.72,1.27,1.18,1.83,11.66,14.22,20.32,29.81,23.57,48.23.64,3.62,3.24,7.37,5.95,10.02,3.85,3.77,5.07,7.59,3.81,12.69-2.17,8.79-3.94,17.68-6.21,26.45-1.19,4.58-4.23,7.14-9.39,7.55-29.93,2.33-57.25,13.31-82.85,27.92-16.74,9.55-33.05,18.04-52.49,21.48-24.64,4.36-46.73,15.78-65.12,33.2-25.9,24.52-43.67,53.66-45.38,90.05-.6,12.77,1.8,26.19,5.47,38.53,6.4,21.51,14.95,42.37,22.32,63.6,1.27,3.66,1.27,7.78,1.66,11.71,2.41,24.16,3.88,48.45,7.39,72.44,3.64,24.86,11.58,48.78,22.06,71.6,13.63,29.66,27.59,59.22,47.47,85.49,2.05,2.71,3.45,6.48,3.72,9.87,3.07,37.74,18.25,70.69,39.82,101.05,9.24,13.01,19.1,25.59,28.93,38.17,4.7,6.01,5.63,11.92,2.92,19.19-4.8,12.88-8.47,26.19-13.29,39.07-16.26,43.41-25.29,88.53-32.5,134.12-4.56,28.82-5.58,57.88-3.66,86.85,2.64,39.91,9.59,79.22,20.74,117.71,14.07,48.56,31.83,95.71,54.12,141.12,2.55,5.2,4.82,10.57,6.83,16.01,3.16,8.53,4.48,16.69,1.9,26.3-3.25,12.12-3.08,25.13-4.72,37.72-4.27,32.75-8.67,65.45-7.67,98.63.83,27.31,4.67,54.18,9.89,80.92,9.52,48.79,19.65,97.49,28.05,146.48,3.35,19.52,3.27,39.71,3.66,59.62.13,6.58-2.58,13.46-5.01,19.82-12.94,33.83-28.69,66.23-56.46,90.57-13.28,11.64-28.52,21.06-43.06,31.22-6.52,4.56-13.94,7.93-20.15,12.85-8.92,7.07-9.48,15.35-1.31,23.26,5.65,5.47,12.34,10.19,19.27,13.96,17.13,9.34,35.83,14.06,55.18,15.38,24.69,1.69,49.42,1.12,73.68-4.2,11.63-2.55,22.85-6.94,34.26-10.47,16.27-5.03,32.49-10.23,48.86-14.89,3.28-.93,7.36-.54,10.69.48,17.67,5.41,35.38,10.74,52.75,17.01,17.59,6.35,35.68,9.9,54.14,11.47,32.8,2.79,65.41,2.61,96.19-11.43,7.55-3.44,14.91-7.62,21.63-12.46,14.38-10.35,13.63-22.21-1.28-31.75-16.48-10.55-33.2-20.8-49.16-32.1-16.2-11.46-29.07-26.69-38.77-43.7-10.38-18.19-17.94-37.97-27.26-56.79-8.05-16.26-6.31-33.22-4.51-50.13,6.46-60.74,20.49-120.13,32.53-179.88,6.25-31.04,10.39-62.41,9.14-94.04-.95-23.87-4.39-47.65-6.96-71.45-1.36-12.62-3.39-25.17-4.82-37.79-.81-7.16-.07-13.74,3.03-20.94,16.78-38.96,33.26-78.09,48.51-117.67,19.13-49.66,31.11-101.23,36.86-154.18,4.71-43.3,1.42-86.23-6.5-128.9-8.23-44.33-19-87.95-36.43-129.73-3.19-7.64-4.54-16.02-7-23.98-1.37-4.44.44-7.72,2.95-10.99,8.61-11.23,17.16-22.5,25.78-33.72,18.8-24.47,32.95-51.27,40.2-81.4,1.77-7.36,2.81-14.98,3.37-22.53.48-6.44,2.62-11.6,6.55-16.79,6.32-8.35,11.95-17.28,17.23-26.34,21.67-37.18,39.37-76,48.78-118.28,6.02-27.05,7.77-54.53,9.65-82.05.38-5.62,2.09-11.25,3.82-16.67,7.48-23.49,16.45-46.6,22.52-70.44,7.66-30.1.05-58.34-16.09-84.31-25.25-40.62-62.48-62.66-109.31-69.1-5.62-.77-10.3-2.33-14.93-5.53-27.51-19-57.72-31.84-90.36-38.97-3.17-.69-6.45-1-9.7-1.22-9.4-.66-10.41-1.18-13.03-9.88-1.67-5.55-2.62-11.3-4.06-16.92-1.79-6.98-1.36-12.93,3.29-19.38,3.59-4.99,5.07-12,5.95-18.32,1.56-11.13,5.47-20.29,13.3-28.89,17.32-19.02,24.02-42.81,25.68-67.95.59-8.94,0-18.22-1.75-27.01-2.72-13.72-6.11-16.39-20.25-20.1ZM958.54,292.02c5.41,4.66,5.94,9.82,6.11,14.83,1.02,30.46-5.57,58.4-27.52,81.08-5.21,5.39-8.48,11.73-9.63,19.13-.78,5.02-1.77,10.02-2.19,15.07-.71,8.57-4.18,14.8-11.99,19.25-16.39,9.34-32.62,19.02-48.49,29.21-14.91,9.58-30.77,13.51-48.47,12.83-12.67-.48-23.3-3.96-32.52-12.66-12.13-11.45-24.39-22.79-37.02-33.68-4.91-4.24-8.38-8.88-9.98-15.08-1.18-4.57-2.1-9.26-3.87-13.6-2.85-6.96-6.02-13.83-9.61-20.44-2.41-4.43-5.74-8.37-8.71-12.49-14.24-19.82-18.42-42.3-17.19-66.09.18-3.55,2.18-7.01,3.83-11.98,5.25,3.91,8.71,7.1,12.73,9.21,2.09,1.1,5.52,1,7.68,0,.99-.46.98-4.59.34-6.73-1.45-4.79-4.59-9.22-5.27-14.05-6.36-45.1,8.51-82.19,43.73-110.76,43.79-35.53,109.32-31.95,149.14,7.91,28.59,28.61,37.46,63.66,32.59,102.96-.31,2.52-1.05,5.04-.94,7.54.24,5.59,4.07,7.54,8.97,4.59,2.71-1.64,5.15-3.74,8.27-6.05ZM895.72,1273.8c2.07,2.63,4.33,5.83,6.92,8.73,5.22,5.83,5.86,11.92,2.5,19.02-3.41,7.21-6.04,14.78-9.09,22.15-27.33,66.11-35.86,135.02-29.64,205.86,3.19,36.33,11.94,71.5,25.9,105.32,1.61,3.9,2.24,8.35,2.6,12.61,2.07,24.21-3.59,47.67-7.49,71.25-3.9,23.54,3.99,42.4,21.93,56.86,12.67,10.22,26.43,19.15,40.1,28.04,8.94,5.81,13.95,13.6,15.1,23.91,1,9,2.15,18.06,2.06,27.09-.29,28.36-3.61,56.46-9.14,84.26-5.95,29.89-12.57,59.65-18.28,89.59-7.33,38.46-16.06,76.77-16.03,116.27,0,1.63-.94,3.26-1.89,6.31-27.96-11.74-54.16-1.9-82.56,6.89,1.52-6.78,2.34-11.28,3.56-15.67,5.24-18.88,10.75-37.69,15.89-56.59,5.23-19.22,6.16-38.61,1.42-58.13-2.39-9.87-4.45-19.83-6.88-29.69-5.13-20.86-8.56-42-8.97-63.45-.6-31.08,4.07-61.48,14-90.99,6.02-17.88,12.08-35.75,18.35-53.54,6.14-17.39,3.66-33.6-6.25-48.82-8.31-12.76-16.78-25.43-25.38-38-2.74-4-4.66-7.76-4.23-12.98,2.67-32.35-.47-64.5-4.33-96.57-5.06-42.12-14.51-83.61-17.3-126.09-1.41-21.5-1.65-42.89,2.19-63.97,4.87-26.75,11.53-53.17,16.84-79.85,1.5-7.56,4.57-12.28,12.02-14.8,4.73-1.6,9.35-4.25,13.26-7.38,10.67-8.53,20.94-17.57,32.79-27.61ZM734.25,2150.93c-.7-6.64-1.24-10.87-1.58-15.12-1.09-13.73-.95-27.68-3.36-41.17-8.18-45.72-16.61-91.41-26.18-136.85-8.41-39.95-14.14-79.98-12.36-120.92.7-16.11,6.54-28.35,21.07-36.63,11-6.27,21.38-13.72,31.61-21.22,20.5-15.02,29.82-35.03,25.63-60.62-.41-2.51-.9-5-1.2-7.52-1.88-15.83-3.92-31.64-5.4-47.5-.35-3.77.69-7.92,2.03-11.56,4.24-11.55,9.56-22.74,13.32-34.43,15.68-48.72,24-98.16,20.66-149.91-3.43-53.15-13.47-104.21-34.77-153.01-2.32-5.32-4.57-10.69-6.42-16.19-.88-2.61-1.93-6.23-.82-8.24,3.37-6.11,6.48-12.79,13.99-16.44,13.95,17.79,30.73,31.25,51.93,38.63,5.57,1.94,5.07,6.29,3.88,10.81-3.22,12.29-6.12,24.67-9.65,36.86-11.29,38.89-14.08,78.66-10.17,118.64,3.13,32.09,8.75,63.95,13.5,95.87,5.35,35.96,8.57,72.03,7.59,108.43-.18,6.54-1.94,11.55-6.66,16.39-11.13,11.43-21.51,23.6-32.32,35.34-6.82,7.42-9.88,15.85-8.28,25.94,1.87,11.82,3.6,23.67,5.28,35.52,3.26,22.97,7.31,45.87,9.38,68.94,1.77,19.79,1.53,39.78,1.61,59.69.06,12.68-1.48,25.37-1.3,38.04.42,28.66,1.24,57.31,2.34,85.95.48,12.3,1.35,24.68,3.31,36.82,3.42,21.12,7.86,42.08,11.8,63.12.42,2.27.33,4.63.56,8.19-26-8.95-51.08-16.31-79.03-5.85ZM823.88,681.99c-.91,10.08-.98,20.32-2.88,30.22-5.34,27.79-3.06,22.31-24.74,36.13-23.84,15.2-49.66,18.47-75.79,7.12-21.89-9.51-43.22-20.44-64.18-31.86-8.75-4.77-16.04-12.3-23.77-18.85-5.4-4.57-6.73-10.29-5.57-17.57,5.99-37.48,15.89-73.62,33.86-107.33,3.51-6.58,7.33-10.61,15.3-11.73,21.62-3.03,43.06-4.08,64.95-2.23,22.22,1.89,42.4,8.81,61.91,18.8,5.9,3.02,9.28,7.63,10.56,14.21,5.35,27.43,8.95,55.06,10.35,83.1ZM839.31,681.18c1.44-27.56,5.6-54.42,10.52-81.22,1.29-7.05,4.53-12.06,10.8-15.29,13.92-7.16,28.12-13.45,43.7-16.22,28.52-5.08,56.95-5.19,85.48.03,5.64,1.03,8.78,3.65,11.44,8.58,17.62,32.62,27.93,67.56,34.51,103.88,2.34,12.93-.93,22.16-11.33,30.36-26.59,20.96-56.62,35.18-88.17,46.5-18.93,6.79-37.96,5.47-56.16-2.88-8.53-3.91-16.38-9.29-24.55-13.98-5.72-3.28-9.27-8.15-10.19-14.66-2.12-15.02-4.06-30.07-6.07-45.1ZM979.13,1359.3c3.42,4.85,5.72,8.04,7.95,11.28,13.39,19.52,27.88,38.28,46.44,53.03,8.41,6.69,10.88,13.74,9.29,23.43-3.46,21.11-5.91,42.44-10.53,63.29-13.1,59.06-34.33,115.34-60.38,169.86-3.7,7.75-7.21,15.58-10.69,23.12-1.58-.22-2.4-.11-2.94-.45-1.22-.77-2.36-1.68-3.41-2.66-16.79-15.79-30.69-33.9-41.66-54.09-2.8-5.14-4.54-11.75-4.21-17.54,1.18-20.61,3.07-41.2,5.42-61.72,3.48-30.39,11.78-59.69,20.49-88.94,11.3-37.94,23.75-75.42,40.04-111.54.85-1.89,2.11-3.59,4.2-7.08ZM685.29,1359.05c6.09,14.2,12.47,27.25,17.39,40.82,24.01,66.29,45.93,133.13,50.58,204.27.85,12.96,3.8,25.86-4.28,37.77-1.16,1.7-1.05,4.21-1.81,6.24-1.4,3.71-2.3,7.9-4.66,10.91-10.71,13.69-21.8,27.1-32.91,40.47-1.49,1.8-3.86,2.86-6.11,4.47-1.3-1.69-2.4-2.69-2.97-3.93-6.56-14.16-13.28-28.24-19.49-42.55-29.9-68.9-53.56-139.55-60.65-214.93-.66-7.05,1.09-11.41,6.2-16.01,9.67-8.71,19.25-17.7,27.71-27.56,10.6-12.35,20.03-25.69,31.02-39.97ZM1003.08,1013.8c.35-4.46.27-7.32.83-10.04,5.11-24.88,9.68-49.89,15.67-74.55,7.71-31.73,16.49-63.2,24.98-94.74,7.84-29.09,10.37-58.49,6.42-88.44-1.19-8.98-1.9-18.04-2.44-27.09-.45-7.47,1.4-9.31,8.76-8.58,4.28.42,8.59,1.53,12.66,2.95,26.62,9.29,50.65,23.35,73.37,39.89,5.08,3.69,6.63,8.15,6.07,14.05-1.32,14.08-2.47,28.18-3.66,42.28-5.4,63.58-31.21,119.59-64.37,172.79-7.89,12.65-18.67,22.17-33.94,25.34-9.58,1.99-19.08,4.42-28.73,6.01-4.78.79-9.8.14-15.63.14ZM660.9,1013.75c-6.27,0-11.27.46-16.15-.11-6.46-.76-12.79-2.57-19.23-3.53-23.11-3.46-38.69-16.68-49.21-36.96-5.84-11.26-12.32-22.18-18.42-33.31-29.24-53.34-41.36-111-43.46-171.25-.26-7.59,2.19-12.92,8.49-17.45,21.34-15.32,44.17-27.78,68.66-37.16,4.69-1.79,9.75-2.8,14.73-3.59,2.61-.41,5.41.47,8.85.84-.89,11.07-1.55,21.16-2.54,31.21-2.18,22.05-3.66,44.15,1.02,66.01,4.09,19.13,8.38,38.26,13.72,57.06,12.27,43.28,22.8,86.95,31.19,131.14.99,5.22,1.47,10.54,2.35,17.1ZM1054.66,2321.06c-4.15,3.23-6.76,5.61-9.69,7.5-11.44,7.38-24.1,11.76-37.36,14.34-28.11,5.46-56.19,4.07-84.34-.19-27.55-4.17-51.6-19.35-78.81-24.56-2.16-.41-4.3-4.48-5.14-7.25-.91-3-.24-6.47-.35-9.73-.61-18.47-.46-37.01-2.08-55.39-1.67-18.89-.18-37.62.34-56.42.24-8.89,3.97-14.67,12.71-18.07,16.86-6.56,34.04-10.2,52.12-8.48,16.49,1.57,28.99,8.59,34.06,25.6,1.34,4.5,3.28,8.84,5.13,13.18,13.98,32.82,32.34,62.63,61.27,84.43,12.99,9.79,27.15,18.04,40.74,27.03,3.45,2.28,6.77,4.75,11.41,8.02ZM601.53,2320.23c6.59-3.95,11.97-7.38,17.53-10.47,25.32-14.06,47.53-31.73,65.65-54.57,16.02-20.19,27.21-42.88,35.67-66.91,5.73-16.27,17.43-23.4,33.29-25.36,19.66-2.43,38.18,2.4,56.2,9.78,5.16,2.11,8.37,5.83,8.65,11.47.81,16.28,1.76,32.57,2.03,48.86.13,7.57-1.48,15.15-1.8,22.75-.74,17.38-1.12,34.77-1.75,52.16-.32,8.69-1.15,9.39-9.62,11.83-10.44,3.01-20.88,6.08-31.19,9.52-8.24,2.75-16.1,6.79-24.46,9.02-34.09,9.09-68.63,10.87-103.41,4.52-14.04-2.56-27.15-7.86-39.04-15.89-2.29-1.55-4.22-3.62-7.74-6.7ZM509.76,743.56c-1.48-2.64-2.83-4.37-3.48-6.34-5.61-16.84-11.5-33.6-16.43-50.64-2.19-7.56-3.26-15.7-3.31-23.59-.24-35.9,17.06-63.79,42.2-87.35,20.18-18.91,45.29-27.91,72.01-33.46,11.62-2.41,21.47.3,30.86,6.48,3.92,2.58,7.78,5.36,11.27,8.49,9.43,8.48,9.93,10.33,4.28,21.42-17.48,34.3-27.43,70.87-32.94,108.74-.89,6.13-3.27,8.82-9.15,9.9-20.6,3.79-39.25,12.62-57.14,23.13-12.46,7.32-24.71,15.01-38.16,23.21ZM1154.55,744.56c-5.5-3.53-9.11-5.82-12.69-8.15-26.23-17.08-52.89-33.3-84.19-39.49-5.15-1.02-7.47-3.78-8.05-8.68-.34-2.88-.9-5.73-1.4-8.59-5.74-32.64-13.79-64.58-28.75-94.42-9.75-19.46-9.24-21.36,8.74-34.2,2.06-1.47,4.2-2.87,6.41-4.12,8.44-4.77,17.26-7.71,27.05-4.73,14.19,4.32,28.93,7.4,42.42,13.31,45.75,20.06,75.08,67.35,71.92,115.43-1.66,25.3-12.76,48.03-21.46,73.65ZM1035.69,719.43c1.07,5.14,2.19,8.54,2.44,11.99,1.07,14.81,2.15,29.63,2.69,44.47.25,6.84.09,13.91-1.34,20.56-4.95,23-9.73,46.1-16.03,68.75-14.5,52.07-27.75,104.39-35.23,158-1.04,7.44-3.88,12.66-11.26,15.69-7.79,3.2-15.12,7.53-22.14,11.11-3.19-15.14-5.52-29.04-9.19-42.58-2.43-8.93-2.48-16.85,1.96-25.11,7.75-14.43,11.26-30.17,8.87-46.29-2.48-16.78-6.49-33.37-10.68-49.83-2.21-8.67-3.1-17.04-1.24-25.74,2.7-12.63,2.65-25.34-.7-37.72-3.4-12.57-7.89-24.84-11.92-37.23-1.09-3.35-2.21-6.69-3.67-11.11,38.5-13.19,74.59-29.36,107.45-54.97ZM626.67,718.18c33.61,26.95,70.28,42.87,109.11,56.42-3.98,10.59-7.8,19.93-11.01,29.49-6.64,19.81-10.67,39.77-5.17,60.84,1.45,5.57.13,12.2-1.15,18.07-2.87,13.09-6.84,25.94-9.76,39.02-3.63,16.21-3.39,32.43,2.36,48.23,2.11,5.79,5.15,11.26,6.91,17.13,1.3,4.33,2.7,9.5,1.51,13.55-4.71,15.98-8.82,32-9.5,50.15-10.53-5.65-20.24-10.37-29.34-16.05-2.51-1.57-4.19-5.86-4.64-9.13-5.01-36.71-12.97-72.83-22.05-108.69-8.46-33.39-17.93-66.53-26.43-99.91-8.12-31.9-3.63-64.02-.83-99.12ZM725.53,1261.4c2.43,4.29,4.16,6.87,5.42,9.66,4.48,9.92,8.68,19.97,13.2,29.86,24.71,54.07,38.76,110.61,41.71,170.15,2.17,43.72-4.03,86.08-15.73,127.92-.53,1.88-1.7,3.58-3.66,7.56-.76-4.4-1.2-6.37-1.44-8.37-1.91-15.84-3.43-31.73-5.75-47.5-5.66-38.61-18.14-75.5-30.42-112.27-9.06-27.12-20.67-53.41-31.72-79.83-3.64-8.71-3.92-16.01.64-24.68,10.65-20.27,18.76-41.66,24.58-63.87.61-2.31,1.64-4.51,3.16-8.64ZM897.6,1605.32l-1.78.1c-.71-1.94-1.5-3.86-2.13-5.83-19.6-61.58-19.42-124.29-9.69-187.29,7.89-51.09,28.66-97.92,50.35-144.32.72-1.54,1.89-2.87,2.84-4.29,1.14.73,2.03.98,2.23,1.5.76,2.02,1.16,4.18,1.93,6.19,8.03,20.97,15.4,42.23,24.52,62.72,3.94,8.85,4.55,15.99.42,24.54-17.39,36-30.61,73.56-42.02,111.87-10.47,35.16-20.41,70.33-23.54,107.07-.79,9.26-2.07,18.49-3.12,27.73ZM1045.36,1413.67c-.84.41-1.68.83-2.52,1.24-2.68-2.33-5.69-4.38-7.97-7.05-12.24-14.32-25.38-28.04-36.2-43.39-24.09-34.17-40.42-72.02-49.45-112.94-1.23-5.58-1.15-10.6,2.1-15.6,12.66-19.47,25.11-39.08,37.75-58.56,1.03-1.58,2.93-2.59,5.17-4.51,31.55,78.07,50.93,157.43,51.11,240.82ZM621.9,1414.01c-.77-.5-1.53-.99-2.3-1.49-1.69-22.04-.62-44.04,2.59-65.9,8.36-56.83,21.96-112.3,43.88-165.55,1.17-2.84,2.4-5.65,3.92-9.24,1.73,1.95,2.81,2.9,3.56,4.06,12.95,20.1,25.8,40.26,38.82,60.31,2.77,4.27,3.61,8.54,2.14,13.39-5.02,16.61-9.19,33.53-15.14,49.8-14.51,39.69-37.46,74.23-66.54,104.75-3.38,3.55-7.28,6.59-10.95,9.87ZM814.42,1294.57c-18.6-10.18-30.87-22.58-39.75-38.44-7.86-14.06-13.11-29.16-15.9-44.93-6.63-37.46-12.77-75.01-19.02-112.54-.21-1.24.56-2.65,1.09-4.94,23.85,6.18,47.28,12.7,72.29,7.48.91,3.34,2.19,6.03,2.32,8.77,1.01,21.71,2.73,43.43,2.45,65.13-.43,33.68-2.28,67.34-3.47,101.01-.19,5.34-.03,10.7-.03,18.45ZM923.78,1093.73c0,3,.19,4.42-.03,5.78-3.94,24.7-7.46,49.47-12.04,74.05-3.85,20.64-7.87,41.36-13.77,61.48-6.01,20.51-17.49,38.22-35.06,51.22-3.28,2.43-7.15,4.07-12.4,7.01-.4-6.75-.79-11.33-.93-15.91-.74-25.37-.28-50.83-2.41-76.08-2.69-31.99-1.03-63.75,1.05-95.59.09-1.32.9-2.59,1.69-4.74,25.08,5.78,48.84-1.32,73.89-7.22ZM748.45,455.5c7.09,6.88,12.17,12.6,18.04,17.32,8.71,6.98,17.12,15.67,27.21,19.32,21.77,7.88,44.28,7.47,65.17-4.27,15.79-8.87,31.1-18.61,46.63-27.95,2.99-1.79,6.02-3.5,9.63-5.6,2.53,9.47,4.51,17.86,7.03,26.08,3.63,11.84,3.78,11.75-6.26,18.12-45.94,29.17-75.24,69.35-82.23,124.31-.27,2.09-1.25,4.09-1.49,4.87-4.63-16.54-7.59-34.36-14.56-50.44-14.33-33.06-37.48-59.19-68.82-77.65-3.93-2.31-7.44-5.34-10.84-7.81,3.52-12.2,6.7-23.23,10.47-36.31ZM811.85,882.65c1.3,3.21,1.91,4.17,2.06,5.2,4.57,30.72,3.32,61.45.16,92.19-.42,4.12-2.61,6.29-6.25,8.02-7.84,3.73-15.58,7.72-23.13,12-5.4,3.06-10.83,4.03-16.69,2.1-10.32-3.4-20.68-6.72-30.87-10.47-2.54-.93-5.35-2.94-6.6-5.23-7.57-13.8-13.38-28.32-12.63-44.42.78-16.73,4.1-33.08,9.31-49.02,2.88-8.83,3.71-9.45,12.4-6.44,9.59,3.32,19.03,7.07,28.47,10.81,6.94,2.75,13.42,2.29,19.66-1.9,3.31-2.22,6.62-4.5,10.14-6.35,4.32-2.27,8.86-4.13,13.98-6.48ZM931.78,884.46c1.46,2.23,2.81,3.58,3.31,5.18,4.93,15.92,9.41,31.9,10.25,48.74.8,16.07-2.82,30.98-10.69,44.79-2,3.51-5.29,7.29-8.88,8.7-10.4,4.12-21.24,7.16-31.94,10.5-5.12,1.6-9.86.67-14.53-2.13-6.19-3.72-12.43-7.62-19.12-10.19-6.95-2.66-10.9-6.52-10.96-14.16-.21-27.12-.63-54.24-.67-81.36,0-3.71,1.74-7.42,3-12.41,6.12,3.12,11.56,4.74,15.49,8.12,12.56,10.82,25.46,9.99,39.19,2.94,3.84-1.97,8.06-3.24,12.17-4.64,4.36-1.48,8.81-2.71,13.39-4.1ZM838.29,2108.44c-6.22-33.14-12.06-65.85-18.53-98.44-12.06-60.77-13.16-121.7-2.76-182.73,5.79-33.94,12.53-67.72,18.85-101.58.71-3.78,1.48-7.56,2.52-12.85,2.64,3.04,4.48,4.66,5.72,6.67,5.89,9.57,11.64,19.23,17.4,28.88,6.9,11.56,8.47,23.59,3.88,36.49-7.29,20.49-14.53,41.01-21.33,61.67-12.7,38.55-15.82,78.16-10.25,118.18,2.89,20.77,7.84,41.3,12.76,61.72,6.83,28.39.49,55.1-8.25,82ZM851.35,754.48c2.54.84,3.67,1,4.57,1.54,16.65,10.03,33.78,18.48,53.98,17.76,5.1-.18,7.82,3.06,9.4,7.58,3.94,11.3,8.45,22.44,11.8,33.91,4.94,16.91,7.03,34.04,1.29,51.41-1.39,4.21-3.22,6.89-7.54,8.25-10.72,3.38-21.39,6.98-31.99,10.73-4.53,1.6-8.26.9-12.3-1.61-6.76-4.21-13.65-8.35-20.88-11.65-6.3-2.87-9.34-7-10.42-13.84-5.01-31.8-4.61-63.61-.75-95.44.33-2.72,1.71-5.31,2.83-8.65ZM812.36,753.71c1.07,3.05,1.78,4.34,1.95,5.7,4.23,34.02,4.13,68.02-.44,102-.64,4.76-3.37,7.57-7.68,9.68-7.47,3.67-14.92,7.54-21.86,12.11-5.48,3.6-10.62,3.76-16.45,1.69-9.57-3.41-19.14-6.83-28.85-9.8-4.39-1.34-6.71-3.89-7.78-8.1-3.07-12.07-5.3-24.39-2.02-36.58,4.42-16.43,9.9-32.58,14.9-48.86,1.75-5.68,5.65-8.05,11.47-7.92,16.17.37,30.53-5.43,44.33-13.11,3.75-2.08,7.52-4.12,12.42-6.81ZM981.51,1048.55c.92.48,1.84.96,2.75,1.45-.27,6.06-.49,12.12-.83,18.18-.39,6.87-.92,13.74-1.33,20.61-1.2,20.1,2.09,39.83,5.55,59.47,1.26,7.14-.44,12.36-4.65,18.02-24.27,32.67-46.9,66.4-64.18,103.44-1.13,2.42-2.96,4.51-4.89,7.4-2.27-2.38-3.79-3.85-5.17-5.45-1.89-2.2-4.28-4.25-5.33-6.82-.96-2.36-1.44-5.8-.42-7.96,12.52-26.68,17.03-55.36,21.66-84.05,3.93-24.34,7.21-48.83,12.39-72.91,2.3-10.7,6.94-21.8,13.5-30.46,7.55-9.97,19.76-15.23,30.95-20.93ZM749.27,1277.6c-2.1-3.51-3.59-5.52-4.59-7.74-16.23-35.86-37.98-68.4-61.47-99.7-6.78-9.03-9.57-17.23-6.8-27.73.28-1.05.53-2.11.73-3.18,3.98-21.45,6.3-42.96,3.54-64.81-1.1-8.72-1.27-17.56-2.05-29.17,12.35,8.27,22.52,14.97,32.54,21.9,1.7,1.18,3.29,3.11,3.99,5.04,4.82,13.19,12.6,25.17,14.48,39.59,3.05,23.33,6.87,46.56,10.65,69.79,4.08,25.04,8.09,50.14,19.75,73.12,2.45,4.84,2.05,8.95-1.73,12.86-2.74,2.83-5.29,5.85-9.03,10.02ZM931,1002.2c6.02,12.04,7.95,23.77,9.57,35.55,1.92,13.92-1.52,26.66-9.6,38.02-1.75,2.46-4.48,4.99-7.26,5.83-18.78,5.68-37.84,10.15-57.67,9.25-18.56-.84-24.27-5.78-24.31-24.13-.03-14.77,1.92-29.58,3.48-44.32.78-7.36,2.64-14.61,4.01-21.85,8.44-.42,14.08,3.31,19.16,7.02,11.38,8.33,23.09,9.27,35.9,4.19,8.36-3.32,16.94-6.08,26.73-9.56ZM732.64,1002.07c4.19,1.55,7.46,2.86,10.8,3.98,7.88,2.65,15.77,5.27,23.68,7.81,8.1,2.6,15.58,1.35,22.82-3.21,5.5-3.46,11.28-6.57,17.22-9.19,4.98-2.2,7.46-.74,8.68,4.57,1.05,4.57,1.55,9.27,2.22,13.93,2.51,17.54,5.41,35.05,3,52.87-1.72,12.7-4.17,15.44-16.74,17.34-4.62.7-9.48,1.25-14.06.62-14.29-1.98-28.46-4.92-42.76-6.79-14.51-1.9-20.41-12.86-22.89-24.26-4.15-19.06-1.23-38.08,8.03-57.66ZM630.2,531.38c.67-.7,1.27-1.64,2.13-2.19,21.95-13.97,46.09-22.85,71.02-29.55,9.16-2.47,18.57-2.14,27.41,2.96,20.93,12.07,39.66,26.8,55.13,45.4,5.4,6.5,9.86,13.78,15.11,21.21-2.12.33-2.86.67-3.46.5-1.38-.4-2.73-.96-4.02-1.61-27.12-13.69-56.5-15.09-85.92-14.82-13.31.12-26.57,3.23-39.91,4.46-3.23.3-7.42-.47-9.84-2.41-9.26-7.4-17.99-15.48-27.65-23.95ZM1034.54,530.65c-10.46,9.05-19.32,16.44-27.81,24.21-3.29,3.01-6.52,4.06-10.82,3.24-23.24-4.47-46.56-5.93-70.25-3.86-17.88,1.56-35.15,4.69-51.57,12.05-2.78,1.25-5.73,2.13-8.53,3.15-.58-1.37-.91-1.77-.82-2,.53-1.3,1.01-2.65,1.77-3.81,16.28-24.65,37.54-43.91,62.82-59.09,10.38-6.23,21.11-7.94,32.32-4.47,14.18,4.39,28.3,9.14,42.01,14.8,10.58,4.37,20.48,10.38,30.9,15.77ZM664.02,1141.05c-34.71-31.67-69.67-98.04-66.84-126.2,19.81,6,39.56,12.07,60.54,11.48,4.7-.13,5.82,3.21,6.32,7.21,3.39,27,5.84,54.07,4,81.3-.57,8.48-2.55,16.87-4.03,26.22ZM1065.14,1015.75c5.33,25.8-37.35,106.22-65.15,123.73-.61-2.17-1.31-4.19-1.74-6.27-5.14-24.77-3.72-49.69-1.47-74.6.72-7.93,1.39-15.88,2.68-23.73,1.31-7.99,1.99-8.63,9.75-8.6,16.17.06,31.57-3.7,46.84-8.44,2.96-.92,6.05-1.4,9.1-2.09ZM959.81,1791.86c-17.16-10.44-32.56-19.35-45.9-31.77-12.09-11.26-15.81-24.51-13.26-40.28,2.19-13.57,4.04-27.2,6.25-40.77.48-2.91,1.87-5.68,3.37-10.04,3.15,3.73,5.08,5.78,6.75,8.03,9.28,12.53,18.75,24.86,31.85,33.79,3.95,2.69,4.9,6.7,5.31,11.29,1.71,19.08,3.78,38.13,5.59,57.2.32,3.38.05,6.82.05,12.56ZM695.95,1792.14c.31-4.45.39-6.54.61-8.61,1.72-15.86,3.96-31.69,5-47.6.49-7.49,3.18-12.72,8.3-18,11.59-11.97,22.49-24.61,33.55-37.08,1.15-1.3,1.49-3.31,2.2-4.99,3.46,4.35,4.6,6.94,5,9.64,1.93,12.92,3.44,25.9,5.54,38.79,2.25,13.77-2.31,25.06-11.89,34.54-13.52,13.37-29.95,22.54-48.32,33.32ZM822.67,1712.81l1.83.76c-6.96,36.31-13.92,72.63-20.88,108.94-5.05-21.54-8.2-43.03-11.63-64.48-1.01-6.3.71-11.36,4.83-15.97,8.66-9.71,17.24-19.5,25.85-29.25ZM830.05,1300.95c-.84-3.32-2.24-6.24-2.22-9.16.15-27.94-.34-55.93,1.12-83.81,1.48-28.31,2.74-56.51-.4-84.75-.72-6.49-1.44-12.98-1.91-19.48-.55-7.66,1.43-8.85,10.07-5.83-.34,5.94-.22,12.14-1.11,18.19-4.7,31.81-2.43,63.66-1.18,95.54,1.05,26.81,1.28,53.66,1.76,80.49.06,3.12.49,6.76-6.13,8.81ZM827,864.91c0-3.28-.28-5.44.04-7.51,5.02-32.5,4.97-65.05-1.35-97.24-2.36-12.03,1.42-21.39,6-32.63,2.83,6.6,5.33,11.77,7.22,17.16.77,2.22.67,5,.18,7.37-7.22,34.78-6.87,69.74-2.78,104.82.28,2.43.27,4.89.43,8.04h-9.73ZM837.1,982.27c-10.08,1.28-11.07.69-10.25-6.47,3.57-31.05,3.86-62-2.07-92.83-.19-.97.36-2.08.71-3.9h13.93c-7.32,34.78-6.1,68.64-2.32,103.19ZM811.6,2041.05c7.38,33.35,13.71,66.83,13.02,101.24-6.82-33.42-16.41-66.48-13.02-101.24ZM832.93,1019.48c-.74-.01-1.48-.02-2.22-.03-.78-5.5-1.84-10.99-2.13-16.52-.08-1.43,2.25-2.98,3.48-4.48,1.17,1.49,3.43,3.06,3.33,4.45-.42,5.55-1.58,11.05-2.46,16.57Z"/>
      <path class="cls-5" d="M958.54,292.02c-3.12,2.31-5.55,4.42-8.27,6.05-4.9,2.95-8.73,1-8.97-4.59-.1-2.49.63-5.02.94-7.54,4.87-39.3-4-74.35-32.59-102.96-39.82-39.85-105.34-43.44-149.14-7.91-35.22,28.58-50.09,65.66-43.73,110.76.68,4.83,3.82,9.27,5.27,14.05.65,2.14.65,6.27-.34,6.73-2.16,1-5.59,1.09-7.68,0-4.02-2.11-7.48-5.3-12.73-9.21-1.65,4.97-3.64,8.43-3.83,11.98-1.23,23.79,2.94,46.27,17.19,66.09,2.97,4.13,6.3,8.06,8.71,12.49,3.59,6.61,6.76,13.48,9.61,20.44,1.77,4.34,2.69,9.03,3.87,13.6,1.6,6.19,5.06,10.84,9.98,15.08,12.62,10.9,24.89,22.23,37.02,33.68,9.22,8.71,19.85,12.18,32.52,12.66,17.7.67,33.56-3.26,48.47-12.83,15.87-10.2,32.09-19.88,48.49-29.21,7.81-4.45,11.28-10.69,11.99-19.25.42-5.05,1.41-10.05,2.19-15.07,1.15-7.41,4.41-13.75,9.63-19.13,21.95-22.68,28.54-50.62,27.52-81.08-.17-5.01-.71-10.16-6.11-14.83Z"/>
      <path class="cls-5" d="M895.72,1273.8c-11.85,10.04-22.12,19.08-32.79,27.61-3.91,3.13-8.53,5.78-13.26,7.38-7.45,2.51-10.52,7.24-12.02,14.8-5.31,26.68-11.96,53.1-16.84,79.85-3.84,21.08-3.6,42.47-2.19,63.97,2.79,42.48,12.24,83.97,17.3,126.09,3.85,32.07,7,64.22,4.33,96.57-.43,5.22,1.49,8.98,4.23,12.98,8.6,12.57,17.06,25.24,25.38,38,9.91,15.22,12.39,31.43,6.25,48.82-6.28,17.79-12.34,35.66-18.35,53.54-9.93,29.51-14.6,59.91-14,90.99.41,21.46,3.84,42.6,8.97,63.45,2.43,9.86,4.49,19.82,6.88,29.69,4.74,19.52,3.81,38.91-1.42,58.13-5.15,18.91-10.65,37.72-15.89,56.59-1.22,4.39-2.03,8.9-3.56,15.67,28.39-8.79,54.6-18.63,82.56-6.89.94-3.05,1.89-4.68,1.89-6.31-.04-39.5,8.7-77.8,16.03-116.27,5.7-29.94,12.33-59.7,18.28-89.59,5.53-27.8,8.85-55.9,9.14-84.26.09-9.02-1.06-18.09-2.06-27.09-1.15-10.31-6.16-18.1-15.1-23.91-13.67-8.89-27.43-17.82-40.1-28.04-17.93-14.46-25.83-33.33-21.93-56.86,3.9-23.57,9.57-47.04,7.49-71.25-.36-4.26-.99-8.7-2.6-12.61-13.96-33.82-22.71-68.99-25.9-105.32-6.22-70.84,2.31-139.75,29.64-205.86,3.05-7.38,5.69-14.95,9.09-22.15,3.36-7.1,2.72-13.19-2.5-19.02-2.6-2.9-4.85-6.1-6.92-8.73Z"/>
      <path class="cls-5" d="M734.25,2150.93c27.95-10.45,53.03-3.1,79.03,5.85-.23-3.56-.13-5.92-.56-8.19-3.94-21.04-8.37-42-11.8-63.12-1.97-12.14-2.84-24.51-3.31-36.82-1.11-28.64-1.93-57.29-2.34-85.95-.18-12.67,1.35-25.36,1.3-38.04-.09-19.91.16-39.9-1.61-59.69-2.07-23.08-6.13-45.97-9.38-68.94-1.68-11.85-3.41-23.7-5.28-35.52-1.6-10.09,1.46-18.53,8.28-25.94,10.81-11.75,21.18-23.91,32.32-35.34,4.72-4.84,6.48-9.85,6.66-16.39.98-36.4-2.24-72.47-7.59-108.43-4.75-31.93-10.36-63.78-13.5-95.87-3.9-39.98-1.11-79.75,10.17-118.64,3.54-12.19,6.43-24.57,9.65-36.86,1.19-4.52,1.69-8.87-3.88-10.81-21.21-7.38-37.98-20.84-51.93-38.63-7.5,3.65-10.62,10.33-13.99,16.44-1.11,2.01-.06,5.63.82,8.24,1.85,5.49,4.1,10.87,6.42,16.19,21.3,48.81,31.34,99.87,34.77,153.01,3.34,51.75-4.98,101.19-20.66,149.91-3.76,11.69-9.08,22.88-13.32,34.43-1.33,3.63-2.38,7.78-2.03,11.56,1.48,15.86,3.52,31.67,5.4,47.5.3,2.52.79,5.02,1.2,7.52,4.19,25.59-5.14,45.6-25.63,60.62-10.23,7.5-20.61,14.95-31.61,21.22-14.52,8.27-20.37,20.52-21.07,36.63-1.78,40.94,3.95,80.97,12.36,120.92,9.57,45.44,18,91.13,26.18,136.85,2.41,13.49,2.27,27.44,3.36,41.17.34,4.25.88,8.49,1.58,15.12Z"/>
      <path class="cls-5" d="M823.88,681.99c-1.4-28.04-5-55.66-10.35-83.1-1.28-6.58-4.67-11.18-10.56-14.21-19.51-10-39.68-16.92-61.91-18.8-21.88-1.86-43.33-.81-64.95,2.23-7.98,1.12-11.8,5.15-15.3,11.73-17.96,33.71-27.86,69.85-33.86,107.33-1.16,7.28.17,12.99,5.57,17.57,7.72,6.55,15.02,14.08,23.77,18.85,20.97,11.42,42.3,22.35,64.18,31.86,26.12,11.35,51.94,8.08,75.79-7.12,21.68-13.82,19.4-8.34,24.74-36.13,1.9-9.89,1.97-20.13,2.88-30.22Z"/>
      <path class="cls-5" d="M839.31,681.18c2.01,15.04,3.94,30.08,6.07,45.1.92,6.5,4.47,11.37,10.19,14.66,8.17,4.69,16.02,10.06,24.55,13.98,18.2,8.35,37.23,9.68,56.16,2.88,31.54-11.32,61.57-25.54,88.17-46.5,10.39-8.19,13.67-17.42,11.33-30.36-6.58-36.32-16.89-71.26-34.51-103.88-2.66-4.92-5.8-7.55-11.44-8.58-28.53-5.22-56.96-5.11-85.48-.03-15.59,2.78-29.78,9.07-43.7,16.22-6.28,3.23-9.51,8.24-10.8,15.29-4.91,26.8-9.07,53.66-10.52,81.22Z"/>
      <path class="cls-5" d="M979.13,1359.3c-2.09,3.49-3.35,5.19-4.2,7.08-16.29,36.12-28.74,73.6-40.04,111.54-8.71,29.25-17.01,58.55-20.49,88.94-2.35,20.52-4.24,41.11-5.42,61.72-.33,5.79,1.42,12.4,4.21,17.54,10.97,20.19,24.87,38.3,41.66,54.09,1.05.99,2.2,1.9,3.41,2.66.54.34,1.36.23,2.94.45,3.48-7.54,6.99-15.38,10.69-23.12,26.04-54.52,47.27-110.8,60.38-169.86,4.63-20.85,7.07-42.18,10.53-63.29,1.59-9.69-.88-16.75-9.29-23.43-18.57-14.75-33.06-33.51-46.44-53.03-2.22-3.24-4.52-6.42-7.95-11.28Z"/>
      <path class="cls-5" d="M685.29,1359.05c-10.98,14.28-20.42,27.62-31.02,39.97-8.46,9.86-18.03,18.84-27.71,27.56-5.11,4.6-6.86,8.96-6.2,16.01,7.1,75.38,30.75,146.04,60.65,214.93,6.21,14.31,12.93,28.4,19.49,42.55.57,1.24,1.67,2.24,2.97,3.93,2.25-1.61,4.62-2.68,6.11-4.47,11.11-13.38,22.2-26.78,32.91-40.47,2.36-3.01,3.26-7.2,4.66-10.91.76-2.03.66-4.54,1.81-6.24,8.08-11.9,5.13-24.81,4.28-37.77-4.65-71.14-26.57-137.97-50.58-204.27-4.92-13.58-11.3-26.63-17.39-40.82Z"/>
      <path class="cls-5" d="M1003.08,1013.8c5.83,0,10.85.65,15.63-.14,9.64-1.59,19.15-4.03,28.73-6.01,15.27-3.16,26.05-12.68,33.94-25.34,33.17-53.2,58.98-109.21,64.37-172.79,1.2-14.09,2.34-28.19,3.66-42.28.55-5.9-1-10.36-6.07-14.05-22.72-16.53-46.75-30.59-73.37-39.89-4.08-1.42-8.38-2.53-12.66-2.95-7.36-.72-9.21,1.11-8.76,8.58.54,9.05,1.26,18.1,2.44,27.09,3.96,29.94,1.42,59.35-6.42,88.44-8.49,31.54-17.27,63.01-24.98,94.74-5.99,24.66-10.56,49.68-15.67,74.55-.56,2.73-.48,5.58-.83,10.04Z"/>
      <path class="cls-5" d="M660.9,1013.75c-.89-6.56-1.36-11.88-2.35-17.1-8.39-44.19-18.92-87.86-31.19-131.14-5.33-18.81-9.62-37.94-13.72-57.06-4.68-21.87-3.2-43.96-1.02-66.01.99-10.05,1.65-20.14,2.54-31.21-3.44-.37-6.24-1.25-8.85-.84-4.98.78-10.04,1.79-14.73,3.59-24.5,9.37-47.33,21.84-68.66,37.16-6.3,4.53-8.75,9.85-8.49,17.45,2.09,60.25,14.22,117.92,43.46,171.25,6.1,11.13,12.58,22.05,18.42,33.31,10.52,20.29,26.11,33.5,49.21,36.96,6.44.97,12.77,2.77,19.23,3.53,4.88.58,9.88.11,16.15.11Z"/>
      <path class="cls-5" d="M1054.66,2321.06c-4.65-3.27-7.97-5.74-11.41-8.02-13.6-9-27.75-17.24-40.74-27.03-28.93-21.81-47.29-51.61-61.27-84.43-1.85-4.34-3.79-8.68-5.13-13.18-5.06-17.01-17.57-24.03-34.06-25.6-18.08-1.72-35.26,1.92-52.12,8.48-8.74,3.4-12.46,9.18-12.71,18.07-.52,18.8-2.01,37.53-.34,56.42,1.62,18.38,1.47,36.92,2.08,55.39.11,3.26-.56,6.73.35,9.73.84,2.77,2.98,6.83,5.14,7.25,27.22,5.21,51.26,20.4,78.81,24.56,28.15,4.26,56.24,5.65,84.34.19,13.26-2.58,25.92-6.95,37.36-14.34,2.93-1.89,5.54-4.26,9.69-7.5Z"/>
      <path class="cls-5" d="M601.53,2320.23c3.52,3.08,5.46,5.15,7.74,6.7,11.88,8.03,25,13.32,39.04,15.89,34.78,6.35,69.32,4.58,103.41-4.52,8.36-2.23,16.22-6.27,24.46-9.02,10.31-3.44,20.74-6.51,31.19-9.52,8.47-2.44,9.31-3.13,9.62-11.83.63-17.38,1.01-34.78,1.75-52.16.32-7.6,1.93-15.18,1.8-22.75-.27-16.29-1.22-32.58-2.03-48.86-.28-5.64-3.49-9.36-8.65-11.47-18.02-7.38-36.54-12.21-56.2-9.78-15.86,1.96-27.56,9.09-33.29,25.36-8.46,24.02-19.65,46.72-35.67,66.91-18.12,22.84-40.32,40.5-65.65,54.57-5.57,3.09-10.94,6.52-17.53,10.47Z"/>
      <path class="cls-5" d="M509.76,743.56c13.45-8.2,25.7-15.89,38.16-23.21,17.89-10.51,36.54-19.34,57.14-23.13,5.89-1.08,8.26-3.78,9.15-9.9,5.51-37.87,15.45-74.45,32.94-108.74,5.65-11.09,5.15-12.94-4.28-21.42-3.49-3.13-7.34-5.91-11.27-8.49-9.4-6.18-19.24-8.89-30.86-6.48-26.72,5.55-51.82,14.55-72.01,33.46-25.15,23.56-42.44,51.44-42.2,87.35.05,7.89,1.12,16.03,3.31,23.59,4.93,17.04,10.82,33.8,16.43,50.64.65,1.97,2.01,3.7,3.48,6.34Z"/>
      <path class="cls-5" d="M1154.55,744.56c8.69-25.62,19.79-48.35,21.46-73.65,3.16-48.08-26.17-95.37-71.92-115.43-13.49-5.92-28.23-8.99-42.42-13.31-9.79-2.98-18.6-.05-27.05,4.73-2.21,1.25-4.34,2.64-6.41,4.12-17.98,12.84-18.49,14.74-8.74,34.2,14.95,29.84,23,61.78,28.75,94.42.5,2.86,1.06,5.71,1.4,8.59.58,4.9,2.9,7.66,8.05,8.68,31.31,6.19,57.96,22.41,84.19,39.49,3.58,2.33,7.19,4.62,12.69,8.15Z"/>
      <path class="cls-5" d="M1035.69,719.43c-32.86,25.61-68.95,41.78-107.45,54.97,1.46,4.41,2.58,7.76,3.67,11.11,4.02,12.4,8.51,24.67,11.92,37.23,3.35,12.38,3.41,25.09.7,37.72-1.86,8.7-.97,17.07,1.24,25.74,4.2,16.46,8.2,33.05,10.68,49.83,2.38,16.12-1.12,31.85-8.87,46.29-4.44,8.26-4.39,16.18-1.96,25.11,3.68,13.53,6,27.44,9.19,42.58,7.02-3.58,14.35-7.91,22.14-11.11,7.38-3.03,10.22-8.25,11.26-15.69,7.48-53.61,20.73-105.93,35.23-158,6.31-22.65,11.09-45.74,16.03-68.75,1.43-6.65,1.58-13.72,1.34-20.56-.53-14.84-1.61-29.66-2.69-44.47-.25-3.46-1.36-6.85-2.44-11.99Z"/>
      <path class="cls-5" d="M626.67,718.18c-2.8,35.1-7.28,67.22.83,99.12,8.49,33.38,17.97,66.52,26.43,99.91,9.09,35.86,17.05,71.97,22.05,108.69.45,3.26,2.13,7.56,4.64,9.13,9.11,5.68,18.81,10.4,29.34,16.05.68-18.15,4.78-34.18,9.5-50.15,1.19-4.04-.21-9.22-1.51-13.55-1.77-5.87-4.81-11.34-6.91-17.13-5.75-15.8-5.99-32.01-2.36-48.23,2.93-13.08,6.9-25.93,9.76-39.02,1.29-5.87,2.61-12.51,1.15-18.07-5.5-21.07-1.47-41.03,5.17-60.84,3.2-9.55,7.03-18.9,11.01-29.49-38.82-13.55-75.49-29.47-109.11-56.42Z"/>
      <path class="cls-5" d="M725.53,1261.4c-1.53,4.13-2.56,6.33-3.16,8.64-5.82,22.21-13.93,43.6-24.58,63.87-4.56,8.67-4.28,15.97-.64,24.68,11.04,26.42,22.66,52.71,31.72,79.83,12.28,36.78,24.75,73.66,30.42,112.27,2.31,15.78,3.83,31.67,5.75,47.5.24,2,.68,3.97,1.44,8.37,1.96-3.99,3.14-5.68,3.66-7.56,11.69-41.84,17.9-84.21,15.73-127.92-2.95-59.54-17-116.08-41.71-170.15-4.52-9.9-8.72-19.95-13.2-29.86-1.26-2.79-2.99-5.37-5.42-9.66Z"/>
      <path class="cls-5" d="M897.6,1605.32c1.05-9.24,2.33-18.46,3.12-27.73,3.13-36.74,13.07-71.91,23.54-107.07,11.41-38.31,24.63-75.87,42.02-111.87,4.13-8.55,3.52-15.7-.42-24.54-9.12-20.49-16.48-41.75-24.52-62.72-.77-2.01-1.17-4.17-1.93-6.19-.19-.51-1.09-.76-2.23-1.5-.95,1.42-2.12,2.75-2.84,4.29-21.69,46.4-42.47,93.22-50.35,144.32-9.72,63-9.91,125.71,9.69,187.29.63,1.97,1.42,3.89,2.13,5.83l1.78-.1Z"/>
      <path class="cls-5" d="M1045.36,1413.67c-.18-83.38-19.56-162.75-51.11-240.82-2.25,1.92-4.15,2.93-5.17,4.51-12.64,19.48-25.09,39.09-37.75,58.56-3.25,5-3.33,10.03-2.1,15.6,9.03,40.92,25.36,78.78,49.45,112.94,10.82,15.34,23.96,29.06,36.2,43.39,2.28,2.67,5.3,4.72,7.97,7.05.84-.41,1.68-.83,2.52-1.24Z"/>
      <path class="cls-5" d="M621.9,1414.01c3.66-3.28,7.57-6.32,10.95-9.87,29.08-30.52,52.03-65.06,66.54-104.75,5.95-16.27,10.11-33.19,15.14-49.8,1.47-4.85.63-9.12-2.14-13.39-13.02-20.05-25.87-40.21-38.82-60.31-.75-1.16-1.83-2.11-3.56-4.06-1.53,3.59-2.76,6.4-3.92,9.24-21.92,53.25-35.53,108.72-43.88,165.55-3.21,21.86-4.28,43.85-2.59,65.9.77.5,1.53.99,2.3,1.49Z"/>
      <path class="cls-5" d="M814.42,1294.57c0-7.76-.16-13.11.03-18.45,1.18-33.67,3.04-67.33,3.47-101.01.28-21.7-1.44-43.43-2.45-65.13-.13-2.75-1.4-5.44-2.32-8.77-25.01,5.21-48.45-1.31-72.29-7.48-.54,2.3-1.3,3.7-1.09,4.94,6.25,37.53,12.39,75.08,19.02,112.54,2.79,15.77,8.04,30.87,15.9,44.93,8.87,15.86,21.15,28.26,39.75,38.44Z"/>
      <path class="cls-5" d="M923.78,1093.73c-25.05,5.89-48.82,13-73.89,7.22-.79,2.15-1.61,3.42-1.69,4.74-2.08,31.84-3.74,63.6-1.05,95.59,2.13,25.25,1.67,50.71,2.41,76.08.13,4.58.52,9.16.93,15.91,5.26-2.93,9.12-4.58,12.4-7.01,17.57-13,29.05-30.71,35.06-51.22,5.9-20.12,9.92-40.84,13.77-61.48,4.58-24.58,8.1-49.35,12.04-74.05.22-1.36.03-2.78.03-5.78Z"/>
      <path class="cls-5" d="M748.45,455.5c-3.77,13.08-6.95,24.11-10.47,36.31,3.4,2.47,6.91,5.49,10.84,7.81,31.34,18.47,54.49,44.6,68.82,77.65,6.97,16.08,9.92,33.89,14.56,50.44.25-.78,1.23-2.78,1.49-4.87,6.99-54.96,36.29-95.14,82.23-124.31,10.04-6.37,9.89-6.28,6.26-18.12-2.52-8.22-4.5-16.61-7.03-26.08-3.61,2.1-6.64,3.81-9.63,5.6-15.53,9.34-30.84,19.07-46.63,27.95-20.89,11.74-43.4,12.15-65.17,4.27-10.09-3.65-18.5-12.34-27.21-19.32-5.88-4.71-10.95-10.43-18.04-17.32Z"/>
      <path class="cls-5" d="M811.85,882.65c-5.11,2.34-9.65,4.2-13.98,6.48-3.52,1.85-6.83,4.13-10.14,6.35-6.24,4.18-12.72,4.65-19.66,1.9-9.44-3.74-18.88-7.49-28.47-10.81-8.69-3.01-9.52-2.39-12.4,6.44-5.21,15.94-8.53,32.29-9.31,49.02-.75,16.1,5.06,30.61,12.63,44.42,1.26,2.29,4.07,4.3,6.6,5.23,10.19,3.75,20.55,7.07,30.87,10.47,5.86,1.93,11.29.96,16.69-2.1,7.55-4.28,15.29-8.27,23.13-12,3.63-1.73,5.82-3.9,6.25-8.02,3.17-30.74,4.42-61.47-.16-92.19-.15-1.03-.77-1.99-2.06-5.2Z"/>
      <path class="cls-5" d="M931.78,884.46c-4.58,1.39-9.02,2.63-13.39,4.1-4.11,1.39-8.33,2.66-12.17,4.64-13.73,7.05-26.63,7.88-39.19-2.94-3.92-3.38-9.37-4.99-15.49-8.12-1.26,4.99-3,8.7-3,12.41.03,27.12.46,54.24.67,81.36.06,7.63,4.01,11.49,10.96,14.16,6.7,2.57,12.93,6.47,19.12,10.19,4.67,2.81,9.41,3.73,14.53,2.13,10.7-3.34,21.54-6.39,31.94-10.5,3.58-1.42,6.88-5.19,8.88-8.7,7.87-13.82,11.5-28.72,10.69-44.79-.84-16.84-5.32-32.82-10.25-48.74-.5-1.61-1.85-2.95-3.31-5.18Z"/>
      <path class="cls-5" d="M838.29,2108.44c8.74-26.9,15.08-53.6,8.25-82-4.91-20.42-9.87-40.95-12.76-61.72-5.57-40.02-2.45-79.63,10.25-118.18,6.8-20.66,14.04-41.18,21.33-61.67,4.59-12.89,3.03-24.93-3.88-36.49-5.76-9.65-11.51-19.31-17.4-28.88-1.23-2-3.08-3.62-5.72-6.67-1.04,5.3-1.81,9.07-2.52,12.85-6.32,33.85-13.06,67.63-18.85,101.58-10.41,61.03-9.3,121.95,2.76,182.73,6.47,32.59,12.31,65.31,18.53,98.44Z"/>
      <path class="cls-5" d="M851.35,754.48c-1.12,3.34-2.5,5.93-2.83,8.65-3.86,31.84-4.26,63.64.75,95.44,1.08,6.84,4.12,10.97,10.42,13.84,7.23,3.29,14.12,7.44,20.88,11.65,4.04,2.51,7.77,3.21,12.3,1.61,10.6-3.75,21.26-7.35,31.99-10.73,4.32-1.36,6.15-4.04,7.54-8.25,5.74-17.36,3.65-34.49-1.29-51.41-3.35-11.48-7.86-22.61-11.8-33.91-1.58-4.52-4.3-7.76-9.4-7.58-20.21.72-37.34-7.73-53.98-17.76-.9-.54-2.03-.7-4.57-1.54Z"/>
      <path class="cls-5" d="M812.36,753.71c-4.9,2.68-8.68,4.72-12.42,6.81-13.8,7.68-28.17,13.48-44.33,13.11-5.82-.13-9.73,2.24-11.47,7.92-5,16.28-10.49,32.42-14.9,48.86-3.28,12.2-1.06,24.51,2.02,36.58,1.07,4.21,3.39,6.76,7.78,8.1,9.71,2.97,19.28,6.39,28.85,9.8,5.82,2.08,10.97,1.92,16.45-1.69,6.95-4.57,14.39-8.44,21.86-12.11,4.32-2.12,7.04-4.93,7.68-9.68,4.57-33.98,4.67-67.99.44-102-.17-1.36-.89-2.64-1.95-5.7Z"/>
      <path class="cls-5" d="M981.51,1048.55c-11.18,5.69-23.4,10.95-30.95,20.93-6.56,8.66-11.19,19.76-13.5,30.46-5.18,24.08-8.46,48.57-12.39,72.91-4.63,28.68-9.14,57.37-21.66,84.05-1.01,2.16-.54,5.6.42,7.96,1.05,2.57,3.43,4.62,5.33,6.82,1.38,1.6,2.9,3.07,5.17,5.45,1.94-2.89,3.77-4.98,4.89-7.4,17.28-37.04,39.9-70.77,64.18-103.44,4.21-5.66,5.9-10.88,4.65-18.02-3.46-19.64-6.75-39.37-5.55-59.47.41-6.87.94-13.74,1.33-20.61.34-6.06.56-12.12.83-18.18-.92-.48-1.84-.96-2.75-1.45Z"/>
      <path class="cls-5" d="M749.27,1277.6c3.74-4.17,6.29-7.19,9.03-10.02,3.78-3.91,4.19-8.02,1.73-12.86-11.66-22.99-15.67-48.09-19.75-73.12-3.78-23.23-7.6-46.46-10.65-69.79-1.88-14.42-9.66-26.4-14.48-39.59-.7-1.93-2.29-3.86-3.99-5.04-10.02-6.93-20.19-13.63-32.54-21.9.78,11.61.95,20.45,2.05,29.17,2.77,21.85.44,43.36-3.54,64.81-.2,1.07-.45,2.13-.73,3.18-2.77,10.5.02,18.69,6.8,27.73,23.49,31.3,45.24,63.84,61.47,99.7,1.01,2.23,2.5,4.24,4.59,7.74Z"/>
      <path class="cls-5" d="M931,1002.2c-9.79,3.48-18.37,6.24-26.73,9.56-12.82,5.09-24.52,4.14-35.9-4.19-5.08-3.72-10.72-7.44-19.16-7.02-1.36,7.24-3.23,14.49-4.01,21.85-1.56,14.74-3.51,29.54-3.48,44.32.04,18.35,5.74,23.3,24.31,24.13,19.84.89,38.89-3.57,57.67-9.25,2.78-.84,5.51-3.37,7.26-5.83,8.09-11.37,11.52-24.1,9.6-38.02-1.62-11.78-3.55-23.51-9.57-35.55Z"/>
      <path class="cls-5" d="M732.64,1002.07c-9.26,19.58-12.18,38.6-8.03,57.66,2.48,11.4,8.38,22.36,22.89,24.26,14.31,1.88,28.47,4.82,42.76,6.79,4.58.63,9.43.08,14.06-.62,12.57-1.9,15.03-4.64,16.74-17.34,2.41-17.82-.5-35.33-3-52.87-.67-4.66-1.17-9.36-2.22-13.93-1.22-5.31-3.7-6.77-8.68-4.57-5.94,2.62-11.72,5.73-17.22,9.19-7.24,4.55-14.72,5.81-22.82,3.21-7.91-2.54-15.81-5.16-23.68-7.81-3.33-1.12-6.61-2.43-10.8-3.98Z"/>
      <path class="cls-5" d="M630.2,531.38c9.66,8.47,18.39,16.55,27.65,23.95,2.42,1.94,6.61,2.71,9.84,2.41,13.33-1.24,26.6-4.34,39.91-4.46,29.42-.27,58.79,1.13,85.92,14.82,1.29.65,2.64,1.21,4.02,1.61.6.17,1.34-.17,3.46-.5-5.24-7.42-9.7-14.71-15.11-21.21-15.46-18.6-34.19-33.32-55.13-45.4-8.84-5.1-18.25-5.42-27.41-2.96-24.93,6.71-49.06,15.59-71.02,29.55-.86.54-1.46,1.49-2.13,2.19Z"/>
      <path class="cls-5" d="M1034.54,530.65c-10.42-5.39-20.32-11.4-30.9-15.77-13.71-5.66-27.83-10.41-42.01-14.8-11.21-3.47-21.94-1.77-32.32,4.47-25.28,15.18-46.54,34.44-62.82,59.09-.76,1.16-1.24,2.51-1.77,3.81-.09.23.24.62.82,2,2.8-1.02,5.75-1.91,8.53-3.15,16.42-7.36,33.69-10.48,51.57-12.05,23.69-2.07,47.02-.62,70.25,3.86,4.3.83,7.53-.23,10.82-3.24,8.5-7.77,17.35-15.16,27.81-24.21Z"/>
      <path class="cls-5" d="M664.02,1141.05c1.48-9.35,3.46-17.74,4.03-26.22,1.84-27.23-.61-54.29-4-81.3-.5-4-1.63-7.34-6.32-7.21-20.98.6-40.73-5.48-60.54-11.48-2.83,28.16,32.12,94.53,66.84,126.2Z"/>
      <path class="cls-5" d="M1065.14,1015.75c-3.05.69-6.14,1.18-9.1,2.09-15.27,4.73-30.67,8.49-46.84,8.44-7.76-.03-8.44.61-9.75,8.6-1.28,7.85-1.96,15.8-2.68,23.73-2.25,24.92-3.67,49.83,1.47,74.6.43,2.08,1.13,4.1,1.74,6.27,27.8-17.51,70.48-97.93,65.15-123.73Z"/>
      <path class="cls-5" d="M959.81,1791.86c0-5.74.28-9.18-.05-12.56-1.81-19.07-3.88-38.12-5.59-57.2-.41-4.59-1.36-8.59-5.31-11.29-13.1-8.93-22.57-21.27-31.85-33.79-1.66-2.25-3.6-4.29-6.75-8.03-1.5,4.37-2.89,7.13-3.37,10.04-2.21,13.57-4.06,27.2-6.25,40.77-2.55,15.77,1.17,29.02,13.26,40.28,13.34,12.43,28.74,21.33,45.9,31.77Z"/>
      <path class="cls-5" d="M695.95,1792.14c18.37-10.78,34.8-19.95,48.32-33.32,9.58-9.48,14.14-20.77,11.89-34.54-2.1-12.89-3.61-25.87-5.54-38.79-.4-2.7-1.54-5.29-5-9.64-.71,1.68-1.05,3.7-2.2,4.99-11.06,12.47-21.96,25.11-33.55,37.08-5.11,5.28-7.8,10.52-8.3,18-1.04,15.91-3.28,31.74-5,47.6-.22,2.07-.3,4.16-.61,8.61Z"/>
      <path class="cls-5" d="M822.67,1712.81c-8.61,9.75-17.19,19.54-25.85,29.25-4.11,4.61-5.83,9.68-4.83,15.97,3.43,21.44,6.58,42.93,11.63,64.48,6.96-36.31,13.92-72.63,20.88-108.94l-1.83-.76Z"/>
      <path class="cls-5" d="M830.05,1300.95c6.62-2.06,6.19-5.69,6.13-8.81-.48-26.83-.71-53.68-1.76-80.49-1.25-31.88-3.52-63.73,1.18-95.54.89-6.05.77-12.25,1.11-18.19-8.64-3.02-10.62-1.83-10.07,5.83.46,6.51,1.19,13,1.91,19.48,3.13,28.24,1.87,56.44.4,84.75-1.45,27.88-.96,55.87-1.12,83.81-.02,2.92,1.38,5.85,2.22,9.16Z"/>
      <path class="cls-5" d="M827,864.91h9.73c-.16-3.15-.15-5.61-.43-8.04-4.09-35.07-4.44-70.04,2.78-104.82.49-2.36.6-5.15-.18-7.37-1.88-5.39-4.39-10.56-7.22-17.16-4.58,11.24-8.36,20.61-6,32.63,6.31,32.19,6.36,64.75,1.35,97.24-.32,2.07-.04,4.23-.04,7.51Z"/>
      <path class="cls-5" d="M837.1,982.27c-3.77-34.56-5-68.42,2.32-103.19h-13.93c-.35,1.82-.9,2.93-.71,3.9,5.93,30.83,5.64,61.78,2.07,92.83-.82,7.15.17,7.75,10.25,6.47Z"/>
      <path class="cls-5" d="M811.6,2041.05c-3.39,34.76,6.19,67.82,13.02,101.24.69-34.41-5.64-67.89-13.02-101.24Z"/>
      <path class="cls-5" d="M832.93,1019.48c.88-5.52,2.04-11.02,2.46-16.57.11-1.39-2.15-2.96-3.33-4.45-1.23,1.5-3.56,3.05-3.48,4.48.29,5.53,1.36,11.02,2.13,16.52.74.01,1.48.02,2.22.03Z"/>
      <path class="cls-1" d="M1797.95,279.11c10.51-71.07-48.49-128.92-105.27-138.7-37.89-6.53-72.39,2.75-101.84,27.43-10.99,9.21-20.79,20.4-29.12,32.12-14.29,20.1-20.88,43.02-18.7,67.94.57,6.56-.3,11.14-6.84,15.31-4.58,2.91-8.35,9.59-9.38,15.16-6.43,34.77-1.64,67.3,22.47,94.89,5.87,6.72,10.12,13.96,13.1,22.32,2.92,8.17,6.58,16.12,10.48,23.89,2.06,4.09,3.58,7.87,2.13,12.4-2.99,9.33-5.88,18.69-8.95,28-1.78,5.39-4.79,8.07-11.35,7.36-6.36-.69-13.09.08-19.42,1.37-19.67,4-38.6,10.41-56.17,20.21-6.3,3.51-12.74,7.38-17.74,12.44-6.01,6.09-12.86,8.86-20.91,10.36-30.47,5.66-59,16.51-82.99,36.35-31.52,26.06-46.1,59.77-41.5,101.09,2.88,25.88,10.67,50.4,20.31,74.39,3.98,9.9,6.07,19.85,6.64,30.58,1.6,29.83,7.2,59.13,14.9,87.93,10.08,37.67,23.86,74,43.57,107.8,6.39,10.96,14.16,21.1,20.97,31.83,2.26,3.56,4.73,7.69,4.98,11.7,1.84,29.06,12.79,55.03,26.65,79.96,10.25,18.45,21.86,36.12,36.4,51.51,6.13,6.49,6.9,12.2,3.47,20.38-15.62,37.26-27.87,75.66-36.68,115.09-6.35,28.44-8.9,57.4-9.63,86.47-.53,21.06-.35,42.15-.08,63.22.84,66.29,14.79,129.7,42.68,189.9,12.67,27.35,25.88,54.46,38.92,81.64,6.49,13.54,8.04,28.12,6.58,42.54-2.18,21.64-6.46,43.05-9.25,64.64-2.6,20.14-6.57,40.44-6.02,60.56.69,25.28,4.37,50.62,8.51,75.64,8.42,50.9,19.63,101.25,33.78,150.9,5.22,18.3,6.86,37.1,8.26,55.92.31,4.17-.4,8.87-2.1,12.67-24.05,53.94-59.37,98.76-108.34,132.3-5.68,3.89-11.94,6.92-17.74,10.66-8.74,5.65-9.4,11.19-1.92,18.44,11.16,10.82,24.8,17.56,39.18,23.03,35.26,13.42,71.36,16.2,108.15,8.07,24.81-5.48,49.52-11.44,74.18-17.57,5.89-1.46,11.22-1.29,17.07.1,27.54,6.54,55.08,13.21,82.81,18.85,39.5,8.04,77.34,1.29,113.5-15.55,7.82-3.64,15.12-8.72,21.96-14.05,11.78-9.18,11.15-15.4-1.45-23.02-5.9-3.57-12.1-6.72-17.7-10.72-39.02-27.93-70.21-62.87-93.23-105.03-2.44-4.46-4.23-9.32-7-13.55-8.14-12.4-7.91-25.9-6.59-39.89,2.38-25.13,9.87-49.07,16.05-73.33,12.73-50.01,22.94-100.54,30.67-151.56,6.3-41.56,1.33-82.47-6.59-123.38-3.37-17.38-4.7-35.23-5.81-52.94-.77-12.37,1.85-24.46,7.43-35.87,12.43-25.46,24.42-51.13,36.71-76.66,23.6-49.01,37.24-100.93,42.08-154.81,3.15-35.02,4.55-70.33,1.32-105.57-2.02-22.04-2.79-44.27-6.22-66.08-6.64-42.16-20.68-82.34-35.66-122.16-8.42-22.36-10.57-16.2,6.22-37.09,24.58-30.59,44.34-63.84,53.23-102.6,1.54-6.7,1.96-13.66,3.43-20.39.9-4.12,1.98-8.64,4.41-11.91,36.75-49.39,58.01-105.47,70.45-165.06,4.95-23.73,6.64-48.14,10.31-72.16,1.14-7.44,3.35-14.83,6.02-21.89,10.17-26.94,19.07-54.2,20.75-83.18.46-7.86.01-16.03-1.59-23.72-7.52-36.21-27.37-63.41-60.05-81.35-19.95-10.95-40.8-19.01-63.16-23.05-8.07-1.46-15.4-3.62-20.9-10.32-2.25-2.74-5.43-4.86-8.51-6.73-23.54-14.36-48.77-24.09-76.27-27.44-2.15-.26-4.34-.41-6.51-.36-11.07.3-11.08.33-14.95-9.58-.92-2.37-1.62-4.83-2.59-7.17-5.79-13.94-8.87-27.71,2.14-40.76.23-.27.38-.63.48-.97,4.84-17.07,14.1-31.34,25.61-44.86,11.42-13.42,14.27-30.88,16.19-47.89,1.17-10.35.92-21.02-.12-31.41-1.12-11.25-5.5-21.21-18.26-25.06ZM1684.99,2156.25c-2.54-16.57-3.99-31.03-7.08-45.13-8.32-37.95-17.4-75.74-26.08-113.62-7.63-33.3-14.66-66.73-15.79-101.01-1.26-38.2,1.66-76.18,6.36-114.09,2.99-24.13,12.7-45.28,26.34-64.85,16.72-23.99,39.95-32.31,68.44-27.33,16.86,2.95,31.13,11.63,45.7,19.83,8.97,5.05,15.22,10.63,11.5,22.21-1.06,3.3-.64,7.27-.19,10.84,2.31,18.36,4,36.85,7.49,54.99,7.2,37.38,10.6,74.82,4.64,112.62-8.27,52.4-18.95,104.32-32.58,155.6-6.91,25.97-14.89,51.7-15.16,78.94-.02,1.69-.94,3.37-1.95,6.78-23.84-4.92-47.4-2.11-71.63,4.21ZM1881.69,1380.07c0,11.62-.68,23.29.2,34.84.8,10.6-4.07,15.55-13.1,19.6-27.26,12.21-55.89,12.51-84.46,9.24-51.42-5.9-92.92-33.28-132.22-64.53-2.51-2-4.74-5.91-4.91-9.05-1.24-22.81-2.56-45.65-2.58-68.49-.01-23.73,4.15-46.94,12.82-69.21,6.45-16.57,13.05-33.11,18.87-49.91,3.05-8.82,7.49-16.52,13.8-23.16,23.89-25.15,52.89-41.5,86.37-50.27,7.76-2.03,12.64.1,17.55,6.6,8.73,11.54,17.95,22.92,28.34,32.93,7.84,7.55,13.99,15.53,17.41,25.73,5.89,17.55,11.8,35.08,17.68,52.64,16.62,49.66,25.11,100.62,24.24,153.05ZM1670.58,451.12c-23.09-1.58-46.57-2.63-69.72-8.07-11.09-2.61-18.2-8.24-22.13-18.55-1.55-4.07-3.01-8.18-4.69-12.19-2.46-5.88-3.22-11.75-1.31-18.01,4.45-14.63,3.96-29.56.68-44.17-4.77-21.22-9.85-42.43-16.18-63.23-5.07-16.68-4.91-32.77-.3-49.28,3.87-13.86,10.16-26.51,18.98-37.71,28.11-35.69,64.55-54.75,110.27-47.95,48.32,7.19,80.46,36.37,97.25,81.97,6.3,17.1,6.18,34.79.95,52.46-4.74,16-9.39,32.05-13.24,48.28-4.87,20.57-8.44,41.29-1.82,62.37,1.1,3.51.38,8.02-.74,11.69-2,6.57-4.88,12.88-7.52,19.24-3.32,8-9.39,12.09-17.83,14.32-23.72,6.27-47.95,7.41-72.67,8.83ZM1658.79,1710.43c0-12.64.34-22.39-.1-32.11-.44-9.78-1.19-19.6-2.64-29.28-4.72-31.59-10.31-63.06-14.67-94.7-5.88-42.67-6.73-85.42,1.32-128,2.05-10.83,4.32-21.62,6.74-33.68,3.24,2.64,4.87,4.04,6.57,5.35,26.32,20.31,54.57,37.35,85.74,49.07,25.9,9.74,52.84,11.94,80.4,10.5,16.88-.88,33.25-2.7,48.76-9.8,2.74-1.25,5.81-1.8,10.63-3.23-.89,10.1-1.44,18.33-2.36,26.53-5.39,48.36-17.12,95.05-37.66,139.28-11.01,23.72-22.78,47.09-34.03,70.69-3.84,8.05-7.16,16.34-10.94,25.03-3.13-2.04-5.44-3.75-7.93-5.12-10.8-5.94-21.24-12.77-32.56-17.48-32.74-13.62-71.57-7.1-93.85,21.63-.88,1.14-1.57,2.43-3.42,5.33ZM1669.3,591.02c1.03-.02,2.06-.05,3.09-.07,1.59-2.7,3.48-5.26,4.72-8.11,15.27-35.23,41.55-59.79,74.92-77.47,14.71-7.79,30.63-8.92,46.67-6.91,8.37,1.05,17.04,2.57,25.2,7.63-1.89,2.31-3.04,4.12-4.56,5.51-28.07,25.59-43.9,58.13-54.15,94.04-7.02,24.58-9.82,49.8-12.53,75.05-1.16,10.8-2.69,21.81-1.69,32.51.86,9.21-1.82,15.79-7.03,22.77-17.85,23.9-34.08,48.88-45.31,76.67-5.98,14.79-11.08,29.94-16.48,44.96-2.33,6.48-4.36,13.08-11.08,17.32-1.53-1.1-3.49-1.82-4.25-3.2-2.78-5.03-5.89-10.06-7.58-15.5-12.83-41.27-31.06-79.83-57.28-114.31-7.68-10.09-14.89-19.78-10.77-33.43.2-.66.02-1.45-.06-2.17-3.23-26.63-5.16-53.5-10-79.84-8.09-44.06-25.27-84.03-58.99-115.28-1.43-1.32-2.23-3.33-3.33-5.04,17.64-10.48,51.08-11.6,70.99-.84,32.51,17.56,58.34,41.6,73.95,75.69,1.59,3.47,3.71,6.69,5.58,10.03ZM1459.42,1390.75c-.15-33.83,1.8-67.54,8.26-100.79,8.05-41.47,21.37-81.46,36.29-120.89,2.23-5.91,6.54-11.26,10.72-16.15,10.6-12.38,22.33-23.84,32.32-36.66,5.64-7.23,11.01-9.09,19.5-6.83,26.44,7.02,50.18,19.23,70.94,36.88,7.69,6.54,14.32,14.4,21.04,22,5.78,6.55,6.82,13.72,2.86,22.15-5.85,12.48-11,25.33-15.84,38.24-3.43,9.15-6.54,18.53-8.62,28.07-7.51,34.43-7.34,69.23-3.17,104.02.98,8.17-.34,13.77-7.74,18.25-7.11,4.3-13.55,9.76-20.14,14.89-15.04,11.71-31.51,20.67-49.56,26.89-17.29,5.95-35.1,9.39-53.21,10.84-10.82.87-21.81.63-32.65-.18-9.71-.72-10.87-2.65-10.98-12.4-.11-9.44-.02-18.89-.02-28.33ZM1543.18,1700.18c5.65-1.18,10.5-2.71,15.44-3.15,32.51-2.85,59.03,13.23,73.29,43.89,2.42,5.21,2.95,10.18,1.84,15.8-2.18,11.03-4.44,22.11-5.51,33.29-2.13,22.39-4.36,44.83-4.91,67.29-.54,22.08-1.22,44.53,2.03,66.24,5.54,36.92,13.89,73.43,21.48,110.03,6.93,33.4,14.56,66.66,21.54,100.06,1.6,7.63,2.93,15.59-.76,24.38-13.99-2.62-27.7-6.2-41.62-7.5-13.79-1.29-27.79-.28-42.36-.28-.87-23.99-5.26-46.37-11.51-68.42-15.26-53.87-26.78-108.58-35.52-163.83-2.94-18.58-5.28-37.63-4.46-56.32.98-22.37,5.12-44.67,8.83-66.84,4.93-29.51,8.97-58.91,2.23-88.66-.3-1.35-.04-2.82-.04-5.98ZM1461.8,1444.01c22.38,2.15,43.28.96,64.03-2.52,20.92-3.51,41.43-9.11,59.59-20.05,17.82-10.73,34.36-23.59,51.45-35.51.75,1.1,1.54,1.72,1.47,2.22-.53,3.57-1.04,7.16-1.91,10.66-9.25,37.58-15.46,75.63-12.05,114.37,2.67,30.33,6.82,60.6,11.75,90.66,4.65,28.35,9.04,56.66,9.43,85.41.18,13.28-2.98,26.11-6.86,40.82-24.04-39.97-57.74-51.67-100.51-41.96-1.61-2.81-3.36-5.51-4.76-8.38-9.55-19.59-18.92-39.27-28.55-58.81-23.55-47.8-36.47-98.63-42.94-151.24-.96-7.78-.13-15.77-.13-25.66ZM1678.72,887.21c10.64-9.37,14.75-21.28,18.5-33.45,11.56-37.47,29.69-71.57,52.17-103.63,5.84-8.32,12.28-12.85,22.14-12.24,4.26.26,8.76.66,12.63,2.25,9.39,3.84,18.53,8.31,27.67,12.73,17.43,8.43,34.89,16.58,55.15,12.09.54-.12,1.25.58,3.19,1.56,0,3.22.15,7.1-.03,10.97-.72,15.58-2.36,31.17-2.16,46.73.34,25.73.01,51.69,3.51,77.07,2.24,16.19-.52,26.98-12.4,38.18-39,36.8-62.11,82.53-72.07,135.07-.42,2.24-1.63,4.33-3.05,7.99-5.95-8.63-8.3-16.96-10.57-25.22-6.83-24.84-13.43-49.74-20.05-74.64-8.31-31.24-25.65-56.64-50.26-77.2-7.19-6.01-15-11.27-24.4-18.27ZM1662.48,887.68c-4.85,3.4-8.06,5.63-11.25,7.9-27.56,19.7-49.03,44.24-59.62,76.95-5.14,15.86-9.14,32.09-13.63,48.16-4.39,15.72-8.59,31.5-13.22,47.15-1.46,4.92-3.07,10.13-8.42,14.48-.89-4.01-1.53-6.73-2.09-9.47-9.43-46.53-28.78-88.12-61.49-123.01-5.96-6.35-11.75-12.89-18.04-18.9-5.84-5.58-7.14-11.49-5.79-19.56,5.93-35.59,6.79-71.43,3.99-107.4-1-12.88-1.27-25.82-1.87-38.78,1.99-.36,3.1-.91,4.02-.68,14.07,3.53,27.33,1.08,40.15-5.16,6.85-3.33,13.76-6.53,20.69-9.69,7.59-3.46,14.96-7.91,22.94-9.87,7.12-1.75,15.15-1.81,22.36-.44,3.7.7,6.92,5.86,9.62,9.54,19.4,26.48,35.47,54.76,46.99,85.63,6.66,17.84,9.48,37.4,24.65,53.14ZM1564.28,1096.98c14.11-22.03,18.56-45.69,24.61-68.8,3.95-15.09,7.78-30.22,11.93-45.26,9.87-35.72,32.77-61.62,62.37-82.5,5.12-3.61,9.49-4.06,14.79-.23,28.61,20.65,52.03,45.28,61.94,80.26,4.55,16.05,8.59,32.25,12.84,48.39,5.91,22.43,10.64,45.27,22.74,65.56.27.46-.2,1.35-.49,2.96-41.25,9.69-76.26,30.85-104.55,64.64-14.1-17.29-29.46-30.98-47.37-41.67-17.85-10.66-36.77-18.66-58.82-23.34ZM1449.21,2318.2c7.49-4.81,13.03-8.1,18.28-11.8,47.73-33.58,84.29-76.53,107.4-130.3,3.8-8.83,9.18-12.06,17.97-12.48,18.92-.9,37.7-1.15,56.27,3.93,11.5,3.14,11.63,2.6,11.79,14.19.28,20.34.77,40.69.81,61.03.04,25.04-.4,50.08-.42,75.12,0,6.58-2.88,9.83-9.23,11.26-13.46,3.03-26.8,6.56-40.2,9.83-27.27,6.65-54.75,11.33-83.02,9.05-21.68-1.75-42.04-8.02-61.32-17.78-5.73-2.9-10.83-7.07-18.31-12.06ZM1891.29,2318.77c-6.22,4.12-11.58,8.38-17.54,11.49-33.01,17.28-68.41,22.01-104.72,16.4-25.75-3.98-51.08-10.81-76.52-16.71-10.92-2.53-12.23-4.57-12.91-15.58-.2-3.26-.24-6.53-.2-9.8.53-41.37,1.05-82.74,1.65-124.11.14-9.85.95-9.94,11-12.8,18.15-5.16,36.55-4.72,55.11-4.23,10.37.28,16.23,4.38,20.3,14.23,17.82,43.13,46.35,78.64,81.17,109.12,12.75,11.16,27.14,20.45,42.65,31.98ZM1441.2,697.25c.82,4.56,1.52,7.69,1.94,10.86,2.11,15.95,5.61,31.35,14.83,45.04,1.84,2.73,2.09,6.82,2.26,10.33.47,9.42.1,18.88.77,28.28,2.99,41.76,2.46,83.36-5.27,124.63-3.81,20.32-7.94,40.62-16.86,59.5-2.21,4.68-3.87,10.08-10.32,13.05-5.7-8.76-11.74-16.91-16.61-25.72-22.62-40.9-39.31-84.11-48.32-130.03-3.97-20.24-6.37-40.8-9.38-61.23-.88-5.96.55-11.05,4.4-16.17,13.68-18.17,29.69-33.73,48.92-45.86,9.85-6.21,20.65-10.19,33.66-12.69ZM1911.59,989.6c-8.14-9.91-12.03-19.62-15.16-29.63-8.72-27.81-15.06-56.33-15.84-85.35-1.03-38.03.54-76.13,1.22-114.2.05-3.07,1.32-6.46,2.99-9.09,7.37-11.61,11.04-24.34,12.73-37.83.66-5.27,1.78-10.49,2.85-16.62,4.69,1.27,8.16,2.04,11.52,3.14,29.13,9.57,50.08,29.74,68.92,52.83,5.36,6.56,7.92,13.1,6.88,21.76-5.09,42.28-13.25,83.83-28.34,123.79-10.66,28.22-22.54,55.87-39.78,80.86-2.2,3.19-4.73,6.15-8,10.35ZM1350.66,744.47c-1.75-3.36-2.92-5.16-3.68-7.13-8.76-22.72-16.06-45.76-19.16-70.11-3.95-31.05,6.2-57.29,26.46-79.81,17.98-19.99,41.83-30.92,66.97-38.97,33.87-10.84,68.04-7.97,102.18-1.28,1.59.31,3.05,1.3,4.93,2.13-1.13,2-1.67,3.36-2.55,4.45-15.63,19.24-32.84,36.77-53.99,50.08-6.44,4.05-12.73,8.38-18.83,12.92-7.28,5.42-12.14,12.61-12.92,21.83-.79,9.37-1.22,18.79-1.39,28.19-.1,6.04.56,12.1.95,19.45-37.53,6.64-64.16,29.66-88.97,58.24ZM1991.07,742.87c-.63-.11-1.11-.05-1.3-.25-2.25-2.35-4.43-4.75-6.67-7.1-18.18-19.07-37.67-36.24-63.36-44.68-5.76-1.89-13.63-2.83-16.34-6.96-2.74-4.19-.52-11.79-.08-17.87,1.82-25.24-3.08-47.13-28.66-59.05-.65-.3-1.21-.8-1.82-1.18-21.23-13.12-39.17-29.9-54.75-49.27-1.69-2.1-2.87-4.62-5.43-8.82,13.14-1.78,24.52-3.36,35.91-4.87,46.99-6.2,89.54,5.56,127.05,33.79,26.94,20.28,39.79,48.69,38.66,82.4-.95,28.65-10.44,55.45-21.23,81.73-.36.88-1.36,1.51-1.95,2.14ZM1801.1,554.16c1.23.8,2.02,1.06,2.41,1.6,19.17,27.03,42.68,49.47,71.19,66.44,10.89,6.48,14.82,15.92,15.29,28.1.84,21.95-2.02,43.51-5.97,64.95-1.43,7.76-3.55,15.65-6.89,22.76-6.42,13.66-18.13,18.69-32.51,14.23-8.97-2.79-17.78-6.43-26.21-10.59-16.52-8.15-32.32-18.1-51.39-17.65-11.32-30.14,9.75-134.94,34.09-169.84ZM1574.93,723.06c-7.85,1.6-14.85,2.09-21.12,4.5-10.14,3.89-19.73,9.2-29.7,13.59-8.96,3.95-17.89,8.17-27.22,11-15.1,4.59-26.51-.73-32.95-15.19-3.06-6.88-5.31-14.37-6.46-21.81-2.6-16.85-4.87-33.8-6.17-50.79-1.48-19.36,1.54-37.24,22.03-46.5.98-.44,1.8-1.23,2.72-1.8,23.47-14.63,42.48-33.94,58.86-56.03,1.46-1.97,3.03-3.87,4.63-5.89,24.03,27.04,47.01,138.59,35.37,168.92ZM1765.4,486.18c-9.7,4.47-19.21,8.07-27.9,13.08-9.08,5.24-17.77,11.35-25.88,18-7.83,6.41-15.14,13.6-21.89,21.16-6.83,7.65-12.68,16.17-19.29,24.74-23.91-35.86-53.48-62.74-94.61-76.18,3.7-12.56,7.24-24.56,11.1-37.69,28.11,7.84,55.61,13.67,84.15,13.67,28.51,0,55.95-6.1,83.83-13.73,3.71,13.06,7.03,24.78,10.48,36.95ZM1463.36,941.75l2.58-.14c6.51,18.02,13.59,35.87,19.41,54.11,12.38,38.83,21.05,78.42,20.34,119.5-.12,7.04-1.47,14.05-2.24,20.97-2.18-.17-3.1.04-3.5-.32-1.86-1.7-3.7-3.44-5.31-5.38-16.8-20.2-30.34-42.45-41.01-66.42-7.87-17.66-13.32-35.96-13.99-55.53-.19-5.71,1.36-10.34,3.82-15.4,5.69-11.68,10.58-23.76,15.41-35.83,2-4.99,3.02-10.37,4.49-15.57ZM1841.31,1137.57l-2.59-.16c-.71-3.42-2.01-6.83-2.04-10.26-.12-14.12-.94-28.36.47-42.36,4.75-47.25,18.03-92.35,36.32-136.04.9-2.15,2.28-4.1,3.81-6.8,1.05,1.86,1.78,2.69,2.02,3.65,4.79,18.3,10.39,36.25,21.36,52.02.97,1.4,1.75,3.41,1.61,5.04-.8,9-1.07,18.17-3.06,26.93-9.39,41.31-31.4,75.9-57.9,107.98ZM1489.43,964.07c2.69,3.25,5.52,6.4,8.03,9.78,26.81,36.05,41.99,76.66,46.94,121.14.39,3.51-.97,7.94-3.05,10.85-5.46,7.65-11.69,14.76-17.79,21.94-1.15,1.35-3.05,2.06-5.89,3.89,3.56-59.02-10.49-113.37-28.25-167.6ZM1823.92,1130.77c-.85.31-1.7.62-2.55.93-6.67-8.02-13.24-16.14-20.06-24.03-3.88-4.5-4.77-9.47-4.04-15.16,5.91-45.93,22.19-87.57,51.06-124.05,1.32-1.66,2.17-3.69,3.23-5.55.83.59,1.66,1.19,2.49,1.78-19.75,53.61-33.91,108.23-30.13,166.08ZM1559.32,387.32c-21.54-27.47-27.04-56.59-20.67-88.41.55-2.75,3.11-5.09,5.06-8.13,12.65,18.4,22.77,78.76,15.61,96.53ZM1781.22,386.76c-5.12-22.81,5.81-82.89,17.14-95.55,9.21,10.67,7.32,23.38,6.52,35.21-1.47,21.82-5.38,43.11-23.66,60.33ZM1526.92,535.04c-19.16-2.14-36.71-4.11-54.27-6.08-.19-.91-.37-1.81-.56-2.72,9.22-4.79,18.35-9.77,27.73-14.19,1.83-.86,5.41-.45,6.91.85,7.26,6.3,14.09,13.1,20.18,22.13ZM1869.75,526.5c-.32.86-.63,1.71-.95,2.57-17.47,1.88-34.94,3.76-53.66,5.78,5.57-9.36,12.98-15.61,20.06-22.03,1.43-1.29,5.09-1.59,6.94-.7,9.35,4.5,18.44,9.53,27.62,14.38Z"/>
      <path class="cls-3" d="M1684.99,2156.25c24.22-6.32,47.79-9.13,71.63-4.21,1.01-3.41,1.93-5.09,1.95-6.78.27-27.24,8.25-52.97,15.16-78.94,13.64-51.28,24.32-103.2,32.58-155.6,5.97-37.8,2.56-75.24-4.64-112.62-3.49-18.14-5.18-36.63-7.49-54.99-.45-3.57-.87-7.54.19-10.84,3.73-11.58-2.53-17.17-11.5-22.21-14.58-8.2-28.84-16.88-45.7-19.83-28.49-4.98-51.72,3.34-68.44,27.33-13.64,19.57-23.35,40.72-26.34,64.85-4.69,37.91-7.62,75.9-6.36,114.09,1.13,34.28,8.16,67.72,15.79,101.01,8.68,37.88,17.76,75.66,26.08,113.62,3.09,14.1,4.53,28.56,7.08,45.13Z"/>
      <path class="cls-3" d="M1881.69,1380.07c.87-52.43-7.62-103.39-24.24-153.05-5.87-17.55-11.79-35.09-17.68-52.64-3.42-10.2-9.57-18.18-17.41-25.73-10.39-10.02-19.61-21.39-28.34-32.93-4.91-6.5-9.79-8.63-17.55-6.6-33.48,8.77-62.49,25.12-86.37,50.27-6.31,6.65-10.74,14.34-13.8,23.16-5.82,16.8-12.41,33.33-18.87,49.91-8.67,22.27-12.84,45.48-12.82,69.21.01,22.83,1.34,45.68,2.58,68.49.17,3.14,2.4,7.05,4.91,9.05,39.3,31.25,80.79,58.64,132.22,64.53,28.57,3.28,57.2,2.97,84.46-9.24,9.04-4.05,13.91-9,13.1-19.6-.88-11.55-.2-23.22-.2-34.84Z"/>
      <path class="cls-3" d="M1670.58,451.12c24.72-1.42,48.95-2.55,72.67-8.83,8.43-2.23,14.51-6.33,17.83-14.32,2.64-6.36,5.52-12.67,7.52-19.24,1.12-3.67,1.84-8.19.74-11.69-6.63-21.08-3.05-41.8,1.82-62.37,3.84-16.23,8.5-32.28,13.24-48.28,5.23-17.66,5.35-35.36-.95-52.46-16.79-45.6-48.93-74.78-97.25-81.97-45.72-6.8-82.16,12.27-110.27,47.95-8.83,11.2-15.11,23.86-18.98,37.71-4.62,16.51-4.78,32.59.3,49.28,6.33,20.8,11.41,42,16.18,63.23,3.28,14.61,3.77,29.55-.68,44.17-1.91,6.26-1.15,12.13,1.31,18.01,1.68,4.01,3.14,8.12,4.69,12.19,3.92,10.31,11.04,15.94,22.13,18.55,23.14,5.44,46.63,6.5,69.72,8.07Z"/>
      <path class="cls-3" d="M1658.79,1710.43c1.85-2.9,2.54-4.19,3.42-5.33,22.28-28.73,61.11-35.25,93.85-21.63,11.32,4.71,21.76,11.54,32.56,17.48,2.49,1.37,4.8,3.08,7.93,5.12,3.78-8.69,7.1-16.98,10.94-25.03,11.26-23.61,23.02-46.98,34.03-70.69,20.54-44.23,32.27-90.92,37.66-139.28.91-8.2,1.47-16.43,2.36-26.53-4.82,1.44-7.89,1.98-10.63,3.23-15.51,7.1-31.88,8.92-48.76,9.8-27.56,1.44-54.5-.76-80.4-10.5-31.17-11.72-59.42-28.76-85.74-49.07-1.7-1.31-3.33-2.7-6.57-5.35-2.42,12.06-4.7,22.85-6.74,33.68-8.04,42.58-7.19,85.33-1.32,128,4.36,31.64,9.94,63.11,14.67,94.7,1.45,9.68,2.19,19.5,2.64,29.28.44,9.72.1,19.47.1,32.11Z"/>
      <path class="cls-3" d="M1669.3,591.02c-1.87-3.34-3.99-6.56-5.58-10.03-15.61-34.08-41.44-58.12-73.95-75.69-19.91-10.76-53.35-9.63-70.99.84,1.11,1.71,1.9,3.71,3.33,5.04,33.72,31.24,50.9,71.22,58.99,115.28,4.83,26.34,6.77,53.21,10,79.84.09.72.26,1.51.06,2.17-4.11,13.65,3.1,23.34,10.77,33.43,26.22,34.48,44.45,73.04,57.28,114.31,1.69,5.43,4.8,10.46,7.58,15.5.76,1.38,2.73,2.09,4.25,3.2,6.72-4.24,8.75-10.84,11.08-17.32,5.4-15.02,10.5-30.17,16.48-44.96,11.24-27.79,27.46-52.77,45.31-76.67,5.21-6.97,7.89-13.56,7.03-22.77-1-10.7.53-21.71,1.69-32.51,2.71-25.25,5.51-50.47,12.53-75.05,10.25-35.91,26.08-68.45,54.15-94.04,1.53-1.39,2.68-3.21,4.56-5.51-8.15-5.06-16.83-6.58-25.2-7.63-16.04-2.01-31.96-.89-46.67,6.91-33.37,17.69-59.65,42.24-74.92,77.47-1.24,2.85-3.13,5.41-4.72,8.11-1.03.02-2.06.05-3.09.07Z"/>
      <path class="cls-3" d="M1459.42,1390.75c0,9.44-.08,18.89.02,28.33.11,9.75,1.27,11.68,10.98,12.4,10.84.8,21.83,1.04,32.65.18,18.11-1.45,35.92-4.89,53.21-10.84,18.05-6.22,34.52-15.18,49.56-26.89,6.59-5.13,13.02-10.59,20.14-14.89,7.41-4.48,8.72-10.08,7.74-18.25-4.17-34.79-4.34-69.58,3.17-104.02,2.08-9.53,5.19-18.91,8.62-28.07,4.84-12.92,9.98-25.76,15.84-38.24,3.95-8.43,2.92-15.6-2.86-22.15-6.72-7.61-13.35-15.46-21.04-22-20.76-17.65-44.49-29.86-70.94-36.88-8.49-2.26-13.87-.4-19.5,6.83-9.99,12.83-21.72,24.29-32.32,36.66-4.19,4.89-8.49,10.25-10.72,16.15-14.92,39.43-28.23,79.42-36.29,120.89-6.46,33.24-8.4,66.96-8.26,100.79Z"/>
      <path class="cls-3" d="M1543.18,1700.18c0,3.16-.27,4.64.04,5.98,6.73,29.75,2.7,59.15-2.23,88.66-3.71,22.17-7.85,44.47-8.83,66.84-.82,18.69,1.52,37.74,4.46,56.32,8.74,55.26,20.26,109.96,35.52,163.83,6.25,22.05,10.64,44.43,11.51,68.42,14.57,0,28.57-1.01,42.36.28,13.92,1.3,27.62,4.88,41.62,7.5,3.69-8.79,2.35-16.75.76-24.38-6.98-33.39-14.61-66.65-21.54-100.06-7.59-36.6-15.94-73.11-21.48-110.03-3.26-21.71-2.57-44.16-2.03-66.24.55-22.46,2.78-44.9,4.91-67.29,1.06-11.17,3.32-22.26,5.51-33.29,1.11-5.62.58-10.59-1.84-15.8-14.26-30.66-40.78-46.74-73.29-43.89-4.94.43-9.79,1.96-15.44,3.15Z"/>
      <path class="cls-3" d="M1461.8,1444.01c0,9.89-.82,17.89.13,25.66,6.47,52.61,19.39,103.44,42.94,151.24,9.63,19.55,19,39.23,28.55,58.81,1.4,2.87,3.15,5.56,4.76,8.38,42.77-9.7,76.47,2,100.51,41.96,3.88-14.71,7.04-27.55,6.86-40.82-.4-28.75-4.79-57.06-9.43-85.41-4.93-30.06-9.08-60.32-11.75-90.66-3.41-38.73,2.8-76.79,12.05-114.37.86-3.5,1.38-7.09,1.91-10.66.07-.5-.72-1.13-1.47-2.22-17.09,11.92-33.63,24.78-51.45,35.51-18.16,10.94-38.67,16.54-59.59,20.05-20.74,3.48-41.65,4.66-64.03,2.52Z"/>
      <path class="cls-3" d="M1678.72,887.21c9.4,7,17.21,12.26,24.4,18.27,24.61,20.56,41.95,45.96,50.26,77.2,6.62,24.9,13.22,49.8,20.05,74.64,2.27,8.26,4.62,16.59,10.57,25.22,1.43-3.66,2.63-5.75,3.05-7.99,9.96-52.54,33.07-98.27,72.07-135.07,11.87-11.21,14.63-21.99,12.4-38.18-3.5-25.38-3.18-51.34-3.51-77.07-.2-15.56,1.43-31.15,2.16-46.73.18-3.87.03-7.75.03-10.97-1.94-.98-2.66-1.68-3.19-1.56-20.27,4.48-37.72-3.67-55.15-12.09-9.14-4.42-18.28-8.89-27.67-12.73-3.88-1.59-8.38-1.99-12.63-2.25-9.87-.61-16.31,3.92-22.14,12.24-22.49,32.06-40.61,66.16-52.17,103.63-3.75,12.17-7.86,24.08-18.5,33.45Z"/>
      <path class="cls-3" d="M1662.48,887.68c-15.17-15.73-17.99-35.3-24.65-53.14-11.52-30.87-27.59-59.15-46.99-85.63-2.7-3.68-5.92-8.84-9.62-9.54-7.21-1.37-15.24-1.31-22.36.44-7.97,1.96-15.35,6.41-22.94,9.87-6.93,3.16-13.84,6.35-20.69,9.69-12.82,6.24-26.07,8.69-40.15,5.16-.92-.23-2.03.32-4.02.68.6,12.96.87,25.9,1.87,38.78,2.8,35.97,1.94,71.82-3.99,107.4-1.35,8.07-.04,13.99,5.79,19.56,6.29,6.01,12.08,12.54,18.04,18.9,32.71,34.89,52.05,76.48,61.49,123.01.55,2.74,1.2,5.45,2.09,9.47,5.35-4.36,6.97-9.56,8.42-14.48,4.63-15.65,8.83-31.43,13.22-47.15,4.49-16.07,8.49-32.3,13.63-48.16,10.59-32.71,32.06-57.25,59.62-76.95,3.18-2.27,6.4-4.5,11.25-7.9Z"/>
      <path class="cls-3" d="M1564.28,1096.98c22.05,4.68,40.97,12.69,58.82,23.34,17.91,10.69,33.27,24.38,47.37,41.67,28.29-33.79,63.3-54.95,104.55-64.64.29-1.61.76-2.5.49-2.96-12.1-20.29-16.83-43.13-22.74-65.56-4.25-16.14-8.29-32.33-12.84-48.39-9.91-34.98-33.33-59.61-61.94-80.26-5.3-3.83-9.67-3.38-14.79.23-29.6,20.88-52.5,46.78-62.37,82.5-4.16,15.04-7.98,30.17-11.93,45.26-6.05,23.11-10.5,46.77-24.61,68.8Z"/>
      <path class="cls-3" d="M1449.21,2318.2c7.48,4.98,12.57,9.15,18.31,12.06,19.28,9.76,39.65,16.02,61.32,17.78,28.27,2.29,55.75-2.4,83.02-9.05,13.4-3.27,26.75-6.8,40.2-9.83,6.35-1.43,9.23-4.69,9.23-11.26.03-25.04.46-50.08.42-75.12-.03-20.34-.53-40.69-.81-61.03-.16-11.59-.29-11.04-11.79-14.19-18.57-5.08-37.34-4.83-56.27-3.93-8.79.42-14.18,3.64-17.97,12.48-23.11,53.76-59.67,96.71-107.4,130.3-5.25,3.7-10.79,6.99-18.28,11.8Z"/>
      <path class="cls-3" d="M1891.29,2318.77c-15.51-11.53-29.9-20.82-42.65-31.98-34.82-30.47-63.35-65.99-81.17-109.12-4.07-9.85-9.93-13.96-20.3-14.23-18.55-.49-36.96-.93-55.11,4.23-10.06,2.86-10.86,2.95-11,12.8-.61,41.37-1.13,82.74-1.65,124.11-.04,3.27,0,6.54.2,9.8.68,11.01,1.99,13.04,12.91,15.58,25.44,5.9,50.76,12.73,76.52,16.71,36.31,5.61,71.71.87,104.72-16.4,5.96-3.12,11.32-7.38,17.54-11.49Z"/>
      <path class="cls-3" d="M1441.2,697.25c-13.01,2.49-23.81,6.48-33.66,12.69-19.23,12.12-35.24,27.69-48.92,45.86-3.85,5.12-5.28,10.21-4.4,16.17,3.01,20.43,5.41,40.98,9.38,61.23,9.02,45.91,25.7,89.13,48.32,130.03,4.87,8.8,10.91,16.96,16.61,25.72,6.45-2.97,8.11-8.37,10.32-13.05,8.92-18.87,13.05-39.17,16.86-59.5,7.73-41.27,8.25-82.87,5.27-124.63-.67-9.4-.3-18.86-.77-28.28-.17-3.5-.42-7.6-2.26-10.33-9.22-13.69-12.72-29.1-14.83-45.04-.42-3.17-1.12-6.3-1.94-10.86Z"/>
      <path class="cls-3" d="M1911.59,989.6c3.26-4.2,5.8-7.16,8-10.35,17.24-24.99,29.12-52.64,39.78-80.86,15.09-39.95,23.25-81.51,28.34-123.79,1.04-8.66-1.52-15.19-6.88-21.76-18.84-23.09-39.79-43.26-68.92-52.83-3.36-1.1-6.83-1.87-11.52-3.14-1.07,6.13-2.19,11.35-2.85,16.62-1.69,13.49-5.36,26.22-12.73,37.83-1.67,2.63-2.93,6.03-2.99,9.09-.68,38.07-2.25,76.17-1.22,114.2.79,29.02,7.13,57.54,15.84,85.35,3.14,10.01,7.03,19.72,15.16,29.63Z"/>
      <path class="cls-3" d="M1350.66,744.47c24.81-28.58,51.44-51.6,88.97-58.24-.39-7.35-1.05-13.41-.95-19.45.16-9.4.59-18.82,1.39-28.19.78-9.22,5.64-16.41,12.92-21.83,6.1-4.54,12.39-8.87,18.83-12.92,21.15-13.32,38.36-30.85,53.99-50.08.88-1.08,1.42-2.45,2.55-4.45-1.88-.83-3.34-1.82-4.93-2.13-34.15-6.7-68.31-9.56-102.18,1.28-25.14,8.05-48.98,18.98-66.97,38.97-20.26,22.52-30.42,48.76-26.46,79.81,3.1,24.35,10.41,47.39,19.16,70.11.76,1.96,1.93,3.77,3.68,7.13Z"/>
      <path class="cls-3" d="M1991.07,742.87c.59-.63,1.59-1.25,1.95-2.14,10.8-26.28,20.28-53.07,21.23-81.73,1.12-33.7-11.72-62.11-38.66-82.4-37.51-28.24-80.06-39.99-127.05-33.79-11.39,1.5-22.77,3.08-35.91,4.87,2.56,4.2,3.74,6.72,5.43,8.82,15.59,19.37,33.53,36.15,54.75,49.27.62.38,1.17.88,1.82,1.18,25.58,11.91,30.49,33.8,28.66,59.05-.44,6.08-2.66,13.69.08,17.87,2.71,4.13,10.59,5.07,16.34,6.96,25.7,8.44,45.19,25.61,63.36,44.68,2.24,2.35,4.42,4.76,6.67,7.1.19.2.67.14,1.3.25Z"/>
      <path class="cls-3" d="M1801.1,554.16c-24.35,34.89-45.42,139.7-34.09,169.84,19.07-.46,34.87,9.49,51.39,17.65,8.43,4.16,17.24,7.81,26.21,10.59,14.38,4.46,26.09-.57,32.51-14.23,3.34-7.11,5.46-15,6.89-22.76,3.95-21.44,6.81-43,5.97-64.95-.47-12.19-4.4-21.62-15.29-28.1-28.51-16.97-52.01-39.41-71.19-66.44-.38-.54-1.17-.8-2.41-1.6Z"/>
      <path class="cls-3" d="M1574.93,723.06c11.64-30.33-11.34-141.88-35.37-168.92-1.59,2.02-3.16,3.91-4.63,5.89-16.38,22.08-35.39,41.4-58.86,56.03-.92.58-1.74,1.36-2.72,1.8-20.49,9.27-23.52,27.14-22.03,46.5,1.3,16.99,3.58,33.94,6.17,50.79,1.15,7.44,3.39,14.93,6.46,21.81,6.44,14.47,17.85,19.78,32.95,15.19,9.33-2.83,18.26-7.06,27.22-11,9.96-4.39,19.55-9.7,29.7-13.59,6.27-2.4,13.26-2.9,21.12-4.5Z"/>
      <path class="cls-3" d="M1765.4,486.18c-3.45-12.16-6.77-23.88-10.48-36.95-27.88,7.63-55.32,13.73-83.83,13.73-28.54,0-56.03-5.83-84.15-13.67-3.87,13.13-7.4,25.14-11.1,37.69,41.13,13.44,70.7,40.32,94.61,76.18,6.61-8.57,12.46-17.09,19.29-24.74,6.74-7.56,14.06-14.75,21.89-21.16,8.11-6.64,16.8-12.76,25.88-18,8.69-5.01,18.19-8.61,27.9-13.08Z"/>
      <path class="cls-3" d="M1463.36,941.75c-1.47,5.2-2.49,10.58-4.49,15.57-4.83,12.07-9.72,24.15-15.41,35.83-2.47,5.06-4.02,9.69-3.82,15.4.66,19.57,6.12,37.87,13.99,55.53,10.67,23.96,24.21,46.21,41.01,66.42,1.61,1.93,3.45,3.68,5.31,5.38.4.37,1.33.15,3.5.32.77-6.92,2.12-13.94,2.24-20.97.71-41.08-7.96-80.66-20.34-119.5-5.82-18.24-12.9-36.09-19.41-54.11l-2.58.14Z"/>
      <path class="cls-3" d="M1841.31,1137.57c26.51-32.08,48.51-66.67,57.9-107.98,1.99-8.76,2.26-17.93,3.06-26.93.14-1.64-.63-3.64-1.61-5.04-10.97-15.78-16.57-33.72-21.36-52.02-.25-.95-.97-1.78-2.02-3.65-1.53,2.7-2.91,4.65-3.81,6.8-18.29,43.7-31.57,88.79-36.32,136.04-1.41,14-.59,28.23-.47,42.36.03,3.43,1.33,6.84,2.04,10.26l2.59.16Z"/>
      <path class="cls-3" d="M1489.43,964.07c17.76,54.23,31.81,108.58,28.25,167.6,2.84-1.83,4.75-2.54,5.89-3.89,6.09-7.18,12.33-14.29,17.79-21.94,2.08-2.91,3.44-7.34,3.05-10.85-4.95-44.48-20.14-85.09-46.94-121.14-2.51-3.38-5.35-6.53-8.03-9.78Z"/>
      <path class="cls-3" d="M1823.92,1130.77c-3.78-57.85,10.38-112.47,30.13-166.08-.83-.59-1.66-1.19-2.49-1.78-1.07,1.86-1.92,3.89-3.23,5.55-28.87,36.48-45.15,78.12-51.06,124.05-.73,5.69.16,10.66,4.04,15.16,6.82,7.9,13.39,16.01,20.06,24.03.85-.31,1.7-.62,2.55-.93Z"/>
      <path class="cls-3" d="M1559.32,387.32c7.16-17.77-2.96-78.13-15.61-96.53-1.95,3.03-4.51,5.38-5.06,8.13-6.37,31.82-.87,60.93,20.67,88.41Z"/>
      <path class="cls-3" d="M1781.22,386.76c18.28-17.22,22.19-38.51,23.66-60.33.8-11.83,2.69-24.55-6.52-35.21-11.34,12.65-22.26,72.73-17.14,95.55Z"/>
      <path class="cls-3" d="M1526.92,535.04c-6.09-9.04-12.92-15.83-20.18-22.13-1.5-1.3-5.08-1.71-6.91-.85-9.39,4.43-18.52,9.41-27.73,14.19.19.91.37,1.81.56,2.72,17.56,1.97,35.11,3.93,54.27,6.08Z"/>
      <path class="cls-3" d="M1869.75,526.5c-9.18-4.85-18.27-9.89-27.62-14.38-1.84-.89-5.51-.59-6.94.7-7.08,6.42-14.48,12.67-20.06,22.03,18.73-2.02,36.19-3.9,53.66-5.78.32-.86.63-1.71.95-2.57Z"/>
    </g>
  </g>
</svg>