<?xml version="1.0" encoding="UTF-8"?>
<svg xmlns="http://www.w3.org/2000/svg" viewBox="0 0 2500 2500">
  <defs>
    <style>
      .cls-1 {
        fill: #000;
      }

      .cls-1, .cls-2, .cls-3 {
        stroke-width: 0px;
      }

      .cls-2 {
        fill: none;
      }

      .cls-4 {
        fill: #de2800;
        stroke: #000;
        stroke-miterlimit: 10;
      }

      .cls-3 {
        fill: #fff;
      }
    </style>
  </defs>
  <g id="Layer_9" data-name="Layer 9">
    <rect class="cls-3" x="-11.4" y="-13.78" width="2528.78" height="2532.29"/>
  </g>
  <g id="Triceps">
    <g>
      <path class="cls-4" d="M1569.65,753.61c1.04,88.56-30.15,166.38-79.7,240.68-3.38-4.99-6.01-8.15-7.85-11.71-19.75-38.18-29.62-78.53-28.25-121.78.93-29.53.27-59.11.14-88.67-.05-10.6,1.99-20.41,6.13-30.37,4.93-11.86,8.13-24.54,11.07-37.1,2.85-12.21,6.3-15.19,17.87-9.93,14.59,6.63,29.07,13.83,42.59,22.38,7.71,4.87,13.65,12.7,19.97,19.58,5.31,5.79,10.02,12.15,14.99,18.25l3.05-1.33Z"/>
      <path class="cls-4" d="M1009.27,994.52c-5.55-8.05-10.23-13.54-13.49-19.77-17-32.49-35.37-64.3-47.69-99.1-8.61-24.32-11.68-49.65-15.41-74.88-1.84-12.44-2.89-25-4.14-37.51-.6-5.97.4-10.49,6.72-14.21,5.63-3.31,9.61-9.58,14.02-14.8,7.73-9.16,15.84-18.18,26.97-22.83,10.92-4.57,21.03-10.42,31.34-16.03,1.87-1.02,4.02-1.6,6.1-2.13,7.88-2.02,11.29.05,13.27,7.98.61,2.44.89,4.97,1.59,7.39,3.1,10.67,5,21.94,9.79,31.81,5.95,12.28,6.58,24.83,6.61,37.78.07,27.35-.14,54.71.17,82.06.4,34.93-3.85,68.93-18.51,101.07-3.28,7.2-6.37,14.5-9.86,21.6-1.65,3.36-4.06,6.36-7.47,11.59Z"/>
    </g>
  </g>
  <g id="Back">
    <path class="cls-1" d="M1122.92,279.11c-10.51-71.07,48.49-128.92,105.27-138.7,37.89-6.53,72.39,2.75,101.84,27.43,10.99,9.21,20.79,20.4,29.12,32.12,14.29,20.1,20.88,43.02,18.7,67.94-.57,6.56.3,11.14,6.84,15.31,4.58,2.91,8.35,9.59,9.38,15.16,6.43,34.77,1.64,67.3-22.47,94.89-5.87,6.72-10.12,13.96-13.1,22.32-2.92,8.17-6.58,16.12-10.48,23.89-2.06,4.09-3.58,7.87-2.13,12.4,2.99,9.33,5.88,18.69,8.95,28,1.78,5.39,4.79,8.07,11.35,7.36,6.36-.69,13.09.08,19.42,1.37,19.67,4,38.6,10.41,56.17,20.21,6.3,3.51,12.74,7.38,17.74,12.44,6.01,6.09,12.86,8.86,20.91,10.36,30.47,5.66,59,16.51,82.99,36.35,31.52,26.06,46.1,59.77,41.5,101.09-2.88,25.88-10.67,50.4-20.31,74.39-3.98,9.9-6.07,19.85-6.64,30.58-1.6,29.83-7.2,59.13-14.9,87.93-10.08,37.67-23.86,74-43.57,107.8-6.39,10.96-14.16,21.1-20.97,31.83-2.26,3.56-4.73,7.69-4.98,11.7-1.84,29.06-12.79,55.03-26.65,79.96-10.25,18.45-21.86,36.12-36.4,51.51-6.13,6.49-6.9,12.2-3.47,20.38,15.62,37.26,27.87,75.66,36.68,115.09,6.35,28.44,8.9,57.4,9.63,86.47.53,21.06.35,42.15.08,63.22-.84,66.29-14.79,129.7-42.68,189.9-12.67,27.35-25.88,54.46-38.92,81.64-6.49,13.54-8.04,28.12-6.58,42.54,2.18,21.64,6.46,43.05,9.25,64.64,2.6,20.14,6.57,40.44,6.02,60.56-.69,25.28-4.37,50.62-8.51,75.64-8.42,50.9-19.63,101.25-33.78,150.9-5.22,18.3-6.86,37.1-8.26,55.92-.31,4.17.4,8.87,2.1,12.67,24.05,53.94,59.37,98.76,108.34,132.3,5.68,3.89,11.94,6.92,17.74,10.66,8.74,5.65,9.4,11.19,1.92,18.44-11.16,10.82-24.8,17.56-39.18,23.03-35.26,13.42-71.36,16.2-108.15,8.07-24.81-5.48-49.52-11.44-74.18-17.57-5.89-1.46-11.22-1.29-17.07.1-27.54,6.54-55.08,13.21-82.81,18.85-39.5,8.04-77.34,1.29-113.5-15.55-7.82-3.64-15.12-8.72-21.96-14.05-11.78-9.18-11.15-15.4,1.45-23.02,5.9-3.57,12.1-6.72,17.7-10.72,39.02-27.93,70.21-62.87,93.23-105.03,2.44-4.46,4.23-9.32,7-13.55,8.14-12.4,7.91-25.9,6.59-39.89-2.38-25.13-9.87-49.07-16.05-73.33-12.73-50.01-22.94-100.54-30.67-151.56-6.3-41.56-1.33-82.47,6.59-123.38,3.37-17.38,4.7-35.23,5.81-52.94.77-12.37-1.85-24.46-7.43-35.87-12.43-25.46-24.42-51.13-36.71-76.66-23.6-49.01-37.24-100.93-42.08-154.81-3.15-35.02-4.55-70.33-1.32-105.57,2.02-22.04,2.79-44.27,6.22-66.08,6.64-42.16,20.68-82.34,35.66-122.16,8.42-22.36,10.57-16.2-6.22-37.09-24.58-30.59-44.34-63.84-53.23-102.6-1.54-6.7-1.96-13.66-3.43-20.39-.9-4.12-1.98-8.64-4.41-11.91-36.75-49.39-58.01-105.47-70.45-165.06-4.95-23.73-6.64-48.14-10.31-72.16-1.14-7.44-3.35-14.83-6.02-21.89-10.17-26.94-19.07-54.2-20.75-83.18-.46-7.86-.01-16.03,1.59-23.72,7.52-36.21,27.37-63.41,60.05-81.35,19.95-10.95,40.8-19.01,63.16-23.05,8.07-1.46,15.4-3.62,20.9-10.32,2.25-2.74,5.43-4.86,8.51-6.73,23.54-14.36,48.77-24.09,76.27-27.44,2.15-.26,4.34-.41,6.51-.36,11.07.3,11.08.33,14.95-9.58.92-2.37,1.62-4.83,2.59-7.17,5.79-13.94,8.87-27.71-2.14-40.76-.23-.27-.38-.63-.48-.97-4.84-17.07-14.1-31.34-25.61-44.86-11.42-13.42-14.27-30.88-16.19-47.89-1.17-10.35-.92-21.02.12-31.41,1.12-11.25,5.5-21.21,18.26-25.06ZM1235.88,2156.25c2.54-16.57,3.99-31.03,7.08-45.13,8.32-37.95,17.4-75.74,26.08-113.62,7.63-33.3,14.66-66.73,15.79-101.01,1.26-38.2-1.66-76.18-6.36-114.09-2.99-24.13-12.7-45.28-26.34-64.85-16.72-23.99-39.95-32.31-68.44-27.33-16.86,2.95-31.13,11.63-45.7,19.83-8.97,5.05-15.22,10.63-11.5,22.21,1.06,3.3.64,7.27.19,10.84-2.31,18.36-4,36.85-7.49,54.99-7.2,37.38-10.6,74.82-4.64,112.62,8.27,52.4,18.95,104.32,32.58,155.6,6.91,25.97,14.89,51.7,15.16,78.94.02,1.69.94,3.37,1.95,6.78,23.84-4.92,47.4-2.11,71.63,4.21ZM1039.18,1380.07c0,11.62.68,23.29-.2,34.84-.8,10.6,4.07,15.55,13.1,19.6,27.26,12.21,55.89,12.51,84.46,9.24,51.42-5.9,92.92-33.28,132.22-64.53,2.51-2,4.74-5.91,4.91-9.05,1.24-22.81,2.56-45.65,2.58-68.49.01-23.73-4.15-46.94-12.82-69.21-6.45-16.57-13.05-33.11-18.87-49.91-3.05-8.82-7.49-16.52-13.8-23.16-23.89-25.15-52.89-41.5-86.37-50.27-7.76-2.03-12.64.1-17.55,6.6-8.73,11.54-17.95,22.92-28.34,32.93-7.84,7.55-13.99,15.53-17.41,25.73-5.89,17.55-11.8,35.08-17.68,52.64-16.62,49.66-25.11,100.62-24.24,153.05ZM1250.29,451.12c23.09-1.58,46.57-2.63,69.72-8.07,11.09-2.61,18.2-8.24,22.13-18.55,1.55-4.07,3.01-8.18,4.69-12.19,2.46-5.88,3.22-11.75,1.31-18.01-4.45-14.63-3.96-29.56-.68-44.17,4.77-21.22,9.85-42.43,16.18-63.23,5.07-16.68,4.91-32.77.3-49.28-3.87-13.86-10.16-26.51-18.98-37.71-28.11-35.69-64.55-54.75-110.27-47.95-48.32,7.19-80.46,36.37-97.25,81.97-6.3,17.1-6.18,34.79-.95,52.46,4.74,16,9.39,32.05,13.24,48.28,4.87,20.57,8.44,41.29,1.82,62.37-1.1,3.51-.38,8.02.74,11.69,2,6.57,4.88,12.88,7.52,19.24,3.32,8,9.39,12.09,17.83,14.32,23.72,6.27,47.95,7.41,72.67,8.83ZM1262.07,1710.43c0-12.64-.34-22.39.1-32.11.44-9.78,1.19-19.6,2.64-29.28,4.72-31.59,10.31-63.06,14.67-94.7,5.88-42.67,6.73-85.42-1.32-128-2.05-10.83-4.32-21.62-6.74-33.68-3.24,2.64-4.87,4.04-6.57,5.35-26.32,20.31-54.57,37.35-85.74,49.07-25.9,9.74-52.84,11.94-80.4,10.5-16.88-.88-33.25-2.7-48.76-9.8-2.74-1.25-5.81-1.8-10.63-3.23.89,10.1,1.44,18.33,2.36,26.53,5.39,48.36,17.12,95.05,37.66,139.28,11.01,23.72,22.78,47.09,34.03,70.69,3.84,8.05,7.16,16.34,10.94,25.03,3.13-2.04,5.44-3.75,7.93-5.12,10.8-5.94,21.24-12.77,32.56-17.48,32.74-13.62,71.57-7.1,93.85,21.63.88,1.14,1.57,2.43,3.42,5.33ZM1251.57,591.02c-1.03-.02-2.06-.05-3.09-.07-1.59-2.7-3.48-5.26-4.72-8.11-15.27-35.23-41.55-59.79-74.92-77.47-14.71-7.79-30.63-8.92-46.67-6.91-8.37,1.05-17.04,2.57-25.2,7.63,1.89,2.31,3.04,4.12,4.56,5.51,28.07,25.59,43.9,58.13,54.15,94.04,7.02,24.58,9.82,49.8,12.53,75.05,1.16,10.8,2.69,21.81,1.69,32.51-.86,9.21,1.82,15.79,7.03,22.77,17.85,23.9,34.08,48.88,45.31,76.67,5.98,14.79,11.08,29.94,16.48,44.96,2.33,6.48,4.36,13.08,11.08,17.32,1.53-1.1,3.49-1.82,4.25-3.2,2.78-5.03,5.89-10.06,7.58-15.5,12.83-41.27,31.06-79.83,57.28-114.31,7.68-10.09,14.89-19.78,10.77-33.43-.2-.66-.02-1.45.06-2.17,3.23-26.63,5.16-53.5,10-79.84,8.09-44.06,25.27-84.03,58.99-115.28,1.43-1.32,2.23-3.33,3.33-5.04-17.64-10.48-51.08-11.6-70.99-.84-32.51,17.56-58.34,41.6-73.95,75.69-1.59,3.47-3.71,6.69-5.58,10.03ZM1461.45,1390.75c.15-33.83-1.8-67.54-8.26-100.79-8.05-41.47-21.37-81.46-36.29-120.89-2.23-5.91-6.54-11.26-10.72-16.15-10.6-12.38-22.33-23.84-32.32-36.66-5.64-7.23-11.01-9.09-19.5-6.83-26.44,7.02-50.18,19.23-70.94,36.88-7.69,6.54-14.32,14.4-21.04,22-5.78,6.55-6.82,13.72-2.86,22.15,5.85,12.48,11,25.33,15.84,38.24,3.43,9.15,6.54,18.53,8.62,28.07,7.51,34.43,7.34,69.23,3.17,104.02-.98,8.17.34,13.77,7.74,18.25,7.11,4.3,13.55,9.76,20.14,14.89,15.04,11.71,31.51,20.67,49.56,26.89,17.29,5.95,35.1,9.39,53.21,10.84,10.82.87,21.81.63,32.65-.18,9.71-.72,10.87-2.65,10.98-12.4.11-9.44.02-18.89.02-28.33ZM1377.68,1700.18c-5.65-1.18-10.5-2.71-15.44-3.15-32.51-2.85-59.03,13.23-73.29,43.89-2.42,5.21-2.95,10.18-1.84,15.8,2.18,11.03,4.44,22.11,5.51,33.29,2.13,22.39,4.36,44.83,4.91,67.29.54,22.08,1.22,44.53-2.03,66.24-5.54,36.92-13.89,73.43-21.48,110.03-6.93,33.4-14.56,66.66-21.54,100.06-1.6,7.63-2.93,15.59.76,24.38,13.99-2.62,27.7-6.2,41.62-7.5,13.79-1.29,27.79-.28,42.36-.28.87-23.99,5.26-46.37,11.51-68.42,15.26-53.87,26.78-108.58,35.52-163.83,2.94-18.58,5.28-37.63,4.46-56.32-.98-22.37-5.12-44.67-8.83-66.84-4.93-29.51-8.97-58.91-2.23-88.66.3-1.35.04-2.82.04-5.98ZM1459.07,1444.01c-22.38,2.15-43.28.96-64.03-2.52-20.92-3.51-41.43-9.11-59.59-20.05-17.82-10.73-34.36-23.59-51.45-35.51-.75,1.1-1.54,1.72-1.47,2.22.53,3.57,1.04,7.16,1.91,10.66,9.25,37.58,15.46,75.63,12.05,114.37-2.67,30.33-6.82,60.6-11.75,90.66-4.65,28.35-9.04,56.66-9.43,85.41-.18,13.28,2.98,26.11,6.86,40.82,24.04-39.97,57.74-51.67,100.51-41.96,1.61-2.81,3.36-5.51,4.76-8.38,9.55-19.59,18.92-39.27,28.55-58.81,23.55-47.8,36.47-98.63,42.94-151.24.96-7.78.13-15.77.13-25.66ZM1242.15,887.21c-10.64-9.37-14.75-21.28-18.5-33.45-11.56-37.47-29.69-71.57-52.17-103.63-5.84-8.32-12.28-12.85-22.14-12.24-4.26.26-8.76.66-12.63,2.25-9.39,3.84-18.53,8.31-27.67,12.73-17.43,8.43-34.89,16.58-55.15,12.09-.54-.12-1.25.58-3.19,1.56,0,3.22-.15,7.1.03,10.97.72,15.58,2.36,31.17,2.16,46.73-.34,25.73-.01,51.69-3.51,77.07-2.24,16.19.52,26.98,12.4,38.18,39,36.8,62.11,82.53,72.07,135.07.42,2.24,1.63,4.33,3.05,7.99,5.95-8.63,8.3-16.96,10.57-25.22,6.83-24.84,13.43-49.74,20.05-74.64,8.31-31.24,25.65-56.64,50.26-77.2,7.19-6.01,15-11.27,24.4-18.27ZM1258.39,887.68c4.85,3.4,8.06,5.63,11.25,7.9,27.56,19.7,49.03,44.24,59.62,76.95,5.14,15.86,9.14,32.09,13.63,48.16,4.39,15.72,8.59,31.5,13.22,47.15,1.46,4.92,3.07,10.13,8.42,14.48.89-4.01,1.53-6.73,2.09-9.47,9.43-46.53,28.78-88.12,61.49-123.01,5.96-6.35,11.75-12.89,18.04-18.9,5.84-5.58,7.14-11.49,5.79-19.56-5.93-35.59-6.79-71.43-3.99-107.4,1-12.88,1.27-25.82,1.87-38.78-1.99-.36-3.1-.91-4.02-.68-14.07,3.53-27.33,1.08-40.15-5.16-6.85-3.33-13.76-6.53-20.69-9.69-7.59-3.46-14.96-7.91-22.94-9.87-7.12-1.75-15.15-1.81-22.36-.44-3.7.7-6.92,5.86-9.62,9.54-19.4,26.48-35.47,54.76-46.99,85.63-6.66,17.84-9.48,37.4-24.65,53.14ZM1356.59,1096.98c-14.11-22.03-18.56-45.69-24.61-68.8-3.95-15.09-7.78-30.22-11.93-45.26-9.87-35.72-32.77-61.62-62.37-82.5-5.12-3.61-9.49-4.06-14.79-.23-28.61,20.65-52.03,45.28-61.94,80.26-4.55,16.05-8.59,32.25-12.84,48.39-5.91,22.43-10.64,45.27-22.74,65.56-.27.46.2,1.35.49,2.96,41.25,9.69,76.26,30.85,104.55,64.64,14.1-17.29,29.46-30.98,47.37-41.67,17.85-10.66,36.77-18.66,58.82-23.34ZM1471.66,2318.2c-7.49-4.81-13.03-8.1-18.28-11.8-47.73-33.58-84.29-76.53-107.4-130.3-3.8-8.83-9.18-12.06-17.97-12.48-18.92-.9-37.7-1.15-56.27,3.93-11.5,3.14-11.63,2.6-11.79,14.19-.28,20.34-.77,40.69-.81,61.03-.04,25.04.4,50.08.42,75.12,0,6.58,2.88,9.83,9.23,11.26,13.46,3.03,26.8,6.56,40.2,9.83,27.27,6.65,54.75,11.33,83.02,9.05,21.68-1.75,42.04-8.02,61.32-17.78,5.73-2.9,10.83-7.07,18.31-12.06ZM1029.58,2318.77c6.22,4.12,11.58,8.38,17.54,11.49,33.01,17.28,68.41,22.01,104.72,16.4,25.75-3.98,51.08-10.81,76.52-16.71,10.92-2.53,12.23-4.57,12.91-15.58.2-3.26.24-6.53.2-9.8-.53-41.37-1.05-82.74-1.65-124.11-.14-9.85-.95-9.94-11-12.8-18.15-5.16-36.55-4.72-55.11-4.23-10.37.28-16.23,4.38-20.3,14.23-17.82,43.13-46.35,78.64-81.17,109.12-12.75,11.16-27.14,20.45-42.65,31.98ZM1479.66,697.25c-.82,4.56-1.52,7.69-1.94,10.86-2.11,15.95-5.61,31.35-14.83,45.04-1.84,2.73-2.09,6.82-2.26,10.33-.47,9.42-.1,18.88-.77,28.28-2.99,41.76-2.46,83.36,5.27,124.63,3.81,20.32,7.94,40.62,16.86,59.5,2.21,4.68,3.87,10.08,10.32,13.05,5.7-8.76,11.74-16.91,16.61-25.72,22.62-40.9,39.31-84.11,48.32-130.03,3.97-20.24,6.37-40.8,9.38-61.23.88-5.96-.55-11.05-4.4-16.17-13.68-18.17-29.69-33.73-48.92-45.86-9.85-6.21-20.65-10.19-33.66-12.69ZM1009.28,989.6c8.14-9.91,12.03-19.62,15.16-29.63,8.72-27.81,15.06-56.33,15.84-85.35,1.03-38.03-.54-76.13-1.22-114.2-.05-3.07-1.32-6.46-2.99-9.09-7.37-11.61-11.04-24.34-12.73-37.83-.66-5.27-1.78-10.49-2.85-16.62-4.69,1.27-8.16,2.04-11.52,3.14-29.13,9.57-50.08,29.74-68.92,52.83-5.36,6.56-7.92,13.1-6.88,21.76,5.09,42.28,13.25,83.83,28.34,123.79,10.66,28.22,22.54,55.87,39.78,80.86,2.2,3.19,4.73,6.15,8,10.35ZM1570.21,744.47c1.75-3.36,2.92-5.16,3.68-7.13,8.76-22.72,16.06-45.76,19.16-70.11,3.95-31.05-6.2-57.29-26.46-79.81-17.98-19.99-41.83-30.92-66.97-38.97-33.87-10.84-68.04-7.97-102.18-1.28-1.59.31-3.05,1.3-4.93,2.13,1.13,2,1.67,3.36,2.55,4.45,15.63,19.24,32.84,36.77,53.99,50.08,6.44,4.05,12.73,8.38,18.83,12.92,7.28,5.42,12.14,12.61,12.92,21.83.79,9.37,1.22,18.79,1.39,28.19.1,6.04-.56,12.1-.95,19.45,37.53,6.64,64.16,29.66,88.97,58.24ZM929.8,742.87c.63-.11,1.11-.05,1.3-.25,2.25-2.35,4.43-4.75,6.67-7.1,18.18-19.07,37.67-36.24,63.36-44.68,5.76-1.89,13.63-2.83,16.34-6.96,2.74-4.19.52-11.79.08-17.87-1.82-25.24,3.08-47.13,28.66-59.05.65-.3,1.21-.8,1.82-1.18,21.23-13.12,39.17-29.9,54.75-49.27,1.69-2.1,2.87-4.62,5.43-8.82-13.14-1.78-24.52-3.36-35.91-4.87-46.99-6.2-89.54,5.56-127.05,33.79-26.94,20.28-39.79,48.69-38.66,82.4.95,28.65,10.44,55.45,21.23,81.73.36.88,1.36,1.51,1.95,2.14ZM1119.77,554.16c-1.23.8-2.02,1.06-2.41,1.6-19.17,27.03-42.68,49.47-71.19,66.44-10.89,6.48-14.82,15.92-15.29,28.1-.84,21.95,2.02,43.51,5.97,64.95,1.43,7.76,3.55,15.65,6.89,22.76,6.42,13.66,18.13,18.69,32.51,14.23,8.97-2.79,17.78-6.43,26.21-10.59,16.52-8.15,32.32-18.1,51.39-17.65,11.32-30.14-9.75-134.94-34.09-169.84ZM1345.94,723.06c7.85,1.6,14.85,2.09,21.12,4.5,10.14,3.89,19.73,9.2,29.7,13.59,8.96,3.95,17.89,8.17,27.22,11,15.1,4.59,26.51-.73,32.95-15.19,3.06-6.88,5.31-14.37,6.46-21.81,2.6-16.85,4.87-33.8,6.17-50.79,1.48-19.36-1.54-37.24-22.03-46.5-.98-.44-1.8-1.23-2.72-1.8-23.47-14.63-42.48-33.94-58.86-56.03-1.46-1.97-3.03-3.87-4.63-5.89-24.03,27.04-47.01,138.59-35.37,168.92ZM1155.46,486.18c9.7,4.47,19.21,8.07,27.9,13.08,9.08,5.24,17.77,11.35,25.88,18,7.83,6.41,15.14,13.6,21.89,21.16,6.83,7.65,12.68,16.17,19.29,24.74,23.91-35.86,53.48-62.74,94.61-76.18-3.7-12.56-7.24-24.56-11.1-37.69-28.11,7.84-55.61,13.67-84.15,13.67-28.51,0-55.95-6.1-83.83-13.73-3.71,13.06-7.03,24.78-10.48,36.95ZM1457.51,941.75l-2.58-.14c-6.51,18.02-13.59,35.87-19.41,54.11-12.38,38.83-21.05,78.42-20.34,119.5.12,7.04,1.47,14.05,2.24,20.97,2.18-.17,3.1.04,3.5-.32,1.86-1.7,3.7-3.44,5.31-5.38,16.8-20.2,30.34-42.45,41.01-66.42,7.87-17.66,13.32-35.96,13.99-55.53.19-5.71-1.36-10.34-3.82-15.4-5.69-11.68-10.58-23.76-15.41-35.83-2-4.99-3.02-10.37-4.49-15.57ZM1079.56,1137.57l2.59-.16c.71-3.42,2.01-6.83,2.04-10.26.12-14.12.94-28.36-.47-42.36-4.75-47.25-18.03-92.35-36.32-136.04-.9-2.15-2.28-4.1-3.81-6.8-1.05,1.86-1.78,2.69-2.02,3.65-4.79,18.3-10.39,36.25-21.36,52.02-.97,1.4-1.75,3.41-1.61,5.04.8,9,1.07,18.17,3.06,26.93,9.39,41.31,31.4,75.9,57.9,107.98ZM1431.43,964.07c-2.69,3.25-5.52,6.4-8.03,9.78-26.81,36.05-41.99,76.66-46.94,121.14-.39,3.51.97,7.94,3.05,10.85,5.46,7.65,11.69,14.76,17.79,21.94,1.15,1.35,3.05,2.06,5.89,3.89-3.56-59.02,10.49-113.37,28.25-167.6ZM1096.95,1130.77c.85.31,1.7.62,2.55.93,6.67-8.02,13.24-16.14,20.06-24.03,3.88-4.5,4.77-9.47,4.04-15.16-5.91-45.93-22.19-87.57-51.06-124.05-1.32-1.66-2.17-3.69-3.23-5.55-.83.59-1.66,1.19-2.49,1.78,19.75,53.61,33.91,108.23,30.13,166.08ZM1361.55,387.32c21.54-27.47,27.04-56.59,20.67-88.41-.55-2.75-3.11-5.09-5.06-8.13-12.65,18.4-22.77,78.76-15.61,96.53ZM1139.65,386.76c5.12-22.81-5.81-82.89-17.14-95.55-9.21,10.67-7.32,23.38-6.52,35.21,1.47,21.82,5.38,43.11,23.66,60.33ZM1393.95,535.04c19.16-2.14,36.71-4.11,54.27-6.08.19-.91.37-1.81.56-2.72-9.22-4.79-18.35-9.77-27.73-14.19-1.83-.86-5.41-.45-6.91.85-7.26,6.3-14.09,13.1-20.18,22.13ZM1051.12,526.5c.32.86.63,1.71.95,2.57,17.47,1.88,34.94,3.76,53.66,5.78-5.57-9.36-12.98-15.61-20.06-22.03-1.43-1.29-5.09-1.59-6.94-.7-9.35,4.5-18.44,9.53-27.62,14.38Z"/>
    <g>
      <path class="cls-2" d="M1235.88,2156.25c-24.22-6.32-47.79-9.13-71.63-4.21-1.01-3.41-1.93-5.09-1.95-6.78-.27-27.24-8.25-52.97-15.16-78.94-13.64-51.28-24.32-103.2-32.58-155.6-5.97-37.8-2.56-75.24,4.64-112.62,3.49-18.14,5.18-36.63,7.49-54.99.45-3.57.87-7.54-.19-10.84-3.73-11.58,2.53-17.17,11.5-22.21,14.58-8.2,28.84-16.88,45.7-19.83,28.49-4.98,51.72,3.34,68.44,27.33,13.64,19.57,23.35,40.72,26.34,64.85,4.69,37.91,7.62,75.9,6.36,114.09-1.13,34.28-8.16,67.72-15.79,101.01-8.68,37.88-17.76,75.66-26.08,113.62-3.09,14.1-4.53,28.56-7.08,45.13Z"/>
      <path class="cls-2" d="M1039.18,1380.07c-.87-52.43,7.62-103.39,24.24-153.05,5.87-17.55,11.79-35.09,17.68-52.64,3.42-10.2,9.57-18.18,17.41-25.73,10.39-10.02,19.61-21.39,28.34-32.93,4.91-6.5,9.79-8.63,17.55-6.6,33.48,8.77,62.49,25.12,86.37,50.27,6.31,6.65,10.74,14.34,13.8,23.16,5.82,16.8,12.41,33.33,18.87,49.91,8.67,22.27,12.84,45.48,12.82,69.21-.01,22.83-1.34,45.68-2.58,68.49-.17,3.14-2.4,7.05-4.91,9.05-39.3,31.25-80.79,58.64-132.22,64.53-28.57,3.28-57.2,2.97-84.46-9.24-9.04-4.05-13.91-9-13.1-19.6.88-11.55.2-23.22.2-34.84Z"/>
      <path class="cls-2" d="M1250.29,451.12c-24.72-1.42-48.95-2.55-72.67-8.83-8.43-2.23-14.51-6.33-17.83-14.32-2.64-6.36-5.52-12.67-7.52-19.24-1.12-3.67-1.84-8.19-.74-11.69,6.63-21.08,3.05-41.8-1.82-62.37-3.84-16.23-8.5-32.28-13.24-48.28-5.23-17.66-5.35-35.36.95-52.46,16.79-45.6,48.93-74.78,97.25-81.97,45.72-6.8,82.16,12.27,110.27,47.95,8.83,11.2,15.11,23.86,18.98,37.71,4.62,16.51,4.78,32.59-.3,49.28-6.33,20.8-11.41,42-16.18,63.23-3.28,14.61-3.77,29.55.68,44.17,1.91,6.26,1.15,12.13-1.31,18.01-1.68,4.01-3.14,8.12-4.69,12.19-3.92,10.31-11.04,15.94-22.13,18.55-23.14,5.44-46.63,6.5-69.72,8.07Z"/>
      <path class="cls-2" d="M1262.07,1710.43c-1.85-2.9-2.54-4.19-3.42-5.33-22.28-28.73-61.11-35.25-93.85-21.63-11.32,4.71-21.76,11.54-32.56,17.48-2.49,1.37-4.8,3.08-7.93,5.12-3.78-8.69-7.1-16.98-10.94-25.03-11.26-23.61-23.02-46.98-34.03-70.69-20.54-44.23-32.27-90.92-37.66-139.28-.91-8.2-1.47-16.43-2.36-26.53,4.82,1.44,7.89,1.98,10.63,3.23,15.51,7.1,31.88,8.92,48.76,9.8,27.56,1.44,54.5-.76,80.4-10.5,31.17-11.72,59.42-28.76,85.74-49.07,1.7-1.31,3.33-2.7,6.57-5.35,2.42,12.06,4.7,22.85,6.74,33.68,8.04,42.58,7.19,85.33,1.32,128-4.36,31.64-9.94,63.11-14.67,94.7-1.45,9.68-2.19,19.5-2.64,29.28-.44,9.72-.1,19.47-.1,32.11Z"/>
      <path class="cls-2" d="M1251.57,591.02c1.87-3.34,3.99-6.56,5.58-10.03,15.61-34.08,41.44-58.12,73.95-75.69,19.91-10.76,53.35-9.63,70.99.84-1.11,1.71-1.9,3.71-3.33,5.04-33.72,31.24-50.9,71.22-58.99,115.28-4.83,26.34-6.77,53.21-10,79.84-.09.72-.26,1.51-.06,2.17,4.11,13.65-3.1,23.34-10.77,33.43-26.22,34.48-44.45,73.04-57.28,114.31-1.69,5.43-4.8,10.46-7.58,15.5-.76,1.38-2.73,2.09-4.25,3.2-6.72-4.24-8.75-10.84-11.08-17.32-5.4-15.02-10.5-30.17-16.48-44.96-11.24-27.79-27.46-52.77-45.31-76.67-5.21-6.97-7.89-13.56-7.03-22.77,1-10.7-.53-21.71-1.69-32.51-2.71-25.25-5.51-50.47-12.53-75.05-10.25-35.91-26.08-68.45-54.15-94.04-1.53-1.39-2.68-3.21-4.56-5.51,8.15-5.06,16.83-6.58,25.2-7.63,16.04-2.01,31.96-.89,46.67,6.91,33.37,17.69,59.65,42.24,74.92,77.47,1.24,2.85,3.13,5.41,4.72,8.11,1.03.02,2.06.05,3.09.07Z"/>
      <path class="cls-2" d="M1461.45,1390.75c0,9.44.08,18.89-.02,28.33-.11,9.75-1.27,11.68-10.98,12.4-10.84.8-21.83,1.04-32.65.18-18.11-1.45-35.92-4.89-53.21-10.84-18.05-6.22-34.52-15.18-49.56-26.89-6.59-5.13-13.02-10.59-20.14-14.89-7.41-4.48-8.72-10.08-7.74-18.25,4.17-34.79,4.34-69.58-3.17-104.02-2.08-9.53-5.19-18.91-8.62-28.07-4.84-12.92-9.98-25.76-15.84-38.24-3.95-8.43-2.92-15.6,2.86-22.15,6.72-7.61,13.35-15.46,21.04-22,20.76-17.65,44.49-29.86,70.94-36.88,8.49-2.26,13.87-.4,19.5,6.83,9.99,12.83,21.72,24.29,32.32,36.66,4.19,4.89,8.49,10.25,10.72,16.15,14.92,39.43,28.23,79.42,36.29,120.89,6.46,33.24,8.4,66.96,8.26,100.79Z"/>
      <path class="cls-2" d="M1377.68,1700.18c0,3.16.27,4.64-.04,5.98-6.73,29.75-2.7,59.15,2.23,88.66,3.71,22.17,7.85,44.47,8.83,66.84.82,18.69-1.52,37.74-4.46,56.32-8.74,55.26-20.26,109.96-35.52,163.83-6.25,22.05-10.64,44.43-11.51,68.42-14.57,0-28.57-1.01-42.36.28-13.92,1.3-27.62,4.88-41.62,7.5-3.69-8.79-2.35-16.75-.76-24.38,6.98-33.39,14.61-66.65,21.54-100.06,7.59-36.6,15.94-73.11,21.48-110.03,3.26-21.71,2.57-44.16,2.03-66.24-.55-22.46-2.78-44.9-4.91-67.29-1.06-11.17-3.32-22.26-5.51-33.29-1.11-5.62-.58-10.59,1.84-15.8,14.26-30.66,40.78-46.74,73.29-43.89,4.94.43,9.79,1.96,15.44,3.15Z"/>
      <path class="cls-2" d="M1459.07,1444.01c0,9.89.82,17.89-.13,25.66-6.47,52.61-19.39,103.44-42.94,151.24-9.63,19.55-19,39.23-28.55,58.81-1.4,2.87-3.15,5.56-4.76,8.38-42.77-9.7-76.47,2-100.51,41.96-3.88-14.71-7.04-27.55-6.86-40.82.4-28.75,4.79-57.06,9.43-85.41,4.93-30.06,9.08-60.32,11.75-90.66,3.41-38.73-2.8-76.79-12.05-114.37-.86-3.5-1.38-7.09-1.91-10.66-.07-.5.72-1.13,1.47-2.22,17.09,11.92,33.63,24.78,51.45,35.51,18.16,10.94,38.67,16.54,59.59,20.05,20.74,3.48,41.65,4.66,64.03,2.52Z"/>
      <path class="cls-2" d="M1242.15,887.21c-9.4,7-17.21,12.26-24.4,18.27-24.61,20.56-41.95,45.96-50.26,77.2-6.62,24.9-13.22,49.8-20.05,74.64-2.27,8.26-4.62,16.59-10.57,25.22-1.43-3.66-2.63-5.75-3.05-7.99-9.96-52.54-33.07-98.27-72.07-135.07-11.87-11.21-14.63-21.99-12.4-38.18,3.5-25.38,3.18-51.34,3.51-77.07.2-15.56-1.43-31.15-2.16-46.73-.18-3.87-.03-7.75-.03-10.97,1.94-.98,2.66-1.68,3.19-1.56,20.27,4.48,37.72-3.67,55.15-12.09,9.14-4.42,18.28-8.89,27.67-12.73,3.88-1.59,8.38-1.99,12.63-2.25,9.87-.61,16.31,3.92,22.14,12.24,22.49,32.06,40.61,66.16,52.17,103.63,3.75,12.17,7.86,24.08,18.5,33.45Z"/>
      <path class="cls-2" d="M1258.39,887.68c15.17-15.73,17.99-35.3,24.65-53.14,11.52-30.87,27.59-59.15,46.99-85.63,2.7-3.68,5.92-8.84,9.62-9.54,7.21-1.37,15.24-1.31,22.36.44,7.97,1.96,15.35,6.41,22.94,9.87,6.93,3.16,13.84,6.35,20.69,9.69,12.82,6.24,26.07,8.69,40.15,5.16.92-.23,2.03.32,4.02.68-.6,12.96-.87,25.9-1.87,38.78-2.8,35.97-1.94,71.82,3.99,107.4,1.35,8.07.04,13.99-5.79,19.56-6.29,6.01-12.08,12.54-18.04,18.9-32.71,34.89-52.05,76.48-61.49,123.01-.55,2.74-1.2,5.45-2.09,9.47-5.35-4.36-6.97-9.56-8.42-14.48-4.63-15.65-8.83-31.43-13.22-47.15-4.49-16.07-8.49-32.3-13.63-48.16-10.59-32.71-32.06-57.25-59.62-76.95-3.18-2.27-6.4-4.5-11.25-7.9Z"/>
      <path class="cls-2" d="M1356.59,1096.98c-22.05,4.68-40.97,12.69-58.82,23.34-17.91,10.69-33.27,24.38-47.37,41.67-28.29-33.79-63.3-54.95-104.55-64.64-.29-1.61-.76-2.5-.49-2.96,12.1-20.29,16.83-43.13,22.74-65.56,4.25-16.14,8.29-32.33,12.84-48.39,9.91-34.98,33.33-59.61,61.94-80.26,5.3-3.83,9.67-3.38,14.79.23,29.6,20.88,52.5,46.78,62.37,82.5,4.16,15.04,7.98,30.17,11.93,45.26,6.05,23.11,10.5,46.77,24.61,68.8Z"/>
      <path class="cls-2" d="M1471.66,2318.2c-7.48,4.98-12.57,9.15-18.31,12.06-19.28,9.76-39.65,16.02-61.32,17.78-28.27,2.29-55.75-2.4-83.02-9.05-13.4-3.27-26.75-6.8-40.2-9.83-6.35-1.43-9.23-4.69-9.23-11.26-.03-25.04-.46-50.08-.42-75.12.03-20.34.53-40.69.81-61.03.16-11.59.29-11.04,11.79-14.19,18.57-5.08,37.34-4.83,56.27-3.93,8.79.42,14.18,3.64,17.97,12.48,23.11,53.76,59.67,96.71,107.4,130.3,5.25,3.7,10.79,6.99,18.28,11.8Z"/>
      <path class="cls-2" d="M1029.58,2318.77c15.51-11.53,29.9-20.82,42.65-31.98,34.82-30.47,63.35-65.99,81.17-109.12,4.07-9.85,9.93-13.96,20.3-14.23,18.55-.49,36.96-.93,55.11,4.23,10.06,2.86,10.86,2.95,11,12.8.61,41.37,1.13,82.74,1.65,124.11.04,3.27,0,6.54-.2,9.8-.68,11.01-1.99,13.04-12.91,15.58-25.44,5.9-50.76,12.73-76.52,16.71-36.31,5.61-71.71.87-104.72-16.4-5.96-3.12-11.32-7.38-17.54-11.49Z"/>
      <path class="cls-2" d="M1479.66,697.25c13.01,2.49,23.81,6.48,33.66,12.69,19.23,12.12,35.24,27.69,48.92,45.86,3.85,5.12,5.28,10.21,4.4,16.17-3.01,20.43-5.41,40.98-9.38,61.23-9.02,45.91-25.7,89.13-48.32,130.03-4.87,8.8-10.91,16.96-16.61,25.72-6.45-2.97-8.11-8.37-10.32-13.05-8.92-18.87-13.05-39.17-16.86-59.5-7.73-41.27-8.25-82.87-5.27-124.63.67-9.4.3-18.86.77-28.28.17-3.5.42-7.6,2.26-10.33,9.22-13.69,12.72-29.1,14.83-45.04.42-3.17,1.12-6.3,1.94-10.86Z"/>
      <path class="cls-2" d="M1009.28,989.6c-3.26-4.2-5.8-7.16-8-10.35-17.24-24.99-29.12-52.64-39.78-80.86-15.09-39.95-23.25-81.51-28.34-123.79-1.04-8.66,1.52-15.19,6.88-21.76,18.84-23.09,39.79-43.26,68.92-52.83,3.36-1.1,6.83-1.87,11.52-3.14,1.07,6.13,2.19,11.35,2.85,16.62,1.69,13.49,5.36,26.22,12.73,37.83,1.67,2.63,2.93,6.03,2.99,9.09.68,38.07,2.25,76.17,1.22,114.2-.79,29.02-7.13,57.54-15.84,85.35-3.14,10.01-7.03,19.72-15.16,29.63Z"/>
      <path class="cls-2" d="M1570.21,744.47c-24.81-28.58-51.44-51.6-88.97-58.24.39-7.35,1.05-13.41.95-19.45-.16-9.4-.59-18.82-1.39-28.19-.78-9.22-5.64-16.41-12.92-21.83-6.1-4.54-12.39-8.87-18.83-12.92-21.15-13.32-38.36-30.85-53.99-50.08-.88-1.08-1.42-2.45-2.55-4.45,1.88-.83,3.34-1.82,4.93-2.13,34.15-6.7,68.31-9.56,102.18,1.28,25.14,8.05,48.98,18.98,66.97,38.97,20.26,22.52,30.42,48.76,26.46,79.81-3.1,24.35-10.41,47.39-19.16,70.11-.76,1.96-1.93,3.77-3.68,7.13Z"/>
      <path class="cls-2" d="M929.8,742.87c-.59-.63-1.59-1.25-1.95-2.14-10.8-26.28-20.28-53.07-21.23-81.73-1.12-33.7,11.72-62.11,38.66-82.4,37.51-28.24,80.06-39.99,127.05-33.79,11.39,1.5,22.77,3.08,35.91,4.87-2.56,4.2-3.74,6.72-5.43,8.82-15.59,19.37-33.53,36.15-54.75,49.27-.62.38-1.17.88-1.82,1.18-25.58,11.91-30.49,33.8-28.66,59.05.44,6.08,2.66,13.69-.08,17.87-2.71,4.13-10.59,5.07-16.34,6.96-25.7,8.44-45.19,25.61-63.36,44.68-2.24,2.35-4.42,4.76-6.67,7.1-.19.2-.67.14-1.3.25Z"/>
      <path class="cls-2" d="M1119.77,554.16c24.35,34.89,45.42,139.7,34.09,169.84-19.07-.46-34.87,9.49-51.39,17.65-8.43,4.16-17.24,7.81-26.21,10.59-14.38,4.46-26.09-.57-32.51-14.23-3.34-7.11-5.46-15-6.89-22.76-3.95-21.44-6.81-43-5.97-64.95.47-12.19,4.4-21.62,15.29-28.1,28.51-16.97,52.01-39.41,71.19-66.44.38-.54,1.17-.8,2.41-1.6Z"/>
      <path class="cls-2" d="M1345.94,723.06c-11.64-30.33,11.34-141.88,35.37-168.92,1.59,2.02,3.16,3.91,4.63,5.89,16.38,22.08,35.39,41.4,58.86,56.03.92.58,1.74,1.36,2.72,1.8,20.49,9.27,23.52,27.14,22.03,46.5-1.3,16.99-3.58,33.94-6.17,50.79-1.15,7.44-3.39,14.93-6.46,21.81-6.44,14.47-17.85,19.78-32.95,15.19-9.33-2.83-18.26-7.06-27.22-11-9.96-4.39-19.55-9.7-29.7-13.59-6.27-2.4-13.26-2.9-21.12-4.5Z"/>
      <path class="cls-2" d="M1155.46,486.18c3.45-12.16,6.77-23.88,10.48-36.95,27.88,7.63,55.32,13.73,83.83,13.73,28.54,0,56.03-5.83,84.15-13.67,3.87,13.13,7.4,25.14,11.1,37.69-41.13,13.44-70.7,40.32-94.61,76.18-6.61-8.57-12.46-17.09-19.29-24.74-6.74-7.56-14.06-14.75-21.89-21.16-8.11-6.64-16.8-12.76-25.88-18-8.69-5.01-18.19-8.61-27.9-13.08Z"/>
      <path class="cls-2" d="M1457.51,941.75c1.47,5.2,2.49,10.58,4.49,15.57,4.83,12.07,9.72,24.15,15.41,35.83,2.47,5.06,4.02,9.69,3.82,15.4-.66,19.57-6.12,37.87-13.99,55.53-10.67,23.96-24.21,46.21-41.01,66.42-1.61,1.93-3.45,3.68-5.31,5.38-.4.37-1.33.15-3.5.32-.77-6.92-2.12-13.94-2.24-20.97-.71-41.08,7.96-80.66,20.34-119.5,5.82-18.24,12.9-36.09,19.41-54.11l2.58.14Z"/>
      <path class="cls-2" d="M1079.56,1137.57c-26.51-32.08-48.51-66.67-57.9-107.98-1.99-8.76-2.26-17.93-3.06-26.93-.14-1.64.63-3.64,1.61-5.04,10.97-15.78,16.57-33.72,21.36-52.02.25-.95.97-1.78,2.02-3.65,1.53,2.7,2.91,4.65,3.81,6.8,18.29,43.7,31.57,88.79,36.32,136.04,1.41,14,.59,28.23.47,42.36-.03,3.43-1.33,6.84-2.04,10.26l-2.59.16Z"/>
      <path class="cls-2" d="M1431.43,964.07c-17.76,54.23-31.81,108.58-28.25,167.6-2.84-1.83-4.75-2.54-5.89-3.89-6.09-7.18-12.33-14.29-17.79-21.94-2.08-2.91-3.44-7.34-3.05-10.85,4.95-44.48,20.14-85.09,46.94-121.14,2.51-3.38,5.35-6.53,8.03-9.78Z"/>
      <path class="cls-2" d="M1096.95,1130.77c3.78-57.85-10.38-112.47-30.13-166.08.83-.59,1.66-1.19,2.49-1.78,1.07,1.86,1.92,3.89,3.23,5.55,28.87,36.48,45.15,78.12,51.06,124.05.73,5.69-.16,10.66-4.04,15.16-6.82,7.9-13.39,16.01-20.06,24.03-.85-.31-1.7-.62-2.55-.93Z"/>
      <path class="cls-2" d="M1361.55,387.32c-7.16-17.77,2.96-78.13,15.61-96.53,1.95,3.03,4.51,5.38,5.06,8.13,6.37,31.82.87,60.93-20.67,88.41Z"/>
      <path class="cls-2" d="M1139.65,386.76c-18.28-17.22-22.19-38.51-23.66-60.33-.8-11.83-2.69-24.55,6.52-35.21,11.34,12.65,22.26,72.73,17.14,95.55Z"/>
      <path class="cls-2" d="M1393.95,535.04c6.09-9.04,12.92-15.83,20.18-22.13,1.5-1.3,5.08-1.71,6.91-.85,9.39,4.43,18.52,9.41,27.73,14.19-.19.91-.37,1.81-.56,2.72-17.56,1.97-35.11,3.93-54.27,6.08Z"/>
      <path class="cls-2" d="M1051.12,526.5c9.18-4.85,18.27-9.89,27.62-14.38,1.84-.89,5.51-.59,6.94.7,7.08,6.42,14.48,12.67,20.06,22.03-18.73-2.02-36.19-3.9-53.66-5.78-.32-.86-.63-1.71-.95-2.57Z"/>
    </g>
  </g>
</svg>